<mxfile host="app.diagrams.net" agent="Mozilla/5.0 (Windows NT 10.0; Win64; x64) AppleWebKit/537.36 (KHTML, like Gecko) Chrome/135.0.0.0 Safari/537.36" version="26.2.13">
  <diagram id="R2lEEEUBdFMjLlhIrx00" name="Page-1">
    <mxGraphModel dx="4176" dy="2248" grid="1" gridSize="10" guides="1" tooltips="1" connect="0" arrows="0" fold="1" page="1" pageScale="1" pageWidth="850" pageHeight="1100" math="0" shadow="0" extFonts="Permanent Marker^https://fonts.googleapis.com/css?family=Permanent+Marker">
      <root>
        <mxCell id="0" />
        <mxCell id="1" parent="0" />
        <mxCell id="Xm_AiRq3xBXqMQoTUS5R-985" value="" style="group" vertex="1" connectable="0" parent="1">
          <mxGeometry x="240" y="560" width="250" height="660" as="geometry" />
        </mxCell>
        <mxCell id="Xm_AiRq3xBXqMQoTUS5R-10" value="" style="group" vertex="1" connectable="0" parent="Xm_AiRq3xBXqMQoTUS5R-985">
          <mxGeometry y="60" width="250" height="40" as="geometry" />
        </mxCell>
        <mxCell id="Xm_AiRq3xBXqMQoTUS5R-8" value="" style="rounded=0;whiteSpace=wrap;html=1;fillColor=none;" vertex="1" parent="Xm_AiRq3xBXqMQoTUS5R-10">
          <mxGeometry width="250" height="40" as="geometry" />
        </mxCell>
        <mxCell id="Xm_AiRq3xBXqMQoTUS5R-9" value="" style="endArrow=none;html=1;rounded=0;entryX=0.119;entryY=0.002;entryDx=0;entryDy=0;entryPerimeter=0;exitX=0.119;exitY=0.993;exitDx=0;exitDy=0;exitPerimeter=0;" edge="1" parent="Xm_AiRq3xBXqMQoTUS5R-10" source="Xm_AiRq3xBXqMQoTUS5R-8" target="Xm_AiRq3xBXqMQoTUS5R-8">
          <mxGeometry width="50" height="50" relative="1" as="geometry">
            <mxPoint x="140" y="80" as="sourcePoint" />
            <mxPoint x="190" y="30" as="targetPoint" />
          </mxGeometry>
        </mxCell>
        <mxCell id="Xm_AiRq3xBXqMQoTUS5R-1" value="User" style="shape=table;startSize=30;container=1;collapsible=1;childLayout=tableLayout;fixedRows=1;rowLines=0;fontStyle=1;align=center;resizeLast=1;" vertex="1" parent="Xm_AiRq3xBXqMQoTUS5R-985">
          <mxGeometry width="250" height="660" as="geometry" />
        </mxCell>
        <mxCell id="Xm_AiRq3xBXqMQoTUS5R-2" value="" style="shape=partialRectangle;collapsible=0;dropTarget=0;pointerEvents=0;fillColor=none;points=[[0,0.5],[1,0.5]];portConstraint=eastwest;top=0;left=0;right=0;bottom=1;" vertex="1" parent="Xm_AiRq3xBXqMQoTUS5R-1">
          <mxGeometry y="30" width="250" height="30" as="geometry" />
        </mxCell>
        <mxCell id="Xm_AiRq3xBXqMQoTUS5R-3" value="PK" style="shape=partialRectangle;overflow=hidden;connectable=0;fillColor=none;top=0;left=0;bottom=0;right=0;fontStyle=1;" vertex="1" parent="Xm_AiRq3xBXqMQoTUS5R-2">
          <mxGeometry width="30" height="30" as="geometry">
            <mxRectangle width="30" height="30" as="alternateBounds" />
          </mxGeometry>
        </mxCell>
        <mxCell id="Xm_AiRq3xBXqMQoTUS5R-4" value="id String" style="shape=partialRectangle;overflow=hidden;connectable=0;fillColor=none;top=0;left=0;bottom=0;right=0;align=left;spacingLeft=6;fontStyle=1;" vertex="1" parent="Xm_AiRq3xBXqMQoTUS5R-2">
          <mxGeometry x="30" width="220" height="30" as="geometry">
            <mxRectangle width="220" height="30" as="alternateBounds" />
          </mxGeometry>
        </mxCell>
        <mxCell id="Xm_AiRq3xBXqMQoTUS5R-5" value="" style="shape=partialRectangle;collapsible=0;dropTarget=0;pointerEvents=0;fillColor=none;points=[[0,0.5],[1,0.5]];portConstraint=eastwest;top=0;left=0;right=0;bottom=0;" vertex="1" parent="Xm_AiRq3xBXqMQoTUS5R-1">
          <mxGeometry y="60" width="250" height="40" as="geometry" />
        </mxCell>
        <mxCell id="Xm_AiRq3xBXqMQoTUS5R-6" value="" style="shape=partialRectangle;overflow=hidden;connectable=0;fillColor=none;top=0;left=0;bottom=0;right=0;" vertex="1" parent="Xm_AiRq3xBXqMQoTUS5R-5">
          <mxGeometry width="30" height="40" as="geometry">
            <mxRectangle width="30" height="40" as="alternateBounds" />
          </mxGeometry>
        </mxCell>
        <mxCell id="Xm_AiRq3xBXqMQoTUS5R-7" value="email String" style="shape=partialRectangle;overflow=hidden;connectable=0;fillColor=none;top=0;left=0;bottom=0;right=0;align=left;spacingLeft=6;" vertex="1" parent="Xm_AiRq3xBXqMQoTUS5R-5">
          <mxGeometry x="30" width="220" height="40" as="geometry">
            <mxRectangle width="220" height="40" as="alternateBounds" />
          </mxGeometry>
        </mxCell>
        <mxCell id="Xm_AiRq3xBXqMQoTUS5R-11" value="" style="group" vertex="1" connectable="0" parent="Xm_AiRq3xBXqMQoTUS5R-985">
          <mxGeometry y="100" width="250" height="40" as="geometry" />
        </mxCell>
        <mxCell id="Xm_AiRq3xBXqMQoTUS5R-15" value="" style="group" vertex="1" connectable="0" parent="Xm_AiRq3xBXqMQoTUS5R-11">
          <mxGeometry width="250" height="40" as="geometry" />
        </mxCell>
        <mxCell id="Xm_AiRq3xBXqMQoTUS5R-12" value="" style="rounded=0;whiteSpace=wrap;html=1;fillColor=none;" vertex="1" parent="Xm_AiRq3xBXqMQoTUS5R-15">
          <mxGeometry width="250" height="40" as="geometry" />
        </mxCell>
        <mxCell id="Xm_AiRq3xBXqMQoTUS5R-14" value="password String" style="shape=partialRectangle;overflow=hidden;connectable=0;fillColor=none;top=0;left=0;bottom=0;right=0;align=left;spacingLeft=6;" vertex="1" parent="Xm_AiRq3xBXqMQoTUS5R-15">
          <mxGeometry x="30" width="220" height="40" as="geometry">
            <mxRectangle width="220" height="40" as="alternateBounds" />
          </mxGeometry>
        </mxCell>
        <mxCell id="Xm_AiRq3xBXqMQoTUS5R-13" value="" style="endArrow=none;html=1;rounded=0;entryX=0.119;entryY=0.002;entryDx=0;entryDy=0;entryPerimeter=0;exitX=0.119;exitY=0.993;exitDx=0;exitDy=0;exitPerimeter=0;" edge="1" parent="Xm_AiRq3xBXqMQoTUS5R-15" source="Xm_AiRq3xBXqMQoTUS5R-12" target="Xm_AiRq3xBXqMQoTUS5R-12">
          <mxGeometry width="50" height="50" relative="1" as="geometry">
            <mxPoint x="140" y="80" as="sourcePoint" />
            <mxPoint x="190" y="30" as="targetPoint" />
          </mxGeometry>
        </mxCell>
        <mxCell id="Xm_AiRq3xBXqMQoTUS5R-16" value="" style="group" vertex="1" connectable="0" parent="Xm_AiRq3xBXqMQoTUS5R-985">
          <mxGeometry y="140" width="250" height="40" as="geometry" />
        </mxCell>
        <mxCell id="Xm_AiRq3xBXqMQoTUS5R-17" value="" style="rounded=0;whiteSpace=wrap;html=1;fillColor=none;" vertex="1" parent="Xm_AiRq3xBXqMQoTUS5R-16">
          <mxGeometry width="250" height="40" as="geometry" />
        </mxCell>
        <mxCell id="Xm_AiRq3xBXqMQoTUS5R-18" value="firstName String" style="shape=partialRectangle;overflow=hidden;connectable=0;fillColor=none;top=0;left=0;bottom=0;right=0;align=left;spacingLeft=6;" vertex="1" parent="Xm_AiRq3xBXqMQoTUS5R-16">
          <mxGeometry x="30" width="220" height="40" as="geometry">
            <mxRectangle width="220" height="40" as="alternateBounds" />
          </mxGeometry>
        </mxCell>
        <mxCell id="Xm_AiRq3xBXqMQoTUS5R-19" value="" style="endArrow=none;html=1;rounded=0;entryX=0.119;entryY=0.002;entryDx=0;entryDy=0;entryPerimeter=0;exitX=0.119;exitY=0.993;exitDx=0;exitDy=0;exitPerimeter=0;" edge="1" parent="Xm_AiRq3xBXqMQoTUS5R-16" source="Xm_AiRq3xBXqMQoTUS5R-17" target="Xm_AiRq3xBXqMQoTUS5R-17">
          <mxGeometry width="50" height="50" relative="1" as="geometry">
            <mxPoint x="140" y="80" as="sourcePoint" />
            <mxPoint x="190" y="30" as="targetPoint" />
          </mxGeometry>
        </mxCell>
        <mxCell id="Xm_AiRq3xBXqMQoTUS5R-20" value="" style="group" vertex="1" connectable="0" parent="Xm_AiRq3xBXqMQoTUS5R-985">
          <mxGeometry y="180" width="250" height="40" as="geometry" />
        </mxCell>
        <mxCell id="Xm_AiRq3xBXqMQoTUS5R-21" value="" style="rounded=0;whiteSpace=wrap;html=1;fillColor=none;" vertex="1" parent="Xm_AiRq3xBXqMQoTUS5R-20">
          <mxGeometry width="250" height="40" as="geometry" />
        </mxCell>
        <mxCell id="Xm_AiRq3xBXqMQoTUS5R-22" value="lastName String" style="shape=partialRectangle;overflow=hidden;connectable=0;fillColor=none;top=0;left=0;bottom=0;right=0;align=left;spacingLeft=6;" vertex="1" parent="Xm_AiRq3xBXqMQoTUS5R-20">
          <mxGeometry x="30" width="220" height="40" as="geometry">
            <mxRectangle width="220" height="40" as="alternateBounds" />
          </mxGeometry>
        </mxCell>
        <mxCell id="Xm_AiRq3xBXqMQoTUS5R-23" value="" style="endArrow=none;html=1;rounded=0;entryX=0.119;entryY=0.002;entryDx=0;entryDy=0;entryPerimeter=0;exitX=0.119;exitY=0.993;exitDx=0;exitDy=0;exitPerimeter=0;" edge="1" parent="Xm_AiRq3xBXqMQoTUS5R-20" source="Xm_AiRq3xBXqMQoTUS5R-21" target="Xm_AiRq3xBXqMQoTUS5R-21">
          <mxGeometry width="50" height="50" relative="1" as="geometry">
            <mxPoint x="140" y="80" as="sourcePoint" />
            <mxPoint x="190" y="30" as="targetPoint" />
          </mxGeometry>
        </mxCell>
        <mxCell id="Xm_AiRq3xBXqMQoTUS5R-24" value="" style="group" vertex="1" connectable="0" parent="Xm_AiRq3xBXqMQoTUS5R-985">
          <mxGeometry y="220" width="250" height="40" as="geometry" />
        </mxCell>
        <mxCell id="Xm_AiRq3xBXqMQoTUS5R-25" value="" style="rounded=0;whiteSpace=wrap;html=1;fillColor=none;" vertex="1" parent="Xm_AiRq3xBXqMQoTUS5R-24">
          <mxGeometry width="250" height="40" as="geometry" />
        </mxCell>
        <mxCell id="Xm_AiRq3xBXqMQoTUS5R-26" value="position String" style="shape=partialRectangle;overflow=hidden;connectable=0;fillColor=none;top=0;left=0;bottom=0;right=0;align=left;spacingLeft=6;" vertex="1" parent="Xm_AiRq3xBXqMQoTUS5R-24">
          <mxGeometry x="30" width="220" height="40" as="geometry">
            <mxRectangle width="220" height="40" as="alternateBounds" />
          </mxGeometry>
        </mxCell>
        <mxCell id="Xm_AiRq3xBXqMQoTUS5R-27" value="" style="endArrow=none;html=1;rounded=0;entryX=0.119;entryY=0.002;entryDx=0;entryDy=0;entryPerimeter=0;exitX=0.119;exitY=0.993;exitDx=0;exitDy=0;exitPerimeter=0;" edge="1" parent="Xm_AiRq3xBXqMQoTUS5R-24" source="Xm_AiRq3xBXqMQoTUS5R-25" target="Xm_AiRq3xBXqMQoTUS5R-25">
          <mxGeometry width="50" height="50" relative="1" as="geometry">
            <mxPoint x="140" y="80" as="sourcePoint" />
            <mxPoint x="190" y="30" as="targetPoint" />
          </mxGeometry>
        </mxCell>
        <mxCell id="Xm_AiRq3xBXqMQoTUS5R-28" value="" style="group" vertex="1" connectable="0" parent="Xm_AiRq3xBXqMQoTUS5R-985">
          <mxGeometry y="260" width="250" height="40" as="geometry" />
        </mxCell>
        <mxCell id="Xm_AiRq3xBXqMQoTUS5R-29" value="" style="rounded=0;whiteSpace=wrap;html=1;fillColor=none;" vertex="1" parent="Xm_AiRq3xBXqMQoTUS5R-28">
          <mxGeometry width="250" height="40" as="geometry" />
        </mxCell>
        <mxCell id="Xm_AiRq3xBXqMQoTUS5R-30" value="company String" style="shape=partialRectangle;overflow=hidden;connectable=0;fillColor=none;top=0;left=0;bottom=0;right=0;align=left;spacingLeft=6;" vertex="1" parent="Xm_AiRq3xBXqMQoTUS5R-28">
          <mxGeometry x="30" width="220" height="40" as="geometry">
            <mxRectangle width="220" height="40" as="alternateBounds" />
          </mxGeometry>
        </mxCell>
        <mxCell id="Xm_AiRq3xBXqMQoTUS5R-31" value="" style="endArrow=none;html=1;rounded=0;entryX=0.119;entryY=0.002;entryDx=0;entryDy=0;entryPerimeter=0;exitX=0.119;exitY=0.993;exitDx=0;exitDy=0;exitPerimeter=0;" edge="1" parent="Xm_AiRq3xBXqMQoTUS5R-28" source="Xm_AiRq3xBXqMQoTUS5R-29" target="Xm_AiRq3xBXqMQoTUS5R-29">
          <mxGeometry width="50" height="50" relative="1" as="geometry">
            <mxPoint x="140" y="80" as="sourcePoint" />
            <mxPoint x="190" y="30" as="targetPoint" />
          </mxGeometry>
        </mxCell>
        <mxCell id="Xm_AiRq3xBXqMQoTUS5R-32" value="" style="group" vertex="1" connectable="0" parent="Xm_AiRq3xBXqMQoTUS5R-985">
          <mxGeometry y="300" width="250" height="40" as="geometry" />
        </mxCell>
        <mxCell id="Xm_AiRq3xBXqMQoTUS5R-33" value="" style="rounded=0;whiteSpace=wrap;html=1;fillColor=none;" vertex="1" parent="Xm_AiRq3xBXqMQoTUS5R-32">
          <mxGeometry width="250" height="40" as="geometry" />
        </mxCell>
        <mxCell id="Xm_AiRq3xBXqMQoTUS5R-34" value="accountPurpose String" style="shape=partialRectangle;overflow=hidden;connectable=0;fillColor=none;top=0;left=0;bottom=0;right=0;align=left;spacingLeft=6;" vertex="1" parent="Xm_AiRq3xBXqMQoTUS5R-32">
          <mxGeometry x="30" width="220" height="40" as="geometry">
            <mxRectangle width="220" height="40" as="alternateBounds" />
          </mxGeometry>
        </mxCell>
        <mxCell id="Xm_AiRq3xBXqMQoTUS5R-35" value="" style="endArrow=none;html=1;rounded=0;entryX=0.119;entryY=0.002;entryDx=0;entryDy=0;entryPerimeter=0;exitX=0.119;exitY=0.993;exitDx=0;exitDy=0;exitPerimeter=0;" edge="1" parent="Xm_AiRq3xBXqMQoTUS5R-32" source="Xm_AiRq3xBXqMQoTUS5R-33" target="Xm_AiRq3xBXqMQoTUS5R-33">
          <mxGeometry width="50" height="50" relative="1" as="geometry">
            <mxPoint x="140" y="80" as="sourcePoint" />
            <mxPoint x="190" y="30" as="targetPoint" />
          </mxGeometry>
        </mxCell>
        <mxCell id="Xm_AiRq3xBXqMQoTUS5R-36" value="" style="group" vertex="1" connectable="0" parent="Xm_AiRq3xBXqMQoTUS5R-985">
          <mxGeometry y="340" width="250" height="40" as="geometry" />
        </mxCell>
        <mxCell id="Xm_AiRq3xBXqMQoTUS5R-37" value="" style="rounded=0;whiteSpace=wrap;html=1;fillColor=none;" vertex="1" parent="Xm_AiRq3xBXqMQoTUS5R-36">
          <mxGeometry width="250" height="40" as="geometry" />
        </mxCell>
        <mxCell id="Xm_AiRq3xBXqMQoTUS5R-38" value="experienceLevel String" style="shape=partialRectangle;overflow=hidden;connectable=0;fillColor=none;top=0;left=0;bottom=0;right=0;align=left;spacingLeft=6;" vertex="1" parent="Xm_AiRq3xBXqMQoTUS5R-36">
          <mxGeometry x="30" width="220" height="40" as="geometry">
            <mxRectangle width="220" height="40" as="alternateBounds" />
          </mxGeometry>
        </mxCell>
        <mxCell id="Xm_AiRq3xBXqMQoTUS5R-39" value="" style="endArrow=none;html=1;rounded=0;entryX=0.119;entryY=0.002;entryDx=0;entryDy=0;entryPerimeter=0;exitX=0.119;exitY=0.993;exitDx=0;exitDy=0;exitPerimeter=0;" edge="1" parent="Xm_AiRq3xBXqMQoTUS5R-36" source="Xm_AiRq3xBXqMQoTUS5R-37" target="Xm_AiRq3xBXqMQoTUS5R-37">
          <mxGeometry width="50" height="50" relative="1" as="geometry">
            <mxPoint x="140" y="80" as="sourcePoint" />
            <mxPoint x="190" y="30" as="targetPoint" />
          </mxGeometry>
        </mxCell>
        <mxCell id="Xm_AiRq3xBXqMQoTUS5R-40" value="" style="group" vertex="1" connectable="0" parent="Xm_AiRq3xBXqMQoTUS5R-985">
          <mxGeometry y="380" width="250" height="40" as="geometry" />
        </mxCell>
        <mxCell id="Xm_AiRq3xBXqMQoTUS5R-41" value="" style="rounded=0;whiteSpace=wrap;html=1;fillColor=none;" vertex="1" parent="Xm_AiRq3xBXqMQoTUS5R-40">
          <mxGeometry width="250" height="40" as="geometry" />
        </mxCell>
        <mxCell id="Xm_AiRq3xBXqMQoTUS5R-42" value="createdAt DateTime" style="shape=partialRectangle;overflow=hidden;connectable=0;fillColor=none;top=0;left=0;bottom=0;right=0;align=left;spacingLeft=6;" vertex="1" parent="Xm_AiRq3xBXqMQoTUS5R-40">
          <mxGeometry x="30" width="220" height="40" as="geometry">
            <mxRectangle width="220" height="40" as="alternateBounds" />
          </mxGeometry>
        </mxCell>
        <mxCell id="Xm_AiRq3xBXqMQoTUS5R-43" value="" style="endArrow=none;html=1;rounded=0;entryX=0.119;entryY=0.002;entryDx=0;entryDy=0;entryPerimeter=0;exitX=0.119;exitY=0.993;exitDx=0;exitDy=0;exitPerimeter=0;" edge="1" parent="Xm_AiRq3xBXqMQoTUS5R-40" source="Xm_AiRq3xBXqMQoTUS5R-41" target="Xm_AiRq3xBXqMQoTUS5R-41">
          <mxGeometry width="50" height="50" relative="1" as="geometry">
            <mxPoint x="140" y="80" as="sourcePoint" />
            <mxPoint x="190" y="30" as="targetPoint" />
          </mxGeometry>
        </mxCell>
        <mxCell id="Xm_AiRq3xBXqMQoTUS5R-44" value="" style="group" vertex="1" connectable="0" parent="Xm_AiRq3xBXqMQoTUS5R-985">
          <mxGeometry y="420" width="250" height="40" as="geometry" />
        </mxCell>
        <mxCell id="Xm_AiRq3xBXqMQoTUS5R-45" value="" style="rounded=0;whiteSpace=wrap;html=1;fillColor=none;" vertex="1" parent="Xm_AiRq3xBXqMQoTUS5R-44">
          <mxGeometry width="250" height="40" as="geometry" />
        </mxCell>
        <mxCell id="Xm_AiRq3xBXqMQoTUS5R-46" value="updatedAt DateTime" style="shape=partialRectangle;overflow=hidden;connectable=0;fillColor=none;top=0;left=0;bottom=0;right=0;align=left;spacingLeft=6;" vertex="1" parent="Xm_AiRq3xBXqMQoTUS5R-44">
          <mxGeometry x="30" width="220" height="40" as="geometry">
            <mxRectangle width="220" height="40" as="alternateBounds" />
          </mxGeometry>
        </mxCell>
        <mxCell id="Xm_AiRq3xBXqMQoTUS5R-47" value="" style="endArrow=none;html=1;rounded=0;entryX=0.119;entryY=0.002;entryDx=0;entryDy=0;entryPerimeter=0;exitX=0.119;exitY=0.993;exitDx=0;exitDy=0;exitPerimeter=0;" edge="1" parent="Xm_AiRq3xBXqMQoTUS5R-44" source="Xm_AiRq3xBXqMQoTUS5R-45" target="Xm_AiRq3xBXqMQoTUS5R-45">
          <mxGeometry width="50" height="50" relative="1" as="geometry">
            <mxPoint x="140" y="80" as="sourcePoint" />
            <mxPoint x="190" y="30" as="targetPoint" />
          </mxGeometry>
        </mxCell>
        <mxCell id="Xm_AiRq3xBXqMQoTUS5R-48" value="" style="group" vertex="1" connectable="0" parent="Xm_AiRq3xBXqMQoTUS5R-985">
          <mxGeometry y="460" width="250" height="40" as="geometry" />
        </mxCell>
        <mxCell id="Xm_AiRq3xBXqMQoTUS5R-49" value="" style="rounded=0;whiteSpace=wrap;html=1;fillColor=none;" vertex="1" parent="Xm_AiRq3xBXqMQoTUS5R-48">
          <mxGeometry width="250" height="40" as="geometry" />
        </mxCell>
        <mxCell id="Xm_AiRq3xBXqMQoTUS5R-50" value="projects Project" style="shape=partialRectangle;overflow=hidden;connectable=0;fillColor=none;top=0;left=0;bottom=0;right=0;align=left;spacingLeft=6;" vertex="1" parent="Xm_AiRq3xBXqMQoTUS5R-48">
          <mxGeometry x="30" width="220" height="40" as="geometry">
            <mxRectangle width="220" height="40" as="alternateBounds" />
          </mxGeometry>
        </mxCell>
        <mxCell id="Xm_AiRq3xBXqMQoTUS5R-51" value="" style="endArrow=none;html=1;rounded=0;entryX=0.119;entryY=0.002;entryDx=0;entryDy=0;entryPerimeter=0;exitX=0.119;exitY=0.993;exitDx=0;exitDy=0;exitPerimeter=0;" edge="1" parent="Xm_AiRq3xBXqMQoTUS5R-48" source="Xm_AiRq3xBXqMQoTUS5R-49" target="Xm_AiRq3xBXqMQoTUS5R-49">
          <mxGeometry width="50" height="50" relative="1" as="geometry">
            <mxPoint x="140" y="80" as="sourcePoint" />
            <mxPoint x="190" y="30" as="targetPoint" />
          </mxGeometry>
        </mxCell>
        <mxCell id="Xm_AiRq3xBXqMQoTUS5R-52" value="" style="group" vertex="1" connectable="0" parent="Xm_AiRq3xBXqMQoTUS5R-985">
          <mxGeometry y="500" width="250" height="40" as="geometry" />
        </mxCell>
        <mxCell id="Xm_AiRq3xBXqMQoTUS5R-53" value="" style="rounded=0;whiteSpace=wrap;html=1;fillColor=none;" vertex="1" parent="Xm_AiRq3xBXqMQoTUS5R-52">
          <mxGeometry width="250" height="40" as="geometry" />
        </mxCell>
        <mxCell id="Xm_AiRq3xBXqMQoTUS5R-54" value="chatbots Chatbot" style="shape=partialRectangle;overflow=hidden;connectable=0;fillColor=none;top=0;left=0;bottom=0;right=0;align=left;spacingLeft=6;" vertex="1" parent="Xm_AiRq3xBXqMQoTUS5R-52">
          <mxGeometry x="30" width="220" height="40" as="geometry">
            <mxRectangle width="220" height="40" as="alternateBounds" />
          </mxGeometry>
        </mxCell>
        <mxCell id="Xm_AiRq3xBXqMQoTUS5R-55" value="" style="endArrow=none;html=1;rounded=0;entryX=0.119;entryY=0.002;entryDx=0;entryDy=0;entryPerimeter=0;exitX=0.119;exitY=0.993;exitDx=0;exitDy=0;exitPerimeter=0;" edge="1" parent="Xm_AiRq3xBXqMQoTUS5R-52" source="Xm_AiRq3xBXqMQoTUS5R-53" target="Xm_AiRq3xBXqMQoTUS5R-53">
          <mxGeometry width="50" height="50" relative="1" as="geometry">
            <mxPoint x="140" y="80" as="sourcePoint" />
            <mxPoint x="190" y="30" as="targetPoint" />
          </mxGeometry>
        </mxCell>
        <mxCell id="Xm_AiRq3xBXqMQoTUS5R-56" value="" style="group" vertex="1" connectable="0" parent="Xm_AiRq3xBXqMQoTUS5R-985">
          <mxGeometry y="540" width="250" height="40" as="geometry" />
        </mxCell>
        <mxCell id="Xm_AiRq3xBXqMQoTUS5R-57" value="" style="rounded=0;whiteSpace=wrap;html=1;fillColor=none;" vertex="1" parent="Xm_AiRq3xBXqMQoTUS5R-56">
          <mxGeometry width="250" height="40" as="geometry" />
        </mxCell>
        <mxCell id="Xm_AiRq3xBXqMQoTUS5R-58" value="accounts Account" style="shape=partialRectangle;overflow=hidden;connectable=0;fillColor=none;top=0;left=0;bottom=0;right=0;align=left;spacingLeft=6;" vertex="1" parent="Xm_AiRq3xBXqMQoTUS5R-56">
          <mxGeometry x="30" width="220" height="40" as="geometry">
            <mxRectangle width="220" height="40" as="alternateBounds" />
          </mxGeometry>
        </mxCell>
        <mxCell id="Xm_AiRq3xBXqMQoTUS5R-59" value="" style="endArrow=none;html=1;rounded=0;entryX=0.119;entryY=0.002;entryDx=0;entryDy=0;entryPerimeter=0;exitX=0.119;exitY=0.993;exitDx=0;exitDy=0;exitPerimeter=0;" edge="1" parent="Xm_AiRq3xBXqMQoTUS5R-56" source="Xm_AiRq3xBXqMQoTUS5R-57" target="Xm_AiRq3xBXqMQoTUS5R-57">
          <mxGeometry width="50" height="50" relative="1" as="geometry">
            <mxPoint x="140" y="80" as="sourcePoint" />
            <mxPoint x="190" y="30" as="targetPoint" />
          </mxGeometry>
        </mxCell>
        <mxCell id="Xm_AiRq3xBXqMQoTUS5R-60" value="" style="group" vertex="1" connectable="0" parent="Xm_AiRq3xBXqMQoTUS5R-985">
          <mxGeometry y="580" width="250" height="40" as="geometry" />
        </mxCell>
        <mxCell id="Xm_AiRq3xBXqMQoTUS5R-61" value="" style="rounded=0;whiteSpace=wrap;html=1;fillColor=none;" vertex="1" parent="Xm_AiRq3xBXqMQoTUS5R-60">
          <mxGeometry width="250" height="40" as="geometry" />
        </mxCell>
        <mxCell id="Xm_AiRq3xBXqMQoTUS5R-62" value="sessions Session" style="shape=partialRectangle;overflow=hidden;connectable=0;fillColor=none;top=0;left=0;bottom=0;right=0;align=left;spacingLeft=6;" vertex="1" parent="Xm_AiRq3xBXqMQoTUS5R-60">
          <mxGeometry x="30" width="220" height="40" as="geometry">
            <mxRectangle width="220" height="40" as="alternateBounds" />
          </mxGeometry>
        </mxCell>
        <mxCell id="Xm_AiRq3xBXqMQoTUS5R-63" value="" style="endArrow=none;html=1;rounded=0;entryX=0.119;entryY=0.002;entryDx=0;entryDy=0;entryPerimeter=0;exitX=0.119;exitY=0.993;exitDx=0;exitDy=0;exitPerimeter=0;" edge="1" parent="Xm_AiRq3xBXqMQoTUS5R-60" source="Xm_AiRq3xBXqMQoTUS5R-61" target="Xm_AiRq3xBXqMQoTUS5R-61">
          <mxGeometry width="50" height="50" relative="1" as="geometry">
            <mxPoint x="140" y="80" as="sourcePoint" />
            <mxPoint x="190" y="30" as="targetPoint" />
          </mxGeometry>
        </mxCell>
        <mxCell id="Xm_AiRq3xBXqMQoTUS5R-64" value="" style="group" vertex="1" connectable="0" parent="Xm_AiRq3xBXqMQoTUS5R-985">
          <mxGeometry y="620" width="250" height="40" as="geometry" />
        </mxCell>
        <mxCell id="Xm_AiRq3xBXqMQoTUS5R-65" value="" style="rounded=0;whiteSpace=wrap;html=1;fillColor=none;" vertex="1" parent="Xm_AiRq3xBXqMQoTUS5R-64">
          <mxGeometry width="250" height="40" as="geometry" />
        </mxCell>
        <mxCell id="Xm_AiRq3xBXqMQoTUS5R-66" value="teams TeamMember" style="shape=partialRectangle;overflow=hidden;connectable=0;fillColor=none;top=0;left=0;bottom=0;right=0;align=left;spacingLeft=6;" vertex="1" parent="Xm_AiRq3xBXqMQoTUS5R-64">
          <mxGeometry x="30" width="220" height="40" as="geometry">
            <mxRectangle width="220" height="40" as="alternateBounds" />
          </mxGeometry>
        </mxCell>
        <mxCell id="Xm_AiRq3xBXqMQoTUS5R-67" value="" style="endArrow=none;html=1;rounded=0;entryX=0.119;entryY=0.002;entryDx=0;entryDy=0;entryPerimeter=0;exitX=0.119;exitY=0.993;exitDx=0;exitDy=0;exitPerimeter=0;" edge="1" parent="Xm_AiRq3xBXqMQoTUS5R-64" source="Xm_AiRq3xBXqMQoTUS5R-65" target="Xm_AiRq3xBXqMQoTUS5R-65">
          <mxGeometry width="50" height="50" relative="1" as="geometry">
            <mxPoint x="140" y="80" as="sourcePoint" />
            <mxPoint x="190" y="30" as="targetPoint" />
          </mxGeometry>
        </mxCell>
        <mxCell id="Xm_AiRq3xBXqMQoTUS5R-270" value="User" style="shape=table;startSize=30;container=1;collapsible=1;childLayout=tableLayout;fixedRows=1;rowLines=0;fontStyle=1;align=center;resizeLast=1;" vertex="1" parent="Xm_AiRq3xBXqMQoTUS5R-985">
          <mxGeometry width="250" height="660" as="geometry" />
        </mxCell>
        <mxCell id="Xm_AiRq3xBXqMQoTUS5R-271" value="" style="shape=partialRectangle;collapsible=0;dropTarget=0;pointerEvents=0;fillColor=none;points=[[0,0.5],[1,0.5]];portConstraint=eastwest;top=0;left=0;right=0;bottom=1;" vertex="1" parent="Xm_AiRq3xBXqMQoTUS5R-270">
          <mxGeometry y="30" width="250" height="30" as="geometry" />
        </mxCell>
        <mxCell id="Xm_AiRq3xBXqMQoTUS5R-272" value="PK" style="shape=partialRectangle;overflow=hidden;connectable=0;fillColor=none;top=0;left=0;bottom=0;right=0;fontStyle=1;" vertex="1" parent="Xm_AiRq3xBXqMQoTUS5R-271">
          <mxGeometry width="30" height="30" as="geometry">
            <mxRectangle width="30" height="30" as="alternateBounds" />
          </mxGeometry>
        </mxCell>
        <mxCell id="Xm_AiRq3xBXqMQoTUS5R-273" value="id String" style="shape=partialRectangle;overflow=hidden;connectable=0;fillColor=none;top=0;left=0;bottom=0;right=0;align=left;spacingLeft=6;fontStyle=1;" vertex="1" parent="Xm_AiRq3xBXqMQoTUS5R-271">
          <mxGeometry x="30" width="220" height="30" as="geometry">
            <mxRectangle width="220" height="30" as="alternateBounds" />
          </mxGeometry>
        </mxCell>
        <mxCell id="Xm_AiRq3xBXqMQoTUS5R-274" value="" style="shape=partialRectangle;collapsible=0;dropTarget=0;pointerEvents=0;fillColor=none;points=[[0,0.5],[1,0.5]];portConstraint=eastwest;top=0;left=0;right=0;bottom=0;" vertex="1" parent="Xm_AiRq3xBXqMQoTUS5R-270">
          <mxGeometry y="60" width="250" height="40" as="geometry" />
        </mxCell>
        <mxCell id="Xm_AiRq3xBXqMQoTUS5R-275" value="" style="shape=partialRectangle;overflow=hidden;connectable=0;fillColor=none;top=0;left=0;bottom=0;right=0;" vertex="1" parent="Xm_AiRq3xBXqMQoTUS5R-274">
          <mxGeometry width="30" height="40" as="geometry">
            <mxRectangle width="30" height="40" as="alternateBounds" />
          </mxGeometry>
        </mxCell>
        <mxCell id="Xm_AiRq3xBXqMQoTUS5R-276" value="email String" style="shape=partialRectangle;overflow=hidden;connectable=0;fillColor=none;top=0;left=0;bottom=0;right=0;align=left;spacingLeft=6;" vertex="1" parent="Xm_AiRq3xBXqMQoTUS5R-274">
          <mxGeometry x="30" width="220" height="40" as="geometry">
            <mxRectangle width="220" height="40" as="alternateBounds" />
          </mxGeometry>
        </mxCell>
        <mxCell id="Xm_AiRq3xBXqMQoTUS5R-986" value="" style="group" vertex="1" connectable="0" parent="1">
          <mxGeometry x="670" y="560" width="250" height="460" as="geometry" />
        </mxCell>
        <mxCell id="Xm_AiRq3xBXqMQoTUS5R-420" value="" style="group" vertex="1" connectable="0" parent="Xm_AiRq3xBXqMQoTUS5R-986">
          <mxGeometry y="60" width="250" height="40" as="geometry" />
        </mxCell>
        <mxCell id="Xm_AiRq3xBXqMQoTUS5R-421" value="" style="rounded=0;whiteSpace=wrap;html=1;fillColor=none;" vertex="1" parent="Xm_AiRq3xBXqMQoTUS5R-420">
          <mxGeometry width="250" height="40" as="geometry" />
        </mxCell>
        <mxCell id="Xm_AiRq3xBXqMQoTUS5R-422" value="" style="endArrow=none;html=1;rounded=0;entryX=0.119;entryY=0.002;entryDx=0;entryDy=0;entryPerimeter=0;exitX=0.119;exitY=0.993;exitDx=0;exitDy=0;exitPerimeter=0;" edge="1" parent="Xm_AiRq3xBXqMQoTUS5R-420" source="Xm_AiRq3xBXqMQoTUS5R-421" target="Xm_AiRq3xBXqMQoTUS5R-421">
          <mxGeometry width="50" height="50" relative="1" as="geometry">
            <mxPoint x="140" y="80" as="sourcePoint" />
            <mxPoint x="190" y="30" as="targetPoint" />
          </mxGeometry>
        </mxCell>
        <mxCell id="Xm_AiRq3xBXqMQoTUS5R-423" value="Project" style="shape=table;startSize=30;container=1;collapsible=1;childLayout=tableLayout;fixedRows=1;rowLines=0;fontStyle=1;align=center;resizeLast=1;" vertex="1" parent="Xm_AiRq3xBXqMQoTUS5R-986">
          <mxGeometry width="250" height="460" as="geometry" />
        </mxCell>
        <mxCell id="Xm_AiRq3xBXqMQoTUS5R-424" value="" style="shape=partialRectangle;collapsible=0;dropTarget=0;pointerEvents=0;fillColor=none;points=[[0,0.5],[1,0.5]];portConstraint=eastwest;top=0;left=0;right=0;bottom=1;" vertex="1" parent="Xm_AiRq3xBXqMQoTUS5R-423">
          <mxGeometry y="30" width="250" height="30" as="geometry" />
        </mxCell>
        <mxCell id="Xm_AiRq3xBXqMQoTUS5R-425" value="PK" style="shape=partialRectangle;overflow=hidden;connectable=0;fillColor=none;top=0;left=0;bottom=0;right=0;fontStyle=1;" vertex="1" parent="Xm_AiRq3xBXqMQoTUS5R-424">
          <mxGeometry width="30" height="30" as="geometry">
            <mxRectangle width="30" height="30" as="alternateBounds" />
          </mxGeometry>
        </mxCell>
        <mxCell id="Xm_AiRq3xBXqMQoTUS5R-426" value="id String" style="shape=partialRectangle;overflow=hidden;connectable=0;fillColor=none;top=0;left=0;bottom=0;right=0;align=left;spacingLeft=6;fontStyle=1;" vertex="1" parent="Xm_AiRq3xBXqMQoTUS5R-424">
          <mxGeometry x="30" width="220" height="30" as="geometry">
            <mxRectangle width="220" height="30" as="alternateBounds" />
          </mxGeometry>
        </mxCell>
        <mxCell id="Xm_AiRq3xBXqMQoTUS5R-427" value="" style="shape=partialRectangle;collapsible=0;dropTarget=0;pointerEvents=0;fillColor=none;points=[[0,0.5],[1,0.5]];portConstraint=eastwest;top=0;left=0;right=0;bottom=0;" vertex="1" parent="Xm_AiRq3xBXqMQoTUS5R-423">
          <mxGeometry y="60" width="250" height="40" as="geometry" />
        </mxCell>
        <mxCell id="Xm_AiRq3xBXqMQoTUS5R-428" value="" style="shape=partialRectangle;overflow=hidden;connectable=0;fillColor=none;top=0;left=0;bottom=0;right=0;" vertex="1" parent="Xm_AiRq3xBXqMQoTUS5R-427">
          <mxGeometry width="30" height="40" as="geometry">
            <mxRectangle width="30" height="40" as="alternateBounds" />
          </mxGeometry>
        </mxCell>
        <mxCell id="Xm_AiRq3xBXqMQoTUS5R-429" value="name String" style="shape=partialRectangle;overflow=hidden;connectable=0;fillColor=none;top=0;left=0;bottom=0;right=0;align=left;spacingLeft=6;" vertex="1" parent="Xm_AiRq3xBXqMQoTUS5R-427">
          <mxGeometry x="30" width="220" height="40" as="geometry">
            <mxRectangle width="220" height="40" as="alternateBounds" />
          </mxGeometry>
        </mxCell>
        <mxCell id="Xm_AiRq3xBXqMQoTUS5R-430" value="" style="group" vertex="1" connectable="0" parent="Xm_AiRq3xBXqMQoTUS5R-986">
          <mxGeometry y="100" width="250" height="40" as="geometry" />
        </mxCell>
        <mxCell id="Xm_AiRq3xBXqMQoTUS5R-431" value="" style="group" vertex="1" connectable="0" parent="Xm_AiRq3xBXqMQoTUS5R-430">
          <mxGeometry width="250" height="40" as="geometry" />
        </mxCell>
        <mxCell id="Xm_AiRq3xBXqMQoTUS5R-432" value="" style="rounded=0;whiteSpace=wrap;html=1;fillColor=none;" vertex="1" parent="Xm_AiRq3xBXqMQoTUS5R-431">
          <mxGeometry width="250" height="40" as="geometry" />
        </mxCell>
        <mxCell id="Xm_AiRq3xBXqMQoTUS5R-433" value="description String" style="shape=partialRectangle;overflow=hidden;connectable=0;fillColor=none;top=0;left=0;bottom=0;right=0;align=left;spacingLeft=6;" vertex="1" parent="Xm_AiRq3xBXqMQoTUS5R-431">
          <mxGeometry x="30" width="220" height="40" as="geometry">
            <mxRectangle width="220" height="40" as="alternateBounds" />
          </mxGeometry>
        </mxCell>
        <mxCell id="Xm_AiRq3xBXqMQoTUS5R-434" value="" style="endArrow=none;html=1;rounded=0;entryX=0.119;entryY=0.002;entryDx=0;entryDy=0;entryPerimeter=0;exitX=0.119;exitY=0.993;exitDx=0;exitDy=0;exitPerimeter=0;" edge="1" parent="Xm_AiRq3xBXqMQoTUS5R-431" source="Xm_AiRq3xBXqMQoTUS5R-432" target="Xm_AiRq3xBXqMQoTUS5R-432">
          <mxGeometry width="50" height="50" relative="1" as="geometry">
            <mxPoint x="140" y="80" as="sourcePoint" />
            <mxPoint x="190" y="30" as="targetPoint" />
          </mxGeometry>
        </mxCell>
        <mxCell id="Xm_AiRq3xBXqMQoTUS5R-435" value="" style="group" vertex="1" connectable="0" parent="Xm_AiRq3xBXqMQoTUS5R-986">
          <mxGeometry y="140" width="250" height="40" as="geometry" />
        </mxCell>
        <mxCell id="Xm_AiRq3xBXqMQoTUS5R-436" value="" style="group" vertex="1" connectable="0" parent="Xm_AiRq3xBXqMQoTUS5R-435">
          <mxGeometry width="250" height="40" as="geometry" />
        </mxCell>
        <mxCell id="Xm_AiRq3xBXqMQoTUS5R-437" value="" style="rounded=0;whiteSpace=wrap;html=1;fillColor=none;" vertex="1" parent="Xm_AiRq3xBXqMQoTUS5R-436">
          <mxGeometry width="250" height="40" as="geometry" />
        </mxCell>
        <mxCell id="Xm_AiRq3xBXqMQoTUS5R-438" value="createdAt DateTime" style="shape=partialRectangle;overflow=hidden;connectable=0;fillColor=none;top=0;left=0;bottom=0;right=0;align=left;spacingLeft=6;" vertex="1" parent="Xm_AiRq3xBXqMQoTUS5R-436">
          <mxGeometry x="30" width="220" height="40" as="geometry">
            <mxRectangle width="220" height="40" as="alternateBounds" />
          </mxGeometry>
        </mxCell>
        <mxCell id="Xm_AiRq3xBXqMQoTUS5R-439" value="" style="endArrow=none;html=1;rounded=0;entryX=0.119;entryY=0.002;entryDx=0;entryDy=0;entryPerimeter=0;exitX=0.119;exitY=0.993;exitDx=0;exitDy=0;exitPerimeter=0;" edge="1" parent="Xm_AiRq3xBXqMQoTUS5R-436" source="Xm_AiRq3xBXqMQoTUS5R-437" target="Xm_AiRq3xBXqMQoTUS5R-437">
          <mxGeometry width="50" height="50" relative="1" as="geometry">
            <mxPoint x="140" y="80" as="sourcePoint" />
            <mxPoint x="190" y="30" as="targetPoint" />
          </mxGeometry>
        </mxCell>
        <mxCell id="Xm_AiRq3xBXqMQoTUS5R-440" value="" style="group" vertex="1" connectable="0" parent="Xm_AiRq3xBXqMQoTUS5R-986">
          <mxGeometry y="180" width="250" height="40" as="geometry" />
        </mxCell>
        <mxCell id="Xm_AiRq3xBXqMQoTUS5R-441" value="" style="group" vertex="1" connectable="0" parent="Xm_AiRq3xBXqMQoTUS5R-440">
          <mxGeometry width="250" height="40" as="geometry" />
        </mxCell>
        <mxCell id="Xm_AiRq3xBXqMQoTUS5R-442" value="" style="rounded=0;whiteSpace=wrap;html=1;fillColor=none;" vertex="1" parent="Xm_AiRq3xBXqMQoTUS5R-441">
          <mxGeometry width="250" height="40" as="geometry" />
        </mxCell>
        <mxCell id="Xm_AiRq3xBXqMQoTUS5R-443" value="updatedAt DateTime" style="shape=partialRectangle;overflow=hidden;connectable=0;fillColor=none;top=0;left=0;bottom=0;right=0;align=left;spacingLeft=6;" vertex="1" parent="Xm_AiRq3xBXqMQoTUS5R-441">
          <mxGeometry x="30" width="220" height="40" as="geometry">
            <mxRectangle width="220" height="40" as="alternateBounds" />
          </mxGeometry>
        </mxCell>
        <mxCell id="Xm_AiRq3xBXqMQoTUS5R-444" value="" style="endArrow=none;html=1;rounded=0;entryX=0.119;entryY=0.002;entryDx=0;entryDy=0;entryPerimeter=0;exitX=0.119;exitY=0.993;exitDx=0;exitDy=0;exitPerimeter=0;" edge="1" parent="Xm_AiRq3xBXqMQoTUS5R-441" source="Xm_AiRq3xBXqMQoTUS5R-442" target="Xm_AiRq3xBXqMQoTUS5R-442">
          <mxGeometry width="50" height="50" relative="1" as="geometry">
            <mxPoint x="140" y="80" as="sourcePoint" />
            <mxPoint x="190" y="30" as="targetPoint" />
          </mxGeometry>
        </mxCell>
        <mxCell id="Xm_AiRq3xBXqMQoTUS5R-445" value="" style="group" vertex="1" connectable="0" parent="Xm_AiRq3xBXqMQoTUS5R-986">
          <mxGeometry y="220" width="250" height="40" as="geometry" />
        </mxCell>
        <mxCell id="Xm_AiRq3xBXqMQoTUS5R-446" value="" style="group" vertex="1" connectable="0" parent="Xm_AiRq3xBXqMQoTUS5R-445">
          <mxGeometry width="250" height="40" as="geometry" />
        </mxCell>
        <mxCell id="Xm_AiRq3xBXqMQoTUS5R-447" value="" style="rounded=0;whiteSpace=wrap;html=1;fillColor=none;" vertex="1" parent="Xm_AiRq3xBXqMQoTUS5R-446">
          <mxGeometry width="250" height="40" as="geometry" />
        </mxCell>
        <mxCell id="Xm_AiRq3xBXqMQoTUS5R-448" value="user User" style="shape=partialRectangle;overflow=hidden;connectable=0;fillColor=none;top=0;left=0;bottom=0;right=0;align=left;spacingLeft=6;" vertex="1" parent="Xm_AiRq3xBXqMQoTUS5R-446">
          <mxGeometry x="30" width="220" height="40" as="geometry">
            <mxRectangle width="220" height="40" as="alternateBounds" />
          </mxGeometry>
        </mxCell>
        <mxCell id="Xm_AiRq3xBXqMQoTUS5R-449" value="" style="endArrow=none;html=1;rounded=0;entryX=0.119;entryY=0.002;entryDx=0;entryDy=0;entryPerimeter=0;exitX=0.119;exitY=0.993;exitDx=0;exitDy=0;exitPerimeter=0;" edge="1" parent="Xm_AiRq3xBXqMQoTUS5R-446" source="Xm_AiRq3xBXqMQoTUS5R-447" target="Xm_AiRq3xBXqMQoTUS5R-447">
          <mxGeometry width="50" height="50" relative="1" as="geometry">
            <mxPoint x="140" y="80" as="sourcePoint" />
            <mxPoint x="190" y="30" as="targetPoint" />
          </mxGeometry>
        </mxCell>
        <mxCell id="Xm_AiRq3xBXqMQoTUS5R-450" value="" style="group" vertex="1" connectable="0" parent="Xm_AiRq3xBXqMQoTUS5R-986">
          <mxGeometry y="260" width="250" height="40" as="geometry" />
        </mxCell>
        <mxCell id="Xm_AiRq3xBXqMQoTUS5R-451" value="" style="group" vertex="1" connectable="0" parent="Xm_AiRq3xBXqMQoTUS5R-450">
          <mxGeometry width="250" height="40" as="geometry" />
        </mxCell>
        <mxCell id="Xm_AiRq3xBXqMQoTUS5R-452" value="" style="rounded=0;whiteSpace=wrap;html=1;fillColor=none;" vertex="1" parent="Xm_AiRq3xBXqMQoTUS5R-451">
          <mxGeometry width="250" height="40" as="geometry" />
        </mxCell>
        <mxCell id="Xm_AiRq3xBXqMQoTUS5R-453" value="userId String" style="shape=partialRectangle;overflow=hidden;connectable=0;fillColor=none;top=0;left=0;bottom=0;right=0;align=left;spacingLeft=6;" vertex="1" parent="Xm_AiRq3xBXqMQoTUS5R-451">
          <mxGeometry x="30" width="220" height="40" as="geometry">
            <mxRectangle width="220" height="40" as="alternateBounds" />
          </mxGeometry>
        </mxCell>
        <mxCell id="Xm_AiRq3xBXqMQoTUS5R-454" value="" style="endArrow=none;html=1;rounded=0;entryX=0.119;entryY=0.002;entryDx=0;entryDy=0;entryPerimeter=0;exitX=0.119;exitY=0.993;exitDx=0;exitDy=0;exitPerimeter=0;" edge="1" parent="Xm_AiRq3xBXqMQoTUS5R-451" source="Xm_AiRq3xBXqMQoTUS5R-452" target="Xm_AiRq3xBXqMQoTUS5R-452">
          <mxGeometry width="50" height="50" relative="1" as="geometry">
            <mxPoint x="140" y="80" as="sourcePoint" />
            <mxPoint x="190" y="30" as="targetPoint" />
          </mxGeometry>
        </mxCell>
        <mxCell id="Xm_AiRq3xBXqMQoTUS5R-455" value="" style="group" vertex="1" connectable="0" parent="Xm_AiRq3xBXqMQoTUS5R-986">
          <mxGeometry y="300" width="250" height="40" as="geometry" />
        </mxCell>
        <mxCell id="Xm_AiRq3xBXqMQoTUS5R-456" value="" style="group" vertex="1" connectable="0" parent="Xm_AiRq3xBXqMQoTUS5R-455">
          <mxGeometry width="250" height="40" as="geometry" />
        </mxCell>
        <mxCell id="Xm_AiRq3xBXqMQoTUS5R-457" value="" style="rounded=0;whiteSpace=wrap;html=1;fillColor=none;" vertex="1" parent="Xm_AiRq3xBXqMQoTUS5R-456">
          <mxGeometry width="250" height="40" as="geometry" />
        </mxCell>
        <mxCell id="Xm_AiRq3xBXqMQoTUS5R-458" value="team Team" style="shape=partialRectangle;overflow=hidden;connectable=0;fillColor=none;top=0;left=0;bottom=0;right=0;align=left;spacingLeft=6;" vertex="1" parent="Xm_AiRq3xBXqMQoTUS5R-456">
          <mxGeometry x="30" width="220" height="40" as="geometry">
            <mxRectangle width="220" height="40" as="alternateBounds" />
          </mxGeometry>
        </mxCell>
        <mxCell id="Xm_AiRq3xBXqMQoTUS5R-459" value="" style="endArrow=none;html=1;rounded=0;entryX=0.119;entryY=0.002;entryDx=0;entryDy=0;entryPerimeter=0;exitX=0.119;exitY=0.993;exitDx=0;exitDy=0;exitPerimeter=0;" edge="1" parent="Xm_AiRq3xBXqMQoTUS5R-456" source="Xm_AiRq3xBXqMQoTUS5R-457" target="Xm_AiRq3xBXqMQoTUS5R-457">
          <mxGeometry width="50" height="50" relative="1" as="geometry">
            <mxPoint x="140" y="80" as="sourcePoint" />
            <mxPoint x="190" y="30" as="targetPoint" />
          </mxGeometry>
        </mxCell>
        <mxCell id="Xm_AiRq3xBXqMQoTUS5R-996" value="FK" style="shape=partialRectangle;overflow=hidden;connectable=0;fillColor=none;top=0;left=0;bottom=0;right=0;" vertex="1" parent="Xm_AiRq3xBXqMQoTUS5R-456">
          <mxGeometry y="-40" width="30" height="40" as="geometry">
            <mxRectangle width="30" height="40" as="alternateBounds" />
          </mxGeometry>
        </mxCell>
        <mxCell id="Xm_AiRq3xBXqMQoTUS5R-460" value="" style="group" vertex="1" connectable="0" parent="Xm_AiRq3xBXqMQoTUS5R-986">
          <mxGeometry y="340" width="250" height="40" as="geometry" />
        </mxCell>
        <mxCell id="Xm_AiRq3xBXqMQoTUS5R-461" value="" style="group" vertex="1" connectable="0" parent="Xm_AiRq3xBXqMQoTUS5R-460">
          <mxGeometry width="250" height="40" as="geometry" />
        </mxCell>
        <mxCell id="Xm_AiRq3xBXqMQoTUS5R-462" value="" style="rounded=0;whiteSpace=wrap;html=1;fillColor=none;" vertex="1" parent="Xm_AiRq3xBXqMQoTUS5R-461">
          <mxGeometry width="250" height="40" as="geometry" />
        </mxCell>
        <mxCell id="Xm_AiRq3xBXqMQoTUS5R-463" value="teamId String" style="shape=partialRectangle;overflow=hidden;connectable=0;fillColor=none;top=0;left=0;bottom=0;right=0;align=left;spacingLeft=6;" vertex="1" parent="Xm_AiRq3xBXqMQoTUS5R-461">
          <mxGeometry x="30" width="220" height="40" as="geometry">
            <mxRectangle width="220" height="40" as="alternateBounds" />
          </mxGeometry>
        </mxCell>
        <mxCell id="Xm_AiRq3xBXqMQoTUS5R-464" value="" style="endArrow=none;html=1;rounded=0;entryX=0.119;entryY=0.002;entryDx=0;entryDy=0;entryPerimeter=0;exitX=0.119;exitY=0.993;exitDx=0;exitDy=0;exitPerimeter=0;" edge="1" parent="Xm_AiRq3xBXqMQoTUS5R-461" source="Xm_AiRq3xBXqMQoTUS5R-462" target="Xm_AiRq3xBXqMQoTUS5R-462">
          <mxGeometry width="50" height="50" relative="1" as="geometry">
            <mxPoint x="140" y="80" as="sourcePoint" />
            <mxPoint x="190" y="30" as="targetPoint" />
          </mxGeometry>
        </mxCell>
        <mxCell id="Xm_AiRq3xBXqMQoTUS5R-465" value="" style="group" vertex="1" connectable="0" parent="Xm_AiRq3xBXqMQoTUS5R-986">
          <mxGeometry y="380" width="250" height="40" as="geometry" />
        </mxCell>
        <mxCell id="Xm_AiRq3xBXqMQoTUS5R-466" value="" style="group" vertex="1" connectable="0" parent="Xm_AiRq3xBXqMQoTUS5R-465">
          <mxGeometry width="250" height="40" as="geometry" />
        </mxCell>
        <mxCell id="Xm_AiRq3xBXqMQoTUS5R-467" value="" style="rounded=0;whiteSpace=wrap;html=1;fillColor=none;" vertex="1" parent="Xm_AiRq3xBXqMQoTUS5R-466">
          <mxGeometry width="250" height="40" as="geometry" />
        </mxCell>
        <mxCell id="Xm_AiRq3xBXqMQoTUS5R-468" value="workflows Workflow" style="shape=partialRectangle;overflow=hidden;connectable=0;fillColor=none;top=0;left=0;bottom=0;right=0;align=left;spacingLeft=6;" vertex="1" parent="Xm_AiRq3xBXqMQoTUS5R-466">
          <mxGeometry x="30" width="220" height="40" as="geometry">
            <mxRectangle width="220" height="40" as="alternateBounds" />
          </mxGeometry>
        </mxCell>
        <mxCell id="Xm_AiRq3xBXqMQoTUS5R-469" value="" style="endArrow=none;html=1;rounded=0;entryX=0.119;entryY=0.002;entryDx=0;entryDy=0;entryPerimeter=0;exitX=0.119;exitY=0.993;exitDx=0;exitDy=0;exitPerimeter=0;" edge="1" parent="Xm_AiRq3xBXqMQoTUS5R-466" source="Xm_AiRq3xBXqMQoTUS5R-467" target="Xm_AiRq3xBXqMQoTUS5R-467">
          <mxGeometry width="50" height="50" relative="1" as="geometry">
            <mxPoint x="140" y="80" as="sourcePoint" />
            <mxPoint x="190" y="30" as="targetPoint" />
          </mxGeometry>
        </mxCell>
        <mxCell id="Xm_AiRq3xBXqMQoTUS5R-997" value="FK" style="shape=partialRectangle;overflow=hidden;connectable=0;fillColor=none;top=0;left=0;bottom=0;right=0;" vertex="1" parent="Xm_AiRq3xBXqMQoTUS5R-466">
          <mxGeometry y="-40" width="30" height="40" as="geometry">
            <mxRectangle width="30" height="40" as="alternateBounds" />
          </mxGeometry>
        </mxCell>
        <mxCell id="Xm_AiRq3xBXqMQoTUS5R-470" value="" style="group" vertex="1" connectable="0" parent="Xm_AiRq3xBXqMQoTUS5R-986">
          <mxGeometry y="420" width="250" height="40" as="geometry" />
        </mxCell>
        <mxCell id="Xm_AiRq3xBXqMQoTUS5R-471" value="" style="group" vertex="1" connectable="0" parent="Xm_AiRq3xBXqMQoTUS5R-470">
          <mxGeometry width="250" height="40" as="geometry" />
        </mxCell>
        <mxCell id="Xm_AiRq3xBXqMQoTUS5R-472" value="" style="rounded=0;whiteSpace=wrap;html=1;fillColor=none;" vertex="1" parent="Xm_AiRq3xBXqMQoTUS5R-471">
          <mxGeometry width="250" height="40" as="geometry" />
        </mxCell>
        <mxCell id="Xm_AiRq3xBXqMQoTUS5R-473" value="reports Report" style="shape=partialRectangle;overflow=hidden;connectable=0;fillColor=none;top=0;left=0;bottom=0;right=0;align=left;spacingLeft=6;" vertex="1" parent="Xm_AiRq3xBXqMQoTUS5R-471">
          <mxGeometry x="30" width="220" height="40" as="geometry">
            <mxRectangle width="220" height="40" as="alternateBounds" />
          </mxGeometry>
        </mxCell>
        <mxCell id="Xm_AiRq3xBXqMQoTUS5R-474" value="" style="endArrow=none;html=1;rounded=0;entryX=0.119;entryY=0.002;entryDx=0;entryDy=0;entryPerimeter=0;exitX=0.119;exitY=0.993;exitDx=0;exitDy=0;exitPerimeter=0;" edge="1" parent="Xm_AiRq3xBXqMQoTUS5R-471" source="Xm_AiRq3xBXqMQoTUS5R-472" target="Xm_AiRq3xBXqMQoTUS5R-472">
          <mxGeometry width="50" height="50" relative="1" as="geometry">
            <mxPoint x="140" y="80" as="sourcePoint" />
            <mxPoint x="190" y="30" as="targetPoint" />
          </mxGeometry>
        </mxCell>
        <mxCell id="Xm_AiRq3xBXqMQoTUS5R-987" value="" style="group" vertex="1" connectable="0" parent="1">
          <mxGeometry x="670" y="1120" width="250" height="420" as="geometry" />
        </mxCell>
        <mxCell id="Xm_AiRq3xBXqMQoTUS5R-482" value="" style="group" vertex="1" connectable="0" parent="Xm_AiRq3xBXqMQoTUS5R-987">
          <mxGeometry y="60" width="250" height="40" as="geometry" />
        </mxCell>
        <mxCell id="Xm_AiRq3xBXqMQoTUS5R-483" value="" style="rounded=0;whiteSpace=wrap;html=1;fillColor=none;" vertex="1" parent="Xm_AiRq3xBXqMQoTUS5R-482">
          <mxGeometry width="250" height="40" as="geometry" />
        </mxCell>
        <mxCell id="Xm_AiRq3xBXqMQoTUS5R-484" value="" style="endArrow=none;html=1;rounded=0;entryX=0.119;entryY=0.002;entryDx=0;entryDy=0;entryPerimeter=0;exitX=0.119;exitY=0.993;exitDx=0;exitDy=0;exitPerimeter=0;" edge="1" parent="Xm_AiRq3xBXqMQoTUS5R-482" source="Xm_AiRq3xBXqMQoTUS5R-483" target="Xm_AiRq3xBXqMQoTUS5R-483">
          <mxGeometry width="50" height="50" relative="1" as="geometry">
            <mxPoint x="140" y="80" as="sourcePoint" />
            <mxPoint x="190" y="30" as="targetPoint" />
          </mxGeometry>
        </mxCell>
        <mxCell id="Xm_AiRq3xBXqMQoTUS5R-485" value="Chatbot" style="shape=table;startSize=30;container=1;collapsible=1;childLayout=tableLayout;fixedRows=1;rowLines=0;fontStyle=1;align=center;resizeLast=1;" vertex="1" parent="Xm_AiRq3xBXqMQoTUS5R-987">
          <mxGeometry width="250" height="420" as="geometry" />
        </mxCell>
        <mxCell id="Xm_AiRq3xBXqMQoTUS5R-486" value="" style="shape=partialRectangle;collapsible=0;dropTarget=0;pointerEvents=0;fillColor=none;points=[[0,0.5],[1,0.5]];portConstraint=eastwest;top=0;left=0;right=0;bottom=1;" vertex="1" parent="Xm_AiRq3xBXqMQoTUS5R-485">
          <mxGeometry y="30" width="250" height="30" as="geometry" />
        </mxCell>
        <mxCell id="Xm_AiRq3xBXqMQoTUS5R-487" value="PK" style="shape=partialRectangle;overflow=hidden;connectable=0;fillColor=none;top=0;left=0;bottom=0;right=0;fontStyle=1;" vertex="1" parent="Xm_AiRq3xBXqMQoTUS5R-486">
          <mxGeometry width="30" height="30" as="geometry">
            <mxRectangle width="30" height="30" as="alternateBounds" />
          </mxGeometry>
        </mxCell>
        <mxCell id="Xm_AiRq3xBXqMQoTUS5R-488" value="id String" style="shape=partialRectangle;overflow=hidden;connectable=0;fillColor=none;top=0;left=0;bottom=0;right=0;align=left;spacingLeft=6;fontStyle=1;" vertex="1" parent="Xm_AiRq3xBXqMQoTUS5R-486">
          <mxGeometry x="30" width="220" height="30" as="geometry">
            <mxRectangle width="220" height="30" as="alternateBounds" />
          </mxGeometry>
        </mxCell>
        <mxCell id="Xm_AiRq3xBXqMQoTUS5R-489" value="" style="shape=partialRectangle;collapsible=0;dropTarget=0;pointerEvents=0;fillColor=none;points=[[0,0.5],[1,0.5]];portConstraint=eastwest;top=0;left=0;right=0;bottom=0;" vertex="1" parent="Xm_AiRq3xBXqMQoTUS5R-485">
          <mxGeometry y="60" width="250" height="40" as="geometry" />
        </mxCell>
        <mxCell id="Xm_AiRq3xBXqMQoTUS5R-490" value="" style="shape=partialRectangle;overflow=hidden;connectable=0;fillColor=none;top=0;left=0;bottom=0;right=0;" vertex="1" parent="Xm_AiRq3xBXqMQoTUS5R-489">
          <mxGeometry width="30" height="40" as="geometry">
            <mxRectangle width="30" height="40" as="alternateBounds" />
          </mxGeometry>
        </mxCell>
        <mxCell id="Xm_AiRq3xBXqMQoTUS5R-491" value="name String" style="shape=partialRectangle;overflow=hidden;connectable=0;fillColor=none;top=0;left=0;bottom=0;right=0;align=left;spacingLeft=6;" vertex="1" parent="Xm_AiRq3xBXqMQoTUS5R-489">
          <mxGeometry x="30" width="220" height="40" as="geometry">
            <mxRectangle width="220" height="40" as="alternateBounds" />
          </mxGeometry>
        </mxCell>
        <mxCell id="Xm_AiRq3xBXqMQoTUS5R-492" value="" style="group" vertex="1" connectable="0" parent="Xm_AiRq3xBXqMQoTUS5R-987">
          <mxGeometry y="100" width="250" height="40" as="geometry" />
        </mxCell>
        <mxCell id="Xm_AiRq3xBXqMQoTUS5R-493" value="" style="group" vertex="1" connectable="0" parent="Xm_AiRq3xBXqMQoTUS5R-492">
          <mxGeometry width="250" height="40" as="geometry" />
        </mxCell>
        <mxCell id="Xm_AiRq3xBXqMQoTUS5R-494" value="" style="rounded=0;whiteSpace=wrap;html=1;fillColor=none;" vertex="1" parent="Xm_AiRq3xBXqMQoTUS5R-493">
          <mxGeometry width="250" height="40" as="geometry" />
        </mxCell>
        <mxCell id="Xm_AiRq3xBXqMQoTUS5R-495" value="apiKey String" style="shape=partialRectangle;overflow=hidden;connectable=0;fillColor=none;top=0;left=0;bottom=0;right=0;align=left;spacingLeft=6;" vertex="1" parent="Xm_AiRq3xBXqMQoTUS5R-493">
          <mxGeometry x="30" width="220" height="40" as="geometry">
            <mxRectangle width="220" height="40" as="alternateBounds" />
          </mxGeometry>
        </mxCell>
        <mxCell id="Xm_AiRq3xBXqMQoTUS5R-496" value="" style="endArrow=none;html=1;rounded=0;entryX=0.119;entryY=0.002;entryDx=0;entryDy=0;entryPerimeter=0;exitX=0.119;exitY=0.993;exitDx=0;exitDy=0;exitPerimeter=0;" edge="1" parent="Xm_AiRq3xBXqMQoTUS5R-493" source="Xm_AiRq3xBXqMQoTUS5R-494" target="Xm_AiRq3xBXqMQoTUS5R-494">
          <mxGeometry width="50" height="50" relative="1" as="geometry">
            <mxPoint x="140" y="80" as="sourcePoint" />
            <mxPoint x="190" y="30" as="targetPoint" />
          </mxGeometry>
        </mxCell>
        <mxCell id="Xm_AiRq3xBXqMQoTUS5R-497" value="" style="group" vertex="1" connectable="0" parent="Xm_AiRq3xBXqMQoTUS5R-987">
          <mxGeometry y="140" width="250" height="40" as="geometry" />
        </mxCell>
        <mxCell id="Xm_AiRq3xBXqMQoTUS5R-498" value="" style="group" vertex="1" connectable="0" parent="Xm_AiRq3xBXqMQoTUS5R-497">
          <mxGeometry width="250" height="40" as="geometry" />
        </mxCell>
        <mxCell id="Xm_AiRq3xBXqMQoTUS5R-499" value="" style="rounded=0;whiteSpace=wrap;html=1;fillColor=none;" vertex="1" parent="Xm_AiRq3xBXqMQoTUS5R-498">
          <mxGeometry width="250" height="40" as="geometry" />
        </mxCell>
        <mxCell id="Xm_AiRq3xBXqMQoTUS5R-500" value="apiEndpoint String" style="shape=partialRectangle;overflow=hidden;connectable=0;fillColor=none;top=0;left=0;bottom=0;right=0;align=left;spacingLeft=6;" vertex="1" parent="Xm_AiRq3xBXqMQoTUS5R-498">
          <mxGeometry x="30" width="220" height="40" as="geometry">
            <mxRectangle width="220" height="40" as="alternateBounds" />
          </mxGeometry>
        </mxCell>
        <mxCell id="Xm_AiRq3xBXqMQoTUS5R-501" value="" style="endArrow=none;html=1;rounded=0;entryX=0.119;entryY=0.002;entryDx=0;entryDy=0;entryPerimeter=0;exitX=0.119;exitY=0.993;exitDx=0;exitDy=0;exitPerimeter=0;" edge="1" parent="Xm_AiRq3xBXqMQoTUS5R-498" source="Xm_AiRq3xBXqMQoTUS5R-499" target="Xm_AiRq3xBXqMQoTUS5R-499">
          <mxGeometry width="50" height="50" relative="1" as="geometry">
            <mxPoint x="140" y="80" as="sourcePoint" />
            <mxPoint x="190" y="30" as="targetPoint" />
          </mxGeometry>
        </mxCell>
        <mxCell id="Xm_AiRq3xBXqMQoTUS5R-502" value="" style="group" vertex="1" connectable="0" parent="Xm_AiRq3xBXqMQoTUS5R-987">
          <mxGeometry y="180" width="250" height="40" as="geometry" />
        </mxCell>
        <mxCell id="Xm_AiRq3xBXqMQoTUS5R-503" value="" style="group" vertex="1" connectable="0" parent="Xm_AiRq3xBXqMQoTUS5R-502">
          <mxGeometry width="250" height="40" as="geometry" />
        </mxCell>
        <mxCell id="Xm_AiRq3xBXqMQoTUS5R-504" value="" style="rounded=0;whiteSpace=wrap;html=1;fillColor=none;" vertex="1" parent="Xm_AiRq3xBXqMQoTUS5R-503">
          <mxGeometry width="250" height="40" as="geometry" />
        </mxCell>
        <mxCell id="Xm_AiRq3xBXqMQoTUS5R-505" value="modelName String" style="shape=partialRectangle;overflow=hidden;connectable=0;fillColor=none;top=0;left=0;bottom=0;right=0;align=left;spacingLeft=6;" vertex="1" parent="Xm_AiRq3xBXqMQoTUS5R-503">
          <mxGeometry x="30" width="220" height="40" as="geometry">
            <mxRectangle width="220" height="40" as="alternateBounds" />
          </mxGeometry>
        </mxCell>
        <mxCell id="Xm_AiRq3xBXqMQoTUS5R-506" value="" style="endArrow=none;html=1;rounded=0;entryX=0.119;entryY=0.002;entryDx=0;entryDy=0;entryPerimeter=0;exitX=0.119;exitY=0.993;exitDx=0;exitDy=0;exitPerimeter=0;" edge="1" parent="Xm_AiRq3xBXqMQoTUS5R-503" source="Xm_AiRq3xBXqMQoTUS5R-504" target="Xm_AiRq3xBXqMQoTUS5R-504">
          <mxGeometry width="50" height="50" relative="1" as="geometry">
            <mxPoint x="140" y="80" as="sourcePoint" />
            <mxPoint x="190" y="30" as="targetPoint" />
          </mxGeometry>
        </mxCell>
        <mxCell id="Xm_AiRq3xBXqMQoTUS5R-507" value="" style="group" vertex="1" connectable="0" parent="Xm_AiRq3xBXqMQoTUS5R-987">
          <mxGeometry y="220" width="250" height="40" as="geometry" />
        </mxCell>
        <mxCell id="Xm_AiRq3xBXqMQoTUS5R-508" value="" style="group" vertex="1" connectable="0" parent="Xm_AiRq3xBXqMQoTUS5R-507">
          <mxGeometry width="250" height="40" as="geometry" />
        </mxCell>
        <mxCell id="Xm_AiRq3xBXqMQoTUS5R-509" value="" style="rounded=0;whiteSpace=wrap;html=1;fillColor=none;" vertex="1" parent="Xm_AiRq3xBXqMQoTUS5R-508">
          <mxGeometry width="250" height="40" as="geometry" />
        </mxCell>
        <mxCell id="Xm_AiRq3xBXqMQoTUS5R-510" value="createdAt DateTime" style="shape=partialRectangle;overflow=hidden;connectable=0;fillColor=none;top=0;left=0;bottom=0;right=0;align=left;spacingLeft=6;" vertex="1" parent="Xm_AiRq3xBXqMQoTUS5R-508">
          <mxGeometry x="30" width="220" height="40" as="geometry">
            <mxRectangle width="220" height="40" as="alternateBounds" />
          </mxGeometry>
        </mxCell>
        <mxCell id="Xm_AiRq3xBXqMQoTUS5R-511" value="" style="endArrow=none;html=1;rounded=0;entryX=0.119;entryY=0.002;entryDx=0;entryDy=0;entryPerimeter=0;exitX=0.119;exitY=0.993;exitDx=0;exitDy=0;exitPerimeter=0;" edge="1" parent="Xm_AiRq3xBXqMQoTUS5R-508" source="Xm_AiRq3xBXqMQoTUS5R-509" target="Xm_AiRq3xBXqMQoTUS5R-509">
          <mxGeometry width="50" height="50" relative="1" as="geometry">
            <mxPoint x="140" y="80" as="sourcePoint" />
            <mxPoint x="190" y="30" as="targetPoint" />
          </mxGeometry>
        </mxCell>
        <mxCell id="Xm_AiRq3xBXqMQoTUS5R-512" value="" style="group" vertex="1" connectable="0" parent="Xm_AiRq3xBXqMQoTUS5R-987">
          <mxGeometry y="260" width="250" height="40" as="geometry" />
        </mxCell>
        <mxCell id="Xm_AiRq3xBXqMQoTUS5R-513" value="" style="group" vertex="1" connectable="0" parent="Xm_AiRq3xBXqMQoTUS5R-512">
          <mxGeometry width="250" height="40" as="geometry" />
        </mxCell>
        <mxCell id="Xm_AiRq3xBXqMQoTUS5R-514" value="" style="rounded=0;whiteSpace=wrap;html=1;fillColor=none;" vertex="1" parent="Xm_AiRq3xBXqMQoTUS5R-513">
          <mxGeometry width="250" height="40" as="geometry" />
        </mxCell>
        <mxCell id="Xm_AiRq3xBXqMQoTUS5R-515" value="updatedAt DateTime" style="shape=partialRectangle;overflow=hidden;connectable=0;fillColor=none;top=0;left=0;bottom=0;right=0;align=left;spacingLeft=6;" vertex="1" parent="Xm_AiRq3xBXqMQoTUS5R-513">
          <mxGeometry x="30" width="220" height="40" as="geometry">
            <mxRectangle width="220" height="40" as="alternateBounds" />
          </mxGeometry>
        </mxCell>
        <mxCell id="Xm_AiRq3xBXqMQoTUS5R-516" value="" style="endArrow=none;html=1;rounded=0;entryX=0.119;entryY=0.002;entryDx=0;entryDy=0;entryPerimeter=0;exitX=0.119;exitY=0.993;exitDx=0;exitDy=0;exitPerimeter=0;" edge="1" parent="Xm_AiRq3xBXqMQoTUS5R-513" source="Xm_AiRq3xBXqMQoTUS5R-514" target="Xm_AiRq3xBXqMQoTUS5R-514">
          <mxGeometry width="50" height="50" relative="1" as="geometry">
            <mxPoint x="140" y="80" as="sourcePoint" />
            <mxPoint x="190" y="30" as="targetPoint" />
          </mxGeometry>
        </mxCell>
        <mxCell id="Xm_AiRq3xBXqMQoTUS5R-517" value="" style="group" vertex="1" connectable="0" parent="Xm_AiRq3xBXqMQoTUS5R-987">
          <mxGeometry y="300" width="250" height="40" as="geometry" />
        </mxCell>
        <mxCell id="Xm_AiRq3xBXqMQoTUS5R-518" value="" style="group" vertex="1" connectable="0" parent="Xm_AiRq3xBXqMQoTUS5R-517">
          <mxGeometry width="250" height="40" as="geometry" />
        </mxCell>
        <mxCell id="Xm_AiRq3xBXqMQoTUS5R-519" value="" style="rounded=0;whiteSpace=wrap;html=1;fillColor=none;" vertex="1" parent="Xm_AiRq3xBXqMQoTUS5R-518">
          <mxGeometry width="250" height="40" as="geometry" />
        </mxCell>
        <mxCell id="Xm_AiRq3xBXqMQoTUS5R-520" value="user User" style="shape=partialRectangle;overflow=hidden;connectable=0;fillColor=none;top=0;left=0;bottom=0;right=0;align=left;spacingLeft=6;" vertex="1" parent="Xm_AiRq3xBXqMQoTUS5R-518">
          <mxGeometry x="30" width="220" height="40" as="geometry">
            <mxRectangle width="220" height="40" as="alternateBounds" />
          </mxGeometry>
        </mxCell>
        <mxCell id="Xm_AiRq3xBXqMQoTUS5R-521" value="" style="endArrow=none;html=1;rounded=0;entryX=0.119;entryY=0.002;entryDx=0;entryDy=0;entryPerimeter=0;exitX=0.119;exitY=0.993;exitDx=0;exitDy=0;exitPerimeter=0;" edge="1" parent="Xm_AiRq3xBXqMQoTUS5R-518" source="Xm_AiRq3xBXqMQoTUS5R-519" target="Xm_AiRq3xBXqMQoTUS5R-519">
          <mxGeometry width="50" height="50" relative="1" as="geometry">
            <mxPoint x="140" y="80" as="sourcePoint" />
            <mxPoint x="190" y="30" as="targetPoint" />
          </mxGeometry>
        </mxCell>
        <mxCell id="Xm_AiRq3xBXqMQoTUS5R-522" value="" style="group" vertex="1" connectable="0" parent="Xm_AiRq3xBXqMQoTUS5R-987">
          <mxGeometry y="340" width="250" height="40" as="geometry" />
        </mxCell>
        <mxCell id="Xm_AiRq3xBXqMQoTUS5R-523" value="" style="group" vertex="1" connectable="0" parent="Xm_AiRq3xBXqMQoTUS5R-522">
          <mxGeometry width="250" height="40" as="geometry" />
        </mxCell>
        <mxCell id="Xm_AiRq3xBXqMQoTUS5R-524" value="" style="rounded=0;whiteSpace=wrap;html=1;fillColor=none;" vertex="1" parent="Xm_AiRq3xBXqMQoTUS5R-523">
          <mxGeometry width="250" height="40" as="geometry" />
        </mxCell>
        <mxCell id="Xm_AiRq3xBXqMQoTUS5R-525" value="userId String" style="shape=partialRectangle;overflow=hidden;connectable=0;fillColor=none;top=0;left=0;bottom=0;right=0;align=left;spacingLeft=6;" vertex="1" parent="Xm_AiRq3xBXqMQoTUS5R-523">
          <mxGeometry x="30" width="220" height="40" as="geometry">
            <mxRectangle width="220" height="40" as="alternateBounds" />
          </mxGeometry>
        </mxCell>
        <mxCell id="Xm_AiRq3xBXqMQoTUS5R-526" value="" style="endArrow=none;html=1;rounded=0;entryX=0.119;entryY=0.002;entryDx=0;entryDy=0;entryPerimeter=0;exitX=0.119;exitY=0.993;exitDx=0;exitDy=0;exitPerimeter=0;" edge="1" parent="Xm_AiRq3xBXqMQoTUS5R-523" source="Xm_AiRq3xBXqMQoTUS5R-524" target="Xm_AiRq3xBXqMQoTUS5R-524">
          <mxGeometry width="50" height="50" relative="1" as="geometry">
            <mxPoint x="140" y="80" as="sourcePoint" />
            <mxPoint x="190" y="30" as="targetPoint" />
          </mxGeometry>
        </mxCell>
        <mxCell id="Xm_AiRq3xBXqMQoTUS5R-998" value="FK" style="shape=partialRectangle;overflow=hidden;connectable=0;fillColor=none;top=0;left=0;bottom=0;right=0;" vertex="1" parent="Xm_AiRq3xBXqMQoTUS5R-523">
          <mxGeometry width="30" height="40" as="geometry">
            <mxRectangle width="30" height="40" as="alternateBounds" />
          </mxGeometry>
        </mxCell>
        <mxCell id="Xm_AiRq3xBXqMQoTUS5R-527" value="" style="group" vertex="1" connectable="0" parent="Xm_AiRq3xBXqMQoTUS5R-987">
          <mxGeometry y="380" width="250" height="40" as="geometry" />
        </mxCell>
        <mxCell id="Xm_AiRq3xBXqMQoTUS5R-528" value="" style="group" vertex="1" connectable="0" parent="Xm_AiRq3xBXqMQoTUS5R-527">
          <mxGeometry width="250" height="40" as="geometry" />
        </mxCell>
        <mxCell id="Xm_AiRq3xBXqMQoTUS5R-529" value="" style="rounded=0;whiteSpace=wrap;html=1;fillColor=none;" vertex="1" parent="Xm_AiRq3xBXqMQoTUS5R-528">
          <mxGeometry width="250" height="40" as="geometry" />
        </mxCell>
        <mxCell id="Xm_AiRq3xBXqMQoTUS5R-530" value="workflows Workflow" style="shape=partialRectangle;overflow=hidden;connectable=0;fillColor=none;top=0;left=0;bottom=0;right=0;align=left;spacingLeft=6;" vertex="1" parent="Xm_AiRq3xBXqMQoTUS5R-528">
          <mxGeometry x="30" width="220" height="40" as="geometry">
            <mxRectangle width="220" height="40" as="alternateBounds" />
          </mxGeometry>
        </mxCell>
        <mxCell id="Xm_AiRq3xBXqMQoTUS5R-531" value="" style="endArrow=none;html=1;rounded=0;entryX=0.119;entryY=0.002;entryDx=0;entryDy=0;entryPerimeter=0;exitX=0.119;exitY=0.993;exitDx=0;exitDy=0;exitPerimeter=0;" edge="1" parent="Xm_AiRq3xBXqMQoTUS5R-528" source="Xm_AiRq3xBXqMQoTUS5R-529" target="Xm_AiRq3xBXqMQoTUS5R-529">
          <mxGeometry width="50" height="50" relative="1" as="geometry">
            <mxPoint x="140" y="80" as="sourcePoint" />
            <mxPoint x="190" y="30" as="targetPoint" />
          </mxGeometry>
        </mxCell>
        <mxCell id="Xm_AiRq3xBXqMQoTUS5R-988" value="" style="group" vertex="1" connectable="0" parent="1">
          <mxGeometry x="1025" y="560" width="250" height="420" as="geometry" />
        </mxCell>
        <mxCell id="Xm_AiRq3xBXqMQoTUS5R-537" value="" style="group" vertex="1" connectable="0" parent="Xm_AiRq3xBXqMQoTUS5R-988">
          <mxGeometry y="60" width="250" height="40" as="geometry" />
        </mxCell>
        <mxCell id="Xm_AiRq3xBXqMQoTUS5R-538" value="" style="rounded=0;whiteSpace=wrap;html=1;fillColor=none;" vertex="1" parent="Xm_AiRq3xBXqMQoTUS5R-537">
          <mxGeometry width="250" height="40" as="geometry" />
        </mxCell>
        <mxCell id="Xm_AiRq3xBXqMQoTUS5R-539" value="" style="endArrow=none;html=1;rounded=0;entryX=0.119;entryY=0.002;entryDx=0;entryDy=0;entryPerimeter=0;exitX=0.119;exitY=0.993;exitDx=0;exitDy=0;exitPerimeter=0;" edge="1" parent="Xm_AiRq3xBXqMQoTUS5R-537" source="Xm_AiRq3xBXqMQoTUS5R-538" target="Xm_AiRq3xBXqMQoTUS5R-538">
          <mxGeometry width="50" height="50" relative="1" as="geometry">
            <mxPoint x="140" y="80" as="sourcePoint" />
            <mxPoint x="190" y="30" as="targetPoint" />
          </mxGeometry>
        </mxCell>
        <mxCell id="Xm_AiRq3xBXqMQoTUS5R-540" value="Workflow" style="shape=table;startSize=30;container=1;collapsible=1;childLayout=tableLayout;fixedRows=1;rowLines=0;fontStyle=1;align=center;resizeLast=1;" vertex="1" parent="Xm_AiRq3xBXqMQoTUS5R-988">
          <mxGeometry width="250" height="420" as="geometry" />
        </mxCell>
        <mxCell id="Xm_AiRq3xBXqMQoTUS5R-541" value="" style="shape=partialRectangle;collapsible=0;dropTarget=0;pointerEvents=0;fillColor=none;points=[[0,0.5],[1,0.5]];portConstraint=eastwest;top=0;left=0;right=0;bottom=1;" vertex="1" parent="Xm_AiRq3xBXqMQoTUS5R-540">
          <mxGeometry y="30" width="250" height="30" as="geometry" />
        </mxCell>
        <mxCell id="Xm_AiRq3xBXqMQoTUS5R-542" value="PK" style="shape=partialRectangle;overflow=hidden;connectable=0;fillColor=none;top=0;left=0;bottom=0;right=0;fontStyle=1;" vertex="1" parent="Xm_AiRq3xBXqMQoTUS5R-541">
          <mxGeometry width="30" height="30" as="geometry">
            <mxRectangle width="30" height="30" as="alternateBounds" />
          </mxGeometry>
        </mxCell>
        <mxCell id="Xm_AiRq3xBXqMQoTUS5R-543" value="id String" style="shape=partialRectangle;overflow=hidden;connectable=0;fillColor=none;top=0;left=0;bottom=0;right=0;align=left;spacingLeft=6;fontStyle=1;" vertex="1" parent="Xm_AiRq3xBXqMQoTUS5R-541">
          <mxGeometry x="30" width="220" height="30" as="geometry">
            <mxRectangle width="220" height="30" as="alternateBounds" />
          </mxGeometry>
        </mxCell>
        <mxCell id="Xm_AiRq3xBXqMQoTUS5R-544" value="" style="shape=partialRectangle;collapsible=0;dropTarget=0;pointerEvents=0;fillColor=none;points=[[0,0.5],[1,0.5]];portConstraint=eastwest;top=0;left=0;right=0;bottom=0;" vertex="1" parent="Xm_AiRq3xBXqMQoTUS5R-540">
          <mxGeometry y="60" width="250" height="40" as="geometry" />
        </mxCell>
        <mxCell id="Xm_AiRq3xBXqMQoTUS5R-545" value="" style="shape=partialRectangle;overflow=hidden;connectable=0;fillColor=none;top=0;left=0;bottom=0;right=0;" vertex="1" parent="Xm_AiRq3xBXqMQoTUS5R-544">
          <mxGeometry width="30" height="40" as="geometry">
            <mxRectangle width="30" height="40" as="alternateBounds" />
          </mxGeometry>
        </mxCell>
        <mxCell id="Xm_AiRq3xBXqMQoTUS5R-546" value="name String" style="shape=partialRectangle;overflow=hidden;connectable=0;fillColor=none;top=0;left=0;bottom=0;right=0;align=left;spacingLeft=6;" vertex="1" parent="Xm_AiRq3xBXqMQoTUS5R-544">
          <mxGeometry x="30" width="220" height="40" as="geometry">
            <mxRectangle width="220" height="40" as="alternateBounds" />
          </mxGeometry>
        </mxCell>
        <mxCell id="Xm_AiRq3xBXqMQoTUS5R-547" value="" style="group" vertex="1" connectable="0" parent="Xm_AiRq3xBXqMQoTUS5R-988">
          <mxGeometry y="100" width="250" height="40" as="geometry" />
        </mxCell>
        <mxCell id="Xm_AiRq3xBXqMQoTUS5R-548" value="" style="group" vertex="1" connectable="0" parent="Xm_AiRq3xBXqMQoTUS5R-547">
          <mxGeometry width="250" height="40" as="geometry" />
        </mxCell>
        <mxCell id="Xm_AiRq3xBXqMQoTUS5R-549" value="" style="rounded=0;whiteSpace=wrap;html=1;fillColor=none;" vertex="1" parent="Xm_AiRq3xBXqMQoTUS5R-548">
          <mxGeometry width="250" height="40" as="geometry" />
        </mxCell>
        <mxCell id="Xm_AiRq3xBXqMQoTUS5R-550" value="items Json" style="shape=partialRectangle;overflow=hidden;connectable=0;fillColor=none;top=0;left=0;bottom=0;right=0;align=left;spacingLeft=6;" vertex="1" parent="Xm_AiRq3xBXqMQoTUS5R-548">
          <mxGeometry x="30" width="220" height="40" as="geometry">
            <mxRectangle width="220" height="40" as="alternateBounds" />
          </mxGeometry>
        </mxCell>
        <mxCell id="Xm_AiRq3xBXqMQoTUS5R-551" value="" style="endArrow=none;html=1;rounded=0;entryX=0.119;entryY=0.002;entryDx=0;entryDy=0;entryPerimeter=0;exitX=0.119;exitY=0.993;exitDx=0;exitDy=0;exitPerimeter=0;" edge="1" parent="Xm_AiRq3xBXqMQoTUS5R-548" source="Xm_AiRq3xBXqMQoTUS5R-549" target="Xm_AiRq3xBXqMQoTUS5R-549">
          <mxGeometry width="50" height="50" relative="1" as="geometry">
            <mxPoint x="140" y="80" as="sourcePoint" />
            <mxPoint x="190" y="30" as="targetPoint" />
          </mxGeometry>
        </mxCell>
        <mxCell id="Xm_AiRq3xBXqMQoTUS5R-562" value="" style="group" vertex="1" connectable="0" parent="Xm_AiRq3xBXqMQoTUS5R-988">
          <mxGeometry y="140" width="250" height="40" as="geometry" />
        </mxCell>
        <mxCell id="Xm_AiRq3xBXqMQoTUS5R-563" value="" style="group" vertex="1" connectable="0" parent="Xm_AiRq3xBXqMQoTUS5R-562">
          <mxGeometry width="250" height="40" as="geometry" />
        </mxCell>
        <mxCell id="Xm_AiRq3xBXqMQoTUS5R-564" value="" style="rounded=0;whiteSpace=wrap;html=1;fillColor=none;" vertex="1" parent="Xm_AiRq3xBXqMQoTUS5R-563">
          <mxGeometry width="250" height="40" as="geometry" />
        </mxCell>
        <mxCell id="Xm_AiRq3xBXqMQoTUS5R-565" value="createdAt DateTime" style="shape=partialRectangle;overflow=hidden;connectable=0;fillColor=none;top=0;left=0;bottom=0;right=0;align=left;spacingLeft=6;" vertex="1" parent="Xm_AiRq3xBXqMQoTUS5R-563">
          <mxGeometry x="30" width="220" height="40" as="geometry">
            <mxRectangle width="220" height="40" as="alternateBounds" />
          </mxGeometry>
        </mxCell>
        <mxCell id="Xm_AiRq3xBXqMQoTUS5R-566" value="" style="endArrow=none;html=1;rounded=0;entryX=0.119;entryY=0.002;entryDx=0;entryDy=0;entryPerimeter=0;exitX=0.119;exitY=0.993;exitDx=0;exitDy=0;exitPerimeter=0;" edge="1" parent="Xm_AiRq3xBXqMQoTUS5R-563" source="Xm_AiRq3xBXqMQoTUS5R-564" target="Xm_AiRq3xBXqMQoTUS5R-564">
          <mxGeometry width="50" height="50" relative="1" as="geometry">
            <mxPoint x="140" y="80" as="sourcePoint" />
            <mxPoint x="190" y="30" as="targetPoint" />
          </mxGeometry>
        </mxCell>
        <mxCell id="Xm_AiRq3xBXqMQoTUS5R-567" value="" style="group" vertex="1" connectable="0" parent="Xm_AiRq3xBXqMQoTUS5R-988">
          <mxGeometry y="180" width="250" height="40" as="geometry" />
        </mxCell>
        <mxCell id="Xm_AiRq3xBXqMQoTUS5R-568" value="" style="group" vertex="1" connectable="0" parent="Xm_AiRq3xBXqMQoTUS5R-567">
          <mxGeometry width="250" height="40" as="geometry" />
        </mxCell>
        <mxCell id="Xm_AiRq3xBXqMQoTUS5R-569" value="" style="rounded=0;whiteSpace=wrap;html=1;fillColor=none;" vertex="1" parent="Xm_AiRq3xBXqMQoTUS5R-568">
          <mxGeometry width="250" height="40" as="geometry" />
        </mxCell>
        <mxCell id="Xm_AiRq3xBXqMQoTUS5R-570" value="updatedAt DateTime" style="shape=partialRectangle;overflow=hidden;connectable=0;fillColor=none;top=0;left=0;bottom=0;right=0;align=left;spacingLeft=6;" vertex="1" parent="Xm_AiRq3xBXqMQoTUS5R-568">
          <mxGeometry x="30" width="220" height="40" as="geometry">
            <mxRectangle width="220" height="40" as="alternateBounds" />
          </mxGeometry>
        </mxCell>
        <mxCell id="Xm_AiRq3xBXqMQoTUS5R-571" value="" style="endArrow=none;html=1;rounded=0;entryX=0.119;entryY=0.002;entryDx=0;entryDy=0;entryPerimeter=0;exitX=0.119;exitY=0.993;exitDx=0;exitDy=0;exitPerimeter=0;" edge="1" parent="Xm_AiRq3xBXqMQoTUS5R-568" source="Xm_AiRq3xBXqMQoTUS5R-569" target="Xm_AiRq3xBXqMQoTUS5R-569">
          <mxGeometry width="50" height="50" relative="1" as="geometry">
            <mxPoint x="140" y="80" as="sourcePoint" />
            <mxPoint x="190" y="30" as="targetPoint" />
          </mxGeometry>
        </mxCell>
        <mxCell id="Xm_AiRq3xBXqMQoTUS5R-572" value="" style="group" vertex="1" connectable="0" parent="Xm_AiRq3xBXqMQoTUS5R-988">
          <mxGeometry y="300" width="250" height="40" as="geometry" />
        </mxCell>
        <mxCell id="Xm_AiRq3xBXqMQoTUS5R-573" value="" style="group" vertex="1" connectable="0" parent="Xm_AiRq3xBXqMQoTUS5R-572">
          <mxGeometry width="250" height="40" as="geometry" />
        </mxCell>
        <mxCell id="Xm_AiRq3xBXqMQoTUS5R-574" value="" style="rounded=0;whiteSpace=wrap;html=1;fillColor=none;" vertex="1" parent="Xm_AiRq3xBXqMQoTUS5R-573">
          <mxGeometry width="250" height="40" as="geometry" />
        </mxCell>
        <mxCell id="Xm_AiRq3xBXqMQoTUS5R-575" value="chatbot Chatbot" style="shape=partialRectangle;overflow=hidden;connectable=0;fillColor=none;top=0;left=0;bottom=0;right=0;align=left;spacingLeft=6;" vertex="1" parent="Xm_AiRq3xBXqMQoTUS5R-573">
          <mxGeometry x="30" width="220" height="40" as="geometry">
            <mxRectangle width="220" height="40" as="alternateBounds" />
          </mxGeometry>
        </mxCell>
        <mxCell id="Xm_AiRq3xBXqMQoTUS5R-576" value="" style="endArrow=none;html=1;rounded=0;entryX=0.119;entryY=0.002;entryDx=0;entryDy=0;entryPerimeter=0;exitX=0.119;exitY=0.993;exitDx=0;exitDy=0;exitPerimeter=0;" edge="1" parent="Xm_AiRq3xBXqMQoTUS5R-573" source="Xm_AiRq3xBXqMQoTUS5R-574" target="Xm_AiRq3xBXqMQoTUS5R-574">
          <mxGeometry width="50" height="50" relative="1" as="geometry">
            <mxPoint x="140" y="80" as="sourcePoint" />
            <mxPoint x="190" y="30" as="targetPoint" />
          </mxGeometry>
        </mxCell>
        <mxCell id="Xm_AiRq3xBXqMQoTUS5R-1053" value="FK" style="shape=partialRectangle;overflow=hidden;connectable=0;fillColor=none;top=0;left=0;bottom=0;right=0;" vertex="1" parent="Xm_AiRq3xBXqMQoTUS5R-573">
          <mxGeometry y="-40" width="30" height="40" as="geometry">
            <mxRectangle width="30" height="40" as="alternateBounds" />
          </mxGeometry>
        </mxCell>
        <mxCell id="Xm_AiRq3xBXqMQoTUS5R-577" value="" style="group" vertex="1" connectable="0" parent="Xm_AiRq3xBXqMQoTUS5R-988">
          <mxGeometry y="340" width="250" height="40" as="geometry" />
        </mxCell>
        <mxCell id="Xm_AiRq3xBXqMQoTUS5R-578" value="" style="group" vertex="1" connectable="0" parent="Xm_AiRq3xBXqMQoTUS5R-577">
          <mxGeometry width="250" height="40" as="geometry" />
        </mxCell>
        <mxCell id="Xm_AiRq3xBXqMQoTUS5R-579" value="" style="rounded=0;whiteSpace=wrap;html=1;fillColor=none;" vertex="1" parent="Xm_AiRq3xBXqMQoTUS5R-578">
          <mxGeometry width="250" height="40" as="geometry" />
        </mxCell>
        <mxCell id="Xm_AiRq3xBXqMQoTUS5R-580" value="chatbotId Chatbot" style="shape=partialRectangle;overflow=hidden;connectable=0;fillColor=none;top=0;left=0;bottom=0;right=0;align=left;spacingLeft=6;" vertex="1" parent="Xm_AiRq3xBXqMQoTUS5R-578">
          <mxGeometry x="30" width="220" height="40" as="geometry">
            <mxRectangle width="220" height="40" as="alternateBounds" />
          </mxGeometry>
        </mxCell>
        <mxCell id="Xm_AiRq3xBXqMQoTUS5R-581" value="" style="endArrow=none;html=1;rounded=0;entryX=0.119;entryY=0.002;entryDx=0;entryDy=0;entryPerimeter=0;exitX=0.119;exitY=0.993;exitDx=0;exitDy=0;exitPerimeter=0;" edge="1" parent="Xm_AiRq3xBXqMQoTUS5R-578" source="Xm_AiRq3xBXqMQoTUS5R-579" target="Xm_AiRq3xBXqMQoTUS5R-579">
          <mxGeometry width="50" height="50" relative="1" as="geometry">
            <mxPoint x="140" y="80" as="sourcePoint" />
            <mxPoint x="190" y="30" as="targetPoint" />
          </mxGeometry>
        </mxCell>
        <mxCell id="Xm_AiRq3xBXqMQoTUS5R-1054" value="FK" style="shape=partialRectangle;overflow=hidden;connectable=0;fillColor=none;top=0;left=0;bottom=0;right=0;" vertex="1" parent="Xm_AiRq3xBXqMQoTUS5R-578">
          <mxGeometry width="30" height="40" as="geometry">
            <mxRectangle width="30" height="40" as="alternateBounds" />
          </mxGeometry>
        </mxCell>
        <mxCell id="Xm_AiRq3xBXqMQoTUS5R-582" value="" style="group" vertex="1" connectable="0" parent="Xm_AiRq3xBXqMQoTUS5R-988">
          <mxGeometry y="380" width="250" height="40" as="geometry" />
        </mxCell>
        <mxCell id="Xm_AiRq3xBXqMQoTUS5R-583" value="" style="group" vertex="1" connectable="0" parent="Xm_AiRq3xBXqMQoTUS5R-582">
          <mxGeometry width="250" height="40" as="geometry" />
        </mxCell>
        <mxCell id="Xm_AiRq3xBXqMQoTUS5R-584" value="" style="rounded=0;whiteSpace=wrap;html=1;fillColor=none;" vertex="1" parent="Xm_AiRq3xBXqMQoTUS5R-583">
          <mxGeometry width="250" height="40" as="geometry" />
        </mxCell>
        <mxCell id="Xm_AiRq3xBXqMQoTUS5R-585" value="reports Report" style="shape=partialRectangle;overflow=hidden;connectable=0;fillColor=none;top=0;left=0;bottom=0;right=0;align=left;spacingLeft=6;" vertex="1" parent="Xm_AiRq3xBXqMQoTUS5R-583">
          <mxGeometry x="30" width="220" height="40" as="geometry">
            <mxRectangle width="220" height="40" as="alternateBounds" />
          </mxGeometry>
        </mxCell>
        <mxCell id="Xm_AiRq3xBXqMQoTUS5R-586" value="" style="endArrow=none;html=1;rounded=0;entryX=0.119;entryY=0.002;entryDx=0;entryDy=0;entryPerimeter=0;exitX=0.119;exitY=0.993;exitDx=0;exitDy=0;exitPerimeter=0;" edge="1" parent="Xm_AiRq3xBXqMQoTUS5R-583" source="Xm_AiRq3xBXqMQoTUS5R-584" target="Xm_AiRq3xBXqMQoTUS5R-584">
          <mxGeometry width="50" height="50" relative="1" as="geometry">
            <mxPoint x="140" y="80" as="sourcePoint" />
            <mxPoint x="190" y="30" as="targetPoint" />
          </mxGeometry>
        </mxCell>
        <mxCell id="Xm_AiRq3xBXqMQoTUS5R-587" value="" style="group" vertex="1" connectable="0" parent="Xm_AiRq3xBXqMQoTUS5R-988">
          <mxGeometry y="220" width="250" height="40" as="geometry" />
        </mxCell>
        <mxCell id="Xm_AiRq3xBXqMQoTUS5R-588" value="" style="group" vertex="1" connectable="0" parent="Xm_AiRq3xBXqMQoTUS5R-587">
          <mxGeometry width="250" height="40" as="geometry" />
        </mxCell>
        <mxCell id="Xm_AiRq3xBXqMQoTUS5R-589" value="" style="rounded=0;whiteSpace=wrap;html=1;fillColor=none;" vertex="1" parent="Xm_AiRq3xBXqMQoTUS5R-588">
          <mxGeometry width="250" height="40" as="geometry" />
        </mxCell>
        <mxCell id="Xm_AiRq3xBXqMQoTUS5R-590" value="project Project" style="shape=partialRectangle;overflow=hidden;connectable=0;fillColor=none;top=0;left=0;bottom=0;right=0;align=left;spacingLeft=6;" vertex="1" parent="Xm_AiRq3xBXqMQoTUS5R-588">
          <mxGeometry x="30" width="220" height="40" as="geometry">
            <mxRectangle width="220" height="40" as="alternateBounds" />
          </mxGeometry>
        </mxCell>
        <mxCell id="Xm_AiRq3xBXqMQoTUS5R-591" value="" style="endArrow=none;html=1;rounded=0;entryX=0.119;entryY=0.002;entryDx=0;entryDy=0;entryPerimeter=0;exitX=0.119;exitY=0.993;exitDx=0;exitDy=0;exitPerimeter=0;" edge="1" parent="Xm_AiRq3xBXqMQoTUS5R-588" source="Xm_AiRq3xBXqMQoTUS5R-589" target="Xm_AiRq3xBXqMQoTUS5R-589">
          <mxGeometry width="50" height="50" relative="1" as="geometry">
            <mxPoint x="140" y="80" as="sourcePoint" />
            <mxPoint x="190" y="30" as="targetPoint" />
          </mxGeometry>
        </mxCell>
        <mxCell id="Xm_AiRq3xBXqMQoTUS5R-592" value="" style="group" vertex="1" connectable="0" parent="Xm_AiRq3xBXqMQoTUS5R-988">
          <mxGeometry y="260" width="250" height="40" as="geometry" />
        </mxCell>
        <mxCell id="Xm_AiRq3xBXqMQoTUS5R-593" value="" style="group" vertex="1" connectable="0" parent="Xm_AiRq3xBXqMQoTUS5R-592">
          <mxGeometry width="250" height="40" as="geometry" />
        </mxCell>
        <mxCell id="Xm_AiRq3xBXqMQoTUS5R-594" value="" style="rounded=0;whiteSpace=wrap;html=1;fillColor=none;" vertex="1" parent="Xm_AiRq3xBXqMQoTUS5R-593">
          <mxGeometry width="250" height="40" as="geometry" />
        </mxCell>
        <mxCell id="Xm_AiRq3xBXqMQoTUS5R-595" value="projectId String" style="shape=partialRectangle;overflow=hidden;connectable=0;fillColor=none;top=0;left=0;bottom=0;right=0;align=left;spacingLeft=6;" vertex="1" parent="Xm_AiRq3xBXqMQoTUS5R-593">
          <mxGeometry x="30" width="220" height="40" as="geometry">
            <mxRectangle width="220" height="40" as="alternateBounds" />
          </mxGeometry>
        </mxCell>
        <mxCell id="Xm_AiRq3xBXqMQoTUS5R-596" value="" style="endArrow=none;html=1;rounded=0;entryX=0.119;entryY=0.002;entryDx=0;entryDy=0;entryPerimeter=0;exitX=0.119;exitY=0.993;exitDx=0;exitDy=0;exitPerimeter=0;" edge="1" parent="Xm_AiRq3xBXqMQoTUS5R-593" source="Xm_AiRq3xBXqMQoTUS5R-594" target="Xm_AiRq3xBXqMQoTUS5R-594">
          <mxGeometry width="50" height="50" relative="1" as="geometry">
            <mxPoint x="140" y="80" as="sourcePoint" />
            <mxPoint x="190" y="30" as="targetPoint" />
          </mxGeometry>
        </mxCell>
        <mxCell id="Xm_AiRq3xBXqMQoTUS5R-989" value="" style="group" vertex="1" connectable="0" parent="1">
          <mxGeometry x="1220" y="1040" width="250" height="460" as="geometry" />
        </mxCell>
        <mxCell id="Xm_AiRq3xBXqMQoTUS5R-647" value="" style="group" vertex="1" connectable="0" parent="Xm_AiRq3xBXqMQoTUS5R-989">
          <mxGeometry y="60" width="250" height="40" as="geometry" />
        </mxCell>
        <mxCell id="Xm_AiRq3xBXqMQoTUS5R-648" value="" style="rounded=0;whiteSpace=wrap;html=1;fillColor=none;" vertex="1" parent="Xm_AiRq3xBXqMQoTUS5R-647">
          <mxGeometry width="250" height="40" as="geometry" />
        </mxCell>
        <mxCell id="Xm_AiRq3xBXqMQoTUS5R-649" value="" style="endArrow=none;html=1;rounded=0;entryX=0.119;entryY=0.002;entryDx=0;entryDy=0;entryPerimeter=0;exitX=0.119;exitY=0.993;exitDx=0;exitDy=0;exitPerimeter=0;" edge="1" parent="Xm_AiRq3xBXqMQoTUS5R-647" source="Xm_AiRq3xBXqMQoTUS5R-648" target="Xm_AiRq3xBXqMQoTUS5R-648">
          <mxGeometry width="50" height="50" relative="1" as="geometry">
            <mxPoint x="140" y="80" as="sourcePoint" />
            <mxPoint x="190" y="30" as="targetPoint" />
          </mxGeometry>
        </mxCell>
        <mxCell id="Xm_AiRq3xBXqMQoTUS5R-650" value="Report" style="shape=table;startSize=30;container=1;collapsible=1;childLayout=tableLayout;fixedRows=1;rowLines=0;fontStyle=1;align=center;resizeLast=1;" vertex="1" parent="Xm_AiRq3xBXqMQoTUS5R-989">
          <mxGeometry width="250" height="460" as="geometry" />
        </mxCell>
        <mxCell id="Xm_AiRq3xBXqMQoTUS5R-651" value="" style="shape=partialRectangle;collapsible=0;dropTarget=0;pointerEvents=0;fillColor=none;points=[[0,0.5],[1,0.5]];portConstraint=eastwest;top=0;left=0;right=0;bottom=1;" vertex="1" parent="Xm_AiRq3xBXqMQoTUS5R-650">
          <mxGeometry y="30" width="250" height="30" as="geometry" />
        </mxCell>
        <mxCell id="Xm_AiRq3xBXqMQoTUS5R-652" value="PK" style="shape=partialRectangle;overflow=hidden;connectable=0;fillColor=none;top=0;left=0;bottom=0;right=0;fontStyle=1;" vertex="1" parent="Xm_AiRq3xBXqMQoTUS5R-651">
          <mxGeometry width="30" height="30" as="geometry">
            <mxRectangle width="30" height="30" as="alternateBounds" />
          </mxGeometry>
        </mxCell>
        <mxCell id="Xm_AiRq3xBXqMQoTUS5R-653" value="id String" style="shape=partialRectangle;overflow=hidden;connectable=0;fillColor=none;top=0;left=0;bottom=0;right=0;align=left;spacingLeft=6;fontStyle=1;" vertex="1" parent="Xm_AiRq3xBXqMQoTUS5R-651">
          <mxGeometry x="30" width="220" height="30" as="geometry">
            <mxRectangle width="220" height="30" as="alternateBounds" />
          </mxGeometry>
        </mxCell>
        <mxCell id="Xm_AiRq3xBXqMQoTUS5R-654" value="" style="shape=partialRectangle;collapsible=0;dropTarget=0;pointerEvents=0;fillColor=none;points=[[0,0.5],[1,0.5]];portConstraint=eastwest;top=0;left=0;right=0;bottom=0;" vertex="1" parent="Xm_AiRq3xBXqMQoTUS5R-650">
          <mxGeometry y="60" width="250" height="40" as="geometry" />
        </mxCell>
        <mxCell id="Xm_AiRq3xBXqMQoTUS5R-655" value="" style="shape=partialRectangle;overflow=hidden;connectable=0;fillColor=none;top=0;left=0;bottom=0;right=0;" vertex="1" parent="Xm_AiRq3xBXqMQoTUS5R-654">
          <mxGeometry width="30" height="40" as="geometry">
            <mxRectangle width="30" height="40" as="alternateBounds" />
          </mxGeometry>
        </mxCell>
        <mxCell id="Xm_AiRq3xBXqMQoTUS5R-656" value="name String" style="shape=partialRectangle;overflow=hidden;connectable=0;fillColor=none;top=0;left=0;bottom=0;right=0;align=left;spacingLeft=6;" vertex="1" parent="Xm_AiRq3xBXqMQoTUS5R-654">
          <mxGeometry x="30" width="220" height="40" as="geometry">
            <mxRectangle width="220" height="40" as="alternateBounds" />
          </mxGeometry>
        </mxCell>
        <mxCell id="Xm_AiRq3xBXqMQoTUS5R-657" value="" style="group" vertex="1" connectable="0" parent="Xm_AiRq3xBXqMQoTUS5R-989">
          <mxGeometry y="100" width="250" height="40" as="geometry" />
        </mxCell>
        <mxCell id="Xm_AiRq3xBXqMQoTUS5R-658" value="" style="group" vertex="1" connectable="0" parent="Xm_AiRq3xBXqMQoTUS5R-657">
          <mxGeometry width="250" height="40" as="geometry" />
        </mxCell>
        <mxCell id="Xm_AiRq3xBXqMQoTUS5R-659" value="" style="rounded=0;whiteSpace=wrap;html=1;fillColor=none;" vertex="1" parent="Xm_AiRq3xBXqMQoTUS5R-658">
          <mxGeometry width="250" height="40" as="geometry" />
        </mxCell>
        <mxCell id="Xm_AiRq3xBXqMQoTUS5R-660" value="overallScore Float" style="shape=partialRectangle;overflow=hidden;connectable=0;fillColor=none;top=0;left=0;bottom=0;right=0;align=left;spacingLeft=6;" vertex="1" parent="Xm_AiRq3xBXqMQoTUS5R-658">
          <mxGeometry x="30" width="220" height="40" as="geometry">
            <mxRectangle width="220" height="40" as="alternateBounds" />
          </mxGeometry>
        </mxCell>
        <mxCell id="Xm_AiRq3xBXqMQoTUS5R-661" value="" style="endArrow=none;html=1;rounded=0;entryX=0.119;entryY=0.002;entryDx=0;entryDy=0;entryPerimeter=0;exitX=0.119;exitY=0.993;exitDx=0;exitDy=0;exitPerimeter=0;" edge="1" parent="Xm_AiRq3xBXqMQoTUS5R-658" source="Xm_AiRq3xBXqMQoTUS5R-659" target="Xm_AiRq3xBXqMQoTUS5R-659">
          <mxGeometry width="50" height="50" relative="1" as="geometry">
            <mxPoint x="140" y="80" as="sourcePoint" />
            <mxPoint x="190" y="30" as="targetPoint" />
          </mxGeometry>
        </mxCell>
        <mxCell id="Xm_AiRq3xBXqMQoTUS5R-662" value="" style="group" vertex="1" connectable="0" parent="Xm_AiRq3xBXqMQoTUS5R-989">
          <mxGeometry y="140" width="250" height="40" as="geometry" />
        </mxCell>
        <mxCell id="Xm_AiRq3xBXqMQoTUS5R-663" value="" style="group" vertex="1" connectable="0" parent="Xm_AiRq3xBXqMQoTUS5R-662">
          <mxGeometry width="250" height="40" as="geometry" />
        </mxCell>
        <mxCell id="Xm_AiRq3xBXqMQoTUS5R-664" value="" style="rounded=0;whiteSpace=wrap;html=1;fillColor=none;" vertex="1" parent="Xm_AiRq3xBXqMQoTUS5R-663">
          <mxGeometry width="250" height="40" as="geometry" />
        </mxCell>
        <mxCell id="Xm_AiRq3xBXqMQoTUS5R-665" value="metrics Json" style="shape=partialRectangle;overflow=hidden;connectable=0;fillColor=none;top=0;left=0;bottom=0;right=0;align=left;spacingLeft=6;" vertex="1" parent="Xm_AiRq3xBXqMQoTUS5R-663">
          <mxGeometry x="30" width="220" height="40" as="geometry">
            <mxRectangle width="220" height="40" as="alternateBounds" />
          </mxGeometry>
        </mxCell>
        <mxCell id="Xm_AiRq3xBXqMQoTUS5R-666" value="" style="endArrow=none;html=1;rounded=0;entryX=0.119;entryY=0.002;entryDx=0;entryDy=0;entryPerimeter=0;exitX=0.119;exitY=0.993;exitDx=0;exitDy=0;exitPerimeter=0;" edge="1" parent="Xm_AiRq3xBXqMQoTUS5R-663" source="Xm_AiRq3xBXqMQoTUS5R-664" target="Xm_AiRq3xBXqMQoTUS5R-664">
          <mxGeometry width="50" height="50" relative="1" as="geometry">
            <mxPoint x="140" y="80" as="sourcePoint" />
            <mxPoint x="190" y="30" as="targetPoint" />
          </mxGeometry>
        </mxCell>
        <mxCell id="Xm_AiRq3xBXqMQoTUS5R-667" value="" style="group" vertex="1" connectable="0" parent="Xm_AiRq3xBXqMQoTUS5R-989">
          <mxGeometry y="180" width="250" height="40" as="geometry" />
        </mxCell>
        <mxCell id="Xm_AiRq3xBXqMQoTUS5R-668" value="" style="group" vertex="1" connectable="0" parent="Xm_AiRq3xBXqMQoTUS5R-667">
          <mxGeometry width="250" height="40" as="geometry" />
        </mxCell>
        <mxCell id="Xm_AiRq3xBXqMQoTUS5R-669" value="" style="rounded=0;whiteSpace=wrap;html=1;fillColor=none;" vertex="1" parent="Xm_AiRq3xBXqMQoTUS5R-668">
          <mxGeometry width="250" height="40" as="geometry" />
        </mxCell>
        <mxCell id="Xm_AiRq3xBXqMQoTUS5R-670" value="details Json" style="shape=partialRectangle;overflow=hidden;connectable=0;fillColor=none;top=0;left=0;bottom=0;right=0;align=left;spacingLeft=6;" vertex="1" parent="Xm_AiRq3xBXqMQoTUS5R-668">
          <mxGeometry x="30" width="220" height="40" as="geometry">
            <mxRectangle width="220" height="40" as="alternateBounds" />
          </mxGeometry>
        </mxCell>
        <mxCell id="Xm_AiRq3xBXqMQoTUS5R-671" value="" style="endArrow=none;html=1;rounded=0;entryX=0.119;entryY=0.002;entryDx=0;entryDy=0;entryPerimeter=0;exitX=0.119;exitY=0.993;exitDx=0;exitDy=0;exitPerimeter=0;" edge="1" parent="Xm_AiRq3xBXqMQoTUS5R-668" source="Xm_AiRq3xBXqMQoTUS5R-669" target="Xm_AiRq3xBXqMQoTUS5R-669">
          <mxGeometry width="50" height="50" relative="1" as="geometry">
            <mxPoint x="140" y="80" as="sourcePoint" />
            <mxPoint x="190" y="30" as="targetPoint" />
          </mxGeometry>
        </mxCell>
        <mxCell id="Xm_AiRq3xBXqMQoTUS5R-697" value="" style="group" vertex="1" connectable="0" parent="Xm_AiRq3xBXqMQoTUS5R-989">
          <mxGeometry y="220" width="250" height="40" as="geometry" />
        </mxCell>
        <mxCell id="Xm_AiRq3xBXqMQoTUS5R-698" value="" style="group" vertex="1" connectable="0" parent="Xm_AiRq3xBXqMQoTUS5R-697">
          <mxGeometry width="250" height="40" as="geometry" />
        </mxCell>
        <mxCell id="Xm_AiRq3xBXqMQoTUS5R-699" value="" style="rounded=0;whiteSpace=wrap;html=1;fillColor=none;" vertex="1" parent="Xm_AiRq3xBXqMQoTUS5R-698">
          <mxGeometry width="250" height="40" as="geometry" />
        </mxCell>
        <mxCell id="Xm_AiRq3xBXqMQoTUS5R-700" value="createdAt DateTime" style="shape=partialRectangle;overflow=hidden;connectable=0;fillColor=none;top=0;left=0;bottom=0;right=0;align=left;spacingLeft=6;" vertex="1" parent="Xm_AiRq3xBXqMQoTUS5R-698">
          <mxGeometry x="30" width="220" height="40" as="geometry">
            <mxRectangle width="220" height="40" as="alternateBounds" />
          </mxGeometry>
        </mxCell>
        <mxCell id="Xm_AiRq3xBXqMQoTUS5R-701" value="" style="endArrow=none;html=1;rounded=0;entryX=0.119;entryY=0.002;entryDx=0;entryDy=0;entryPerimeter=0;exitX=0.119;exitY=0.993;exitDx=0;exitDy=0;exitPerimeter=0;" edge="1" parent="Xm_AiRq3xBXqMQoTUS5R-698" source="Xm_AiRq3xBXqMQoTUS5R-699" target="Xm_AiRq3xBXqMQoTUS5R-699">
          <mxGeometry width="50" height="50" relative="1" as="geometry">
            <mxPoint x="140" y="80" as="sourcePoint" />
            <mxPoint x="190" y="30" as="targetPoint" />
          </mxGeometry>
        </mxCell>
        <mxCell id="Xm_AiRq3xBXqMQoTUS5R-702" value="" style="group" vertex="1" connectable="0" parent="Xm_AiRq3xBXqMQoTUS5R-989">
          <mxGeometry y="260" width="250" height="40" as="geometry" />
        </mxCell>
        <mxCell id="Xm_AiRq3xBXqMQoTUS5R-703" value="" style="group" vertex="1" connectable="0" parent="Xm_AiRq3xBXqMQoTUS5R-702">
          <mxGeometry width="250" height="40" as="geometry" />
        </mxCell>
        <mxCell id="Xm_AiRq3xBXqMQoTUS5R-704" value="" style="rounded=0;whiteSpace=wrap;html=1;fillColor=none;" vertex="1" parent="Xm_AiRq3xBXqMQoTUS5R-703">
          <mxGeometry width="250" height="40" as="geometry" />
        </mxCell>
        <mxCell id="Xm_AiRq3xBXqMQoTUS5R-705" value="updatedAt DateTime" style="shape=partialRectangle;overflow=hidden;connectable=0;fillColor=none;top=0;left=0;bottom=0;right=0;align=left;spacingLeft=6;" vertex="1" parent="Xm_AiRq3xBXqMQoTUS5R-703">
          <mxGeometry x="30" width="220" height="40" as="geometry">
            <mxRectangle width="220" height="40" as="alternateBounds" />
          </mxGeometry>
        </mxCell>
        <mxCell id="Xm_AiRq3xBXqMQoTUS5R-706" value="" style="endArrow=none;html=1;rounded=0;entryX=0.119;entryY=0.002;entryDx=0;entryDy=0;entryPerimeter=0;exitX=0.119;exitY=0.993;exitDx=0;exitDy=0;exitPerimeter=0;" edge="1" parent="Xm_AiRq3xBXqMQoTUS5R-703" source="Xm_AiRq3xBXqMQoTUS5R-704" target="Xm_AiRq3xBXqMQoTUS5R-704">
          <mxGeometry width="50" height="50" relative="1" as="geometry">
            <mxPoint x="140" y="80" as="sourcePoint" />
            <mxPoint x="190" y="30" as="targetPoint" />
          </mxGeometry>
        </mxCell>
        <mxCell id="Xm_AiRq3xBXqMQoTUS5R-707" value="" style="group" vertex="1" connectable="0" parent="Xm_AiRq3xBXqMQoTUS5R-989">
          <mxGeometry y="300" width="250" height="40" as="geometry" />
        </mxCell>
        <mxCell id="Xm_AiRq3xBXqMQoTUS5R-708" value="" style="group" vertex="1" connectable="0" parent="Xm_AiRq3xBXqMQoTUS5R-707">
          <mxGeometry width="250" height="40" as="geometry" />
        </mxCell>
        <mxCell id="Xm_AiRq3xBXqMQoTUS5R-709" value="" style="rounded=0;whiteSpace=wrap;html=1;fillColor=none;" vertex="1" parent="Xm_AiRq3xBXqMQoTUS5R-708">
          <mxGeometry width="250" height="40" as="geometry" />
        </mxCell>
        <mxCell id="Xm_AiRq3xBXqMQoTUS5R-710" value="project Project" style="shape=partialRectangle;overflow=hidden;connectable=0;fillColor=none;top=0;left=0;bottom=0;right=0;align=left;spacingLeft=6;" vertex="1" parent="Xm_AiRq3xBXqMQoTUS5R-708">
          <mxGeometry x="30" width="220" height="40" as="geometry">
            <mxRectangle width="220" height="40" as="alternateBounds" />
          </mxGeometry>
        </mxCell>
        <mxCell id="Xm_AiRq3xBXqMQoTUS5R-711" value="" style="endArrow=none;html=1;rounded=0;entryX=0.119;entryY=0.002;entryDx=0;entryDy=0;entryPerimeter=0;exitX=0.119;exitY=0.993;exitDx=0;exitDy=0;exitPerimeter=0;" edge="1" parent="Xm_AiRq3xBXqMQoTUS5R-708" source="Xm_AiRq3xBXqMQoTUS5R-709" target="Xm_AiRq3xBXqMQoTUS5R-709">
          <mxGeometry width="50" height="50" relative="1" as="geometry">
            <mxPoint x="140" y="80" as="sourcePoint" />
            <mxPoint x="190" y="30" as="targetPoint" />
          </mxGeometry>
        </mxCell>
        <mxCell id="Xm_AiRq3xBXqMQoTUS5R-712" value="" style="group" vertex="1" connectable="0" parent="Xm_AiRq3xBXqMQoTUS5R-989">
          <mxGeometry y="340" width="250" height="40" as="geometry" />
        </mxCell>
        <mxCell id="Xm_AiRq3xBXqMQoTUS5R-713" value="" style="group" vertex="1" connectable="0" parent="Xm_AiRq3xBXqMQoTUS5R-712">
          <mxGeometry width="250" height="40" as="geometry" />
        </mxCell>
        <mxCell id="Xm_AiRq3xBXqMQoTUS5R-714" value="" style="rounded=0;whiteSpace=wrap;html=1;fillColor=none;" vertex="1" parent="Xm_AiRq3xBXqMQoTUS5R-713">
          <mxGeometry width="250" height="40" as="geometry" />
        </mxCell>
        <mxCell id="Xm_AiRq3xBXqMQoTUS5R-715" value="projectId String" style="shape=partialRectangle;overflow=hidden;connectable=0;fillColor=none;top=0;left=0;bottom=0;right=0;align=left;spacingLeft=6;" vertex="1" parent="Xm_AiRq3xBXqMQoTUS5R-713">
          <mxGeometry x="30" width="220" height="40" as="geometry">
            <mxRectangle width="220" height="40" as="alternateBounds" />
          </mxGeometry>
        </mxCell>
        <mxCell id="Xm_AiRq3xBXqMQoTUS5R-716" value="" style="endArrow=none;html=1;rounded=0;entryX=0.119;entryY=0.002;entryDx=0;entryDy=0;entryPerimeter=0;exitX=0.119;exitY=0.993;exitDx=0;exitDy=0;exitPerimeter=0;" edge="1" parent="Xm_AiRq3xBXqMQoTUS5R-713" source="Xm_AiRq3xBXqMQoTUS5R-714" target="Xm_AiRq3xBXqMQoTUS5R-714">
          <mxGeometry width="50" height="50" relative="1" as="geometry">
            <mxPoint x="140" y="80" as="sourcePoint" />
            <mxPoint x="190" y="30" as="targetPoint" />
          </mxGeometry>
        </mxCell>
        <mxCell id="Xm_AiRq3xBXqMQoTUS5R-717" value="" style="group" vertex="1" connectable="0" parent="Xm_AiRq3xBXqMQoTUS5R-989">
          <mxGeometry y="380" width="250" height="40" as="geometry" />
        </mxCell>
        <mxCell id="Xm_AiRq3xBXqMQoTUS5R-718" value="" style="group" vertex="1" connectable="0" parent="Xm_AiRq3xBXqMQoTUS5R-717">
          <mxGeometry width="250" height="40" as="geometry" />
        </mxCell>
        <mxCell id="Xm_AiRq3xBXqMQoTUS5R-719" value="" style="rounded=0;whiteSpace=wrap;html=1;fillColor=none;" vertex="1" parent="Xm_AiRq3xBXqMQoTUS5R-718">
          <mxGeometry width="250" height="40" as="geometry" />
        </mxCell>
        <mxCell id="Xm_AiRq3xBXqMQoTUS5R-720" value="workflow Workflow" style="shape=partialRectangle;overflow=hidden;connectable=0;fillColor=none;top=0;left=0;bottom=0;right=0;align=left;spacingLeft=6;" vertex="1" parent="Xm_AiRq3xBXqMQoTUS5R-718">
          <mxGeometry x="30" width="220" height="40" as="geometry">
            <mxRectangle width="220" height="40" as="alternateBounds" />
          </mxGeometry>
        </mxCell>
        <mxCell id="Xm_AiRq3xBXqMQoTUS5R-721" value="" style="endArrow=none;html=1;rounded=0;entryX=0.119;entryY=0.002;entryDx=0;entryDy=0;entryPerimeter=0;exitX=0.119;exitY=0.993;exitDx=0;exitDy=0;exitPerimeter=0;" edge="1" parent="Xm_AiRq3xBXqMQoTUS5R-718" source="Xm_AiRq3xBXqMQoTUS5R-719" target="Xm_AiRq3xBXqMQoTUS5R-719">
          <mxGeometry width="50" height="50" relative="1" as="geometry">
            <mxPoint x="140" y="80" as="sourcePoint" />
            <mxPoint x="190" y="30" as="targetPoint" />
          </mxGeometry>
        </mxCell>
        <mxCell id="Xm_AiRq3xBXqMQoTUS5R-1051" value="FK" style="shape=partialRectangle;overflow=hidden;connectable=0;fillColor=none;top=0;left=0;bottom=0;right=0;" vertex="1" parent="Xm_AiRq3xBXqMQoTUS5R-718">
          <mxGeometry y="-40" width="30" height="40" as="geometry">
            <mxRectangle width="30" height="40" as="alternateBounds" />
          </mxGeometry>
        </mxCell>
        <mxCell id="Xm_AiRq3xBXqMQoTUS5R-722" value="" style="group" vertex="1" connectable="0" parent="Xm_AiRq3xBXqMQoTUS5R-989">
          <mxGeometry y="420" width="250" height="40" as="geometry" />
        </mxCell>
        <mxCell id="Xm_AiRq3xBXqMQoTUS5R-723" value="" style="group" vertex="1" connectable="0" parent="Xm_AiRq3xBXqMQoTUS5R-722">
          <mxGeometry width="250" height="40" as="geometry" />
        </mxCell>
        <mxCell id="Xm_AiRq3xBXqMQoTUS5R-724" value="" style="rounded=0;whiteSpace=wrap;html=1;fillColor=none;" vertex="1" parent="Xm_AiRq3xBXqMQoTUS5R-723">
          <mxGeometry width="250" height="40" as="geometry" />
        </mxCell>
        <mxCell id="Xm_AiRq3xBXqMQoTUS5R-725" value="workflowId String" style="shape=partialRectangle;overflow=hidden;connectable=0;fillColor=none;top=0;left=0;bottom=0;right=0;align=left;spacingLeft=6;" vertex="1" parent="Xm_AiRq3xBXqMQoTUS5R-723">
          <mxGeometry x="30" width="220" height="40" as="geometry">
            <mxRectangle width="220" height="40" as="alternateBounds" />
          </mxGeometry>
        </mxCell>
        <mxCell id="Xm_AiRq3xBXqMQoTUS5R-726" value="" style="endArrow=none;html=1;rounded=0;entryX=0.119;entryY=0.002;entryDx=0;entryDy=0;entryPerimeter=0;exitX=0.119;exitY=0.993;exitDx=0;exitDy=0;exitPerimeter=0;" edge="1" parent="Xm_AiRq3xBXqMQoTUS5R-723" source="Xm_AiRq3xBXqMQoTUS5R-724" target="Xm_AiRq3xBXqMQoTUS5R-724">
          <mxGeometry width="50" height="50" relative="1" as="geometry">
            <mxPoint x="140" y="80" as="sourcePoint" />
            <mxPoint x="190" y="30" as="targetPoint" />
          </mxGeometry>
        </mxCell>
        <mxCell id="Xm_AiRq3xBXqMQoTUS5R-1052" value="FK" style="shape=partialRectangle;overflow=hidden;connectable=0;fillColor=none;top=0;left=0;bottom=0;right=0;" vertex="1" parent="Xm_AiRq3xBXqMQoTUS5R-723">
          <mxGeometry width="30" height="40" as="geometry">
            <mxRectangle width="30" height="40" as="alternateBounds" />
          </mxGeometry>
        </mxCell>
        <mxCell id="Xm_AiRq3xBXqMQoTUS5R-990" value="" style="group" vertex="1" connectable="0" parent="1">
          <mxGeometry x="670" y="90" width="250" height="340" as="geometry" />
        </mxCell>
        <mxCell id="Xm_AiRq3xBXqMQoTUS5R-727" value="" style="group" vertex="1" connectable="0" parent="Xm_AiRq3xBXqMQoTUS5R-990">
          <mxGeometry y="60" width="250" height="40" as="geometry" />
        </mxCell>
        <mxCell id="Xm_AiRq3xBXqMQoTUS5R-728" value="" style="rounded=0;whiteSpace=wrap;html=1;fillColor=none;" vertex="1" parent="Xm_AiRq3xBXqMQoTUS5R-727">
          <mxGeometry width="250" height="40" as="geometry" />
        </mxCell>
        <mxCell id="Xm_AiRq3xBXqMQoTUS5R-729" value="" style="endArrow=none;html=1;rounded=0;entryX=0.119;entryY=0.002;entryDx=0;entryDy=0;entryPerimeter=0;exitX=0.119;exitY=0.993;exitDx=0;exitDy=0;exitPerimeter=0;" edge="1" parent="Xm_AiRq3xBXqMQoTUS5R-727" source="Xm_AiRq3xBXqMQoTUS5R-728" target="Xm_AiRq3xBXqMQoTUS5R-728">
          <mxGeometry width="50" height="50" relative="1" as="geometry">
            <mxPoint x="140" y="80" as="sourcePoint" />
            <mxPoint x="190" y="30" as="targetPoint" />
          </mxGeometry>
        </mxCell>
        <mxCell id="Xm_AiRq3xBXqMQoTUS5R-730" value="Team" style="shape=table;startSize=30;container=1;collapsible=1;childLayout=tableLayout;fixedRows=1;rowLines=0;fontStyle=1;align=center;resizeLast=1;" vertex="1" parent="Xm_AiRq3xBXqMQoTUS5R-990">
          <mxGeometry width="250" height="340" as="geometry" />
        </mxCell>
        <mxCell id="Xm_AiRq3xBXqMQoTUS5R-731" value="" style="shape=partialRectangle;collapsible=0;dropTarget=0;pointerEvents=0;fillColor=none;points=[[0,0.5],[1,0.5]];portConstraint=eastwest;top=0;left=0;right=0;bottom=1;" vertex="1" parent="Xm_AiRq3xBXqMQoTUS5R-730">
          <mxGeometry y="30" width="250" height="30" as="geometry" />
        </mxCell>
        <mxCell id="Xm_AiRq3xBXqMQoTUS5R-732" value="PK" style="shape=partialRectangle;overflow=hidden;connectable=0;fillColor=none;top=0;left=0;bottom=0;right=0;fontStyle=1;" vertex="1" parent="Xm_AiRq3xBXqMQoTUS5R-731">
          <mxGeometry width="30" height="30" as="geometry">
            <mxRectangle width="30" height="30" as="alternateBounds" />
          </mxGeometry>
        </mxCell>
        <mxCell id="Xm_AiRq3xBXqMQoTUS5R-733" value="id String" style="shape=partialRectangle;overflow=hidden;connectable=0;fillColor=none;top=0;left=0;bottom=0;right=0;align=left;spacingLeft=6;fontStyle=1;" vertex="1" parent="Xm_AiRq3xBXqMQoTUS5R-731">
          <mxGeometry x="30" width="220" height="30" as="geometry">
            <mxRectangle width="220" height="30" as="alternateBounds" />
          </mxGeometry>
        </mxCell>
        <mxCell id="Xm_AiRq3xBXqMQoTUS5R-734" value="" style="shape=partialRectangle;collapsible=0;dropTarget=0;pointerEvents=0;fillColor=none;points=[[0,0.5],[1,0.5]];portConstraint=eastwest;top=0;left=0;right=0;bottom=0;" vertex="1" parent="Xm_AiRq3xBXqMQoTUS5R-730">
          <mxGeometry y="60" width="250" height="40" as="geometry" />
        </mxCell>
        <mxCell id="Xm_AiRq3xBXqMQoTUS5R-735" value="" style="shape=partialRectangle;overflow=hidden;connectable=0;fillColor=none;top=0;left=0;bottom=0;right=0;" vertex="1" parent="Xm_AiRq3xBXqMQoTUS5R-734">
          <mxGeometry width="30" height="40" as="geometry">
            <mxRectangle width="30" height="40" as="alternateBounds" />
          </mxGeometry>
        </mxCell>
        <mxCell id="Xm_AiRq3xBXqMQoTUS5R-736" value="name String" style="shape=partialRectangle;overflow=hidden;connectable=0;fillColor=none;top=0;left=0;bottom=0;right=0;align=left;spacingLeft=6;" vertex="1" parent="Xm_AiRq3xBXqMQoTUS5R-734">
          <mxGeometry x="30" width="220" height="40" as="geometry">
            <mxRectangle width="220" height="40" as="alternateBounds" />
          </mxGeometry>
        </mxCell>
        <mxCell id="Xm_AiRq3xBXqMQoTUS5R-737" value="" style="group" vertex="1" connectable="0" parent="Xm_AiRq3xBXqMQoTUS5R-990">
          <mxGeometry y="100" width="250" height="40" as="geometry" />
        </mxCell>
        <mxCell id="Xm_AiRq3xBXqMQoTUS5R-738" value="" style="group" vertex="1" connectable="0" parent="Xm_AiRq3xBXqMQoTUS5R-737">
          <mxGeometry width="250" height="40" as="geometry" />
        </mxCell>
        <mxCell id="Xm_AiRq3xBXqMQoTUS5R-739" value="" style="rounded=0;whiteSpace=wrap;html=1;fillColor=none;" vertex="1" parent="Xm_AiRq3xBXqMQoTUS5R-738">
          <mxGeometry width="250" height="40" as="geometry" />
        </mxCell>
        <mxCell id="Xm_AiRq3xBXqMQoTUS5R-740" value="description String" style="shape=partialRectangle;overflow=hidden;connectable=0;fillColor=none;top=0;left=0;bottom=0;right=0;align=left;spacingLeft=6;" vertex="1" parent="Xm_AiRq3xBXqMQoTUS5R-738">
          <mxGeometry x="30" width="220" height="40" as="geometry">
            <mxRectangle width="220" height="40" as="alternateBounds" />
          </mxGeometry>
        </mxCell>
        <mxCell id="Xm_AiRq3xBXqMQoTUS5R-741" value="" style="endArrow=none;html=1;rounded=0;entryX=0.119;entryY=0.002;entryDx=0;entryDy=0;entryPerimeter=0;exitX=0.119;exitY=0.993;exitDx=0;exitDy=0;exitPerimeter=0;" edge="1" parent="Xm_AiRq3xBXqMQoTUS5R-738" source="Xm_AiRq3xBXqMQoTUS5R-739" target="Xm_AiRq3xBXqMQoTUS5R-739">
          <mxGeometry width="50" height="50" relative="1" as="geometry">
            <mxPoint x="140" y="80" as="sourcePoint" />
            <mxPoint x="190" y="30" as="targetPoint" />
          </mxGeometry>
        </mxCell>
        <mxCell id="Xm_AiRq3xBXqMQoTUS5R-742" value="" style="group" vertex="1" connectable="0" parent="Xm_AiRq3xBXqMQoTUS5R-990">
          <mxGeometry y="140" width="250" height="40" as="geometry" />
        </mxCell>
        <mxCell id="Xm_AiRq3xBXqMQoTUS5R-743" value="" style="group" vertex="1" connectable="0" parent="Xm_AiRq3xBXqMQoTUS5R-742">
          <mxGeometry width="250" height="40" as="geometry" />
        </mxCell>
        <mxCell id="Xm_AiRq3xBXqMQoTUS5R-744" value="" style="rounded=0;whiteSpace=wrap;html=1;fillColor=none;" vertex="1" parent="Xm_AiRq3xBXqMQoTUS5R-743">
          <mxGeometry width="250" height="40" as="geometry" />
        </mxCell>
        <mxCell id="Xm_AiRq3xBXqMQoTUS5R-745" value="createdAt DateTime" style="shape=partialRectangle;overflow=hidden;connectable=0;fillColor=none;top=0;left=0;bottom=0;right=0;align=left;spacingLeft=6;" vertex="1" parent="Xm_AiRq3xBXqMQoTUS5R-743">
          <mxGeometry x="30" width="220" height="40" as="geometry">
            <mxRectangle width="220" height="40" as="alternateBounds" />
          </mxGeometry>
        </mxCell>
        <mxCell id="Xm_AiRq3xBXqMQoTUS5R-746" value="" style="endArrow=none;html=1;rounded=0;entryX=0.119;entryY=0.002;entryDx=0;entryDy=0;entryPerimeter=0;exitX=0.119;exitY=0.993;exitDx=0;exitDy=0;exitPerimeter=0;" edge="1" parent="Xm_AiRq3xBXqMQoTUS5R-743" source="Xm_AiRq3xBXqMQoTUS5R-744" target="Xm_AiRq3xBXqMQoTUS5R-744">
          <mxGeometry width="50" height="50" relative="1" as="geometry">
            <mxPoint x="140" y="80" as="sourcePoint" />
            <mxPoint x="190" y="30" as="targetPoint" />
          </mxGeometry>
        </mxCell>
        <mxCell id="Xm_AiRq3xBXqMQoTUS5R-747" value="" style="group" vertex="1" connectable="0" parent="Xm_AiRq3xBXqMQoTUS5R-990">
          <mxGeometry y="180" width="250" height="40" as="geometry" />
        </mxCell>
        <mxCell id="Xm_AiRq3xBXqMQoTUS5R-748" value="" style="group" vertex="1" connectable="0" parent="Xm_AiRq3xBXqMQoTUS5R-747">
          <mxGeometry width="250" height="40" as="geometry" />
        </mxCell>
        <mxCell id="Xm_AiRq3xBXqMQoTUS5R-749" value="" style="rounded=0;whiteSpace=wrap;html=1;fillColor=none;" vertex="1" parent="Xm_AiRq3xBXqMQoTUS5R-748">
          <mxGeometry width="250" height="40" as="geometry" />
        </mxCell>
        <mxCell id="Xm_AiRq3xBXqMQoTUS5R-750" value="updatedAt DateTime" style="shape=partialRectangle;overflow=hidden;connectable=0;fillColor=none;top=0;left=0;bottom=0;right=0;align=left;spacingLeft=6;" vertex="1" parent="Xm_AiRq3xBXqMQoTUS5R-748">
          <mxGeometry x="30" width="220" height="40" as="geometry">
            <mxRectangle width="220" height="40" as="alternateBounds" />
          </mxGeometry>
        </mxCell>
        <mxCell id="Xm_AiRq3xBXqMQoTUS5R-751" value="" style="endArrow=none;html=1;rounded=0;entryX=0.119;entryY=0.002;entryDx=0;entryDy=0;entryPerimeter=0;exitX=0.119;exitY=0.993;exitDx=0;exitDy=0;exitPerimeter=0;" edge="1" parent="Xm_AiRq3xBXqMQoTUS5R-748" source="Xm_AiRq3xBXqMQoTUS5R-749" target="Xm_AiRq3xBXqMQoTUS5R-749">
          <mxGeometry width="50" height="50" relative="1" as="geometry">
            <mxPoint x="140" y="80" as="sourcePoint" />
            <mxPoint x="190" y="30" as="targetPoint" />
          </mxGeometry>
        </mxCell>
        <mxCell id="Xm_AiRq3xBXqMQoTUS5R-752" value="" style="group" vertex="1" connectable="0" parent="Xm_AiRq3xBXqMQoTUS5R-990">
          <mxGeometry y="300" width="250" height="40" as="geometry" />
        </mxCell>
        <mxCell id="Xm_AiRq3xBXqMQoTUS5R-753" value="" style="group" vertex="1" connectable="0" parent="Xm_AiRq3xBXqMQoTUS5R-752">
          <mxGeometry width="250" height="40" as="geometry" />
        </mxCell>
        <mxCell id="Xm_AiRq3xBXqMQoTUS5R-754" value="" style="rounded=0;whiteSpace=wrap;html=1;fillColor=none;" vertex="1" parent="Xm_AiRq3xBXqMQoTUS5R-753">
          <mxGeometry width="250" height="40" as="geometry" />
        </mxCell>
        <mxCell id="Xm_AiRq3xBXqMQoTUS5R-755" value="posts TeamPost" style="shape=partialRectangle;overflow=hidden;connectable=0;fillColor=none;top=0;left=0;bottom=0;right=0;align=left;spacingLeft=6;" vertex="1" parent="Xm_AiRq3xBXqMQoTUS5R-753">
          <mxGeometry x="30" width="220" height="40" as="geometry">
            <mxRectangle width="220" height="40" as="alternateBounds" />
          </mxGeometry>
        </mxCell>
        <mxCell id="Xm_AiRq3xBXqMQoTUS5R-756" value="" style="endArrow=none;html=1;rounded=0;entryX=0.119;entryY=0.002;entryDx=0;entryDy=0;entryPerimeter=0;exitX=0.119;exitY=0.993;exitDx=0;exitDy=0;exitPerimeter=0;" edge="1" parent="Xm_AiRq3xBXqMQoTUS5R-753" source="Xm_AiRq3xBXqMQoTUS5R-754" target="Xm_AiRq3xBXqMQoTUS5R-754">
          <mxGeometry width="50" height="50" relative="1" as="geometry">
            <mxPoint x="140" y="80" as="sourcePoint" />
            <mxPoint x="190" y="30" as="targetPoint" />
          </mxGeometry>
        </mxCell>
        <mxCell id="Xm_AiRq3xBXqMQoTUS5R-767" value="" style="group" vertex="1" connectable="0" parent="Xm_AiRq3xBXqMQoTUS5R-990">
          <mxGeometry y="220" width="250" height="40" as="geometry" />
        </mxCell>
        <mxCell id="Xm_AiRq3xBXqMQoTUS5R-768" value="" style="group" vertex="1" connectable="0" parent="Xm_AiRq3xBXqMQoTUS5R-767">
          <mxGeometry width="250" height="40" as="geometry" />
        </mxCell>
        <mxCell id="Xm_AiRq3xBXqMQoTUS5R-769" value="" style="rounded=0;whiteSpace=wrap;html=1;fillColor=none;" vertex="1" parent="Xm_AiRq3xBXqMQoTUS5R-768">
          <mxGeometry width="250" height="40" as="geometry" />
        </mxCell>
        <mxCell id="Xm_AiRq3xBXqMQoTUS5R-770" value="members TeamMember" style="shape=partialRectangle;overflow=hidden;connectable=0;fillColor=none;top=0;left=0;bottom=0;right=0;align=left;spacingLeft=6;" vertex="1" parent="Xm_AiRq3xBXqMQoTUS5R-768">
          <mxGeometry x="30" width="220" height="40" as="geometry">
            <mxRectangle width="220" height="40" as="alternateBounds" />
          </mxGeometry>
        </mxCell>
        <mxCell id="Xm_AiRq3xBXqMQoTUS5R-771" value="" style="endArrow=none;html=1;rounded=0;entryX=0.119;entryY=0.002;entryDx=0;entryDy=0;entryPerimeter=0;exitX=0.119;exitY=0.993;exitDx=0;exitDy=0;exitPerimeter=0;" edge="1" parent="Xm_AiRq3xBXqMQoTUS5R-768" source="Xm_AiRq3xBXqMQoTUS5R-769" target="Xm_AiRq3xBXqMQoTUS5R-769">
          <mxGeometry width="50" height="50" relative="1" as="geometry">
            <mxPoint x="140" y="80" as="sourcePoint" />
            <mxPoint x="190" y="30" as="targetPoint" />
          </mxGeometry>
        </mxCell>
        <mxCell id="Xm_AiRq3xBXqMQoTUS5R-772" value="" style="group" vertex="1" connectable="0" parent="Xm_AiRq3xBXqMQoTUS5R-990">
          <mxGeometry y="260" width="250" height="40" as="geometry" />
        </mxCell>
        <mxCell id="Xm_AiRq3xBXqMQoTUS5R-773" value="" style="group" vertex="1" connectable="0" parent="Xm_AiRq3xBXqMQoTUS5R-772">
          <mxGeometry width="250" height="40" as="geometry" />
        </mxCell>
        <mxCell id="Xm_AiRq3xBXqMQoTUS5R-774" value="" style="rounded=0;whiteSpace=wrap;html=1;fillColor=none;" vertex="1" parent="Xm_AiRq3xBXqMQoTUS5R-773">
          <mxGeometry width="250" height="40" as="geometry" />
        </mxCell>
        <mxCell id="Xm_AiRq3xBXqMQoTUS5R-775" value="projects Project" style="shape=partialRectangle;overflow=hidden;connectable=0;fillColor=none;top=0;left=0;bottom=0;right=0;align=left;spacingLeft=6;" vertex="1" parent="Xm_AiRq3xBXqMQoTUS5R-773">
          <mxGeometry x="30" width="220" height="40" as="geometry">
            <mxRectangle width="220" height="40" as="alternateBounds" />
          </mxGeometry>
        </mxCell>
        <mxCell id="Xm_AiRq3xBXqMQoTUS5R-776" value="" style="endArrow=none;html=1;rounded=0;entryX=0.119;entryY=0.002;entryDx=0;entryDy=0;entryPerimeter=0;exitX=0.119;exitY=0.993;exitDx=0;exitDy=0;exitPerimeter=0;" edge="1" parent="Xm_AiRq3xBXqMQoTUS5R-773" source="Xm_AiRq3xBXqMQoTUS5R-774" target="Xm_AiRq3xBXqMQoTUS5R-774">
          <mxGeometry width="50" height="50" relative="1" as="geometry">
            <mxPoint x="140" y="80" as="sourcePoint" />
            <mxPoint x="190" y="30" as="targetPoint" />
          </mxGeometry>
        </mxCell>
        <mxCell id="Xm_AiRq3xBXqMQoTUS5R-991" value="" style="group" vertex="1" connectable="0" parent="1">
          <mxGeometry x="1025" y="90" width="250" height="380" as="geometry" />
        </mxCell>
        <mxCell id="Xm_AiRq3xBXqMQoTUS5R-792" value="" style="group" vertex="1" connectable="0" parent="Xm_AiRq3xBXqMQoTUS5R-991">
          <mxGeometry y="60" width="250" height="40" as="geometry" />
        </mxCell>
        <mxCell id="Xm_AiRq3xBXqMQoTUS5R-793" value="" style="rounded=0;whiteSpace=wrap;html=1;fillColor=none;" vertex="1" parent="Xm_AiRq3xBXqMQoTUS5R-792">
          <mxGeometry width="250" height="40" as="geometry" />
        </mxCell>
        <mxCell id="Xm_AiRq3xBXqMQoTUS5R-794" value="" style="endArrow=none;html=1;rounded=0;entryX=0.119;entryY=0.002;entryDx=0;entryDy=0;entryPerimeter=0;exitX=0.119;exitY=0.993;exitDx=0;exitDy=0;exitPerimeter=0;" edge="1" parent="Xm_AiRq3xBXqMQoTUS5R-792" source="Xm_AiRq3xBXqMQoTUS5R-793" target="Xm_AiRq3xBXqMQoTUS5R-793">
          <mxGeometry width="50" height="50" relative="1" as="geometry">
            <mxPoint x="140" y="80" as="sourcePoint" />
            <mxPoint x="190" y="30" as="targetPoint" />
          </mxGeometry>
        </mxCell>
        <mxCell id="Xm_AiRq3xBXqMQoTUS5R-795" value="TeamPost" style="shape=table;startSize=30;container=1;collapsible=1;childLayout=tableLayout;fixedRows=1;rowLines=0;fontStyle=1;align=center;resizeLast=1;" vertex="1" parent="Xm_AiRq3xBXqMQoTUS5R-991">
          <mxGeometry width="250" height="380" as="geometry" />
        </mxCell>
        <mxCell id="Xm_AiRq3xBXqMQoTUS5R-796" value="" style="shape=partialRectangle;collapsible=0;dropTarget=0;pointerEvents=0;fillColor=none;points=[[0,0.5],[1,0.5]];portConstraint=eastwest;top=0;left=0;right=0;bottom=1;" vertex="1" parent="Xm_AiRq3xBXqMQoTUS5R-795">
          <mxGeometry y="30" width="250" height="30" as="geometry" />
        </mxCell>
        <mxCell id="Xm_AiRq3xBXqMQoTUS5R-797" value="PK" style="shape=partialRectangle;overflow=hidden;connectable=0;fillColor=none;top=0;left=0;bottom=0;right=0;fontStyle=1;" vertex="1" parent="Xm_AiRq3xBXqMQoTUS5R-796">
          <mxGeometry width="30" height="30" as="geometry">
            <mxRectangle width="30" height="30" as="alternateBounds" />
          </mxGeometry>
        </mxCell>
        <mxCell id="Xm_AiRq3xBXqMQoTUS5R-798" value="id String" style="shape=partialRectangle;overflow=hidden;connectable=0;fillColor=none;top=0;left=0;bottom=0;right=0;align=left;spacingLeft=6;fontStyle=1;" vertex="1" parent="Xm_AiRq3xBXqMQoTUS5R-796">
          <mxGeometry x="30" width="220" height="30" as="geometry">
            <mxRectangle width="220" height="30" as="alternateBounds" />
          </mxGeometry>
        </mxCell>
        <mxCell id="Xm_AiRq3xBXqMQoTUS5R-799" value="" style="shape=partialRectangle;collapsible=0;dropTarget=0;pointerEvents=0;fillColor=none;points=[[0,0.5],[1,0.5]];portConstraint=eastwest;top=0;left=0;right=0;bottom=0;" vertex="1" parent="Xm_AiRq3xBXqMQoTUS5R-795">
          <mxGeometry y="60" width="250" height="40" as="geometry" />
        </mxCell>
        <mxCell id="Xm_AiRq3xBXqMQoTUS5R-800" value="" style="shape=partialRectangle;overflow=hidden;connectable=0;fillColor=none;top=0;left=0;bottom=0;right=0;" vertex="1" parent="Xm_AiRq3xBXqMQoTUS5R-799">
          <mxGeometry width="30" height="40" as="geometry">
            <mxRectangle width="30" height="40" as="alternateBounds" />
          </mxGeometry>
        </mxCell>
        <mxCell id="Xm_AiRq3xBXqMQoTUS5R-801" value="content String" style="shape=partialRectangle;overflow=hidden;connectable=0;fillColor=none;top=0;left=0;bottom=0;right=0;align=left;spacingLeft=6;" vertex="1" parent="Xm_AiRq3xBXqMQoTUS5R-799">
          <mxGeometry x="30" width="220" height="40" as="geometry">
            <mxRectangle width="220" height="40" as="alternateBounds" />
          </mxGeometry>
        </mxCell>
        <mxCell id="Xm_AiRq3xBXqMQoTUS5R-807" value="" style="group" vertex="1" connectable="0" parent="Xm_AiRq3xBXqMQoTUS5R-991">
          <mxGeometry y="100" width="250" height="40" as="geometry" />
        </mxCell>
        <mxCell id="Xm_AiRq3xBXqMQoTUS5R-808" value="" style="group" vertex="1" connectable="0" parent="Xm_AiRq3xBXqMQoTUS5R-807">
          <mxGeometry width="250" height="40" as="geometry" />
        </mxCell>
        <mxCell id="Xm_AiRq3xBXqMQoTUS5R-809" value="" style="rounded=0;whiteSpace=wrap;html=1;fillColor=none;" vertex="1" parent="Xm_AiRq3xBXqMQoTUS5R-808">
          <mxGeometry width="250" height="40" as="geometry" />
        </mxCell>
        <mxCell id="Xm_AiRq3xBXqMQoTUS5R-810" value="createdAt DateTime" style="shape=partialRectangle;overflow=hidden;connectable=0;fillColor=none;top=0;left=0;bottom=0;right=0;align=left;spacingLeft=6;" vertex="1" parent="Xm_AiRq3xBXqMQoTUS5R-808">
          <mxGeometry x="30" width="220" height="40" as="geometry">
            <mxRectangle width="220" height="40" as="alternateBounds" />
          </mxGeometry>
        </mxCell>
        <mxCell id="Xm_AiRq3xBXqMQoTUS5R-811" value="" style="endArrow=none;html=1;rounded=0;entryX=0.119;entryY=0.002;entryDx=0;entryDy=0;entryPerimeter=0;exitX=0.119;exitY=0.993;exitDx=0;exitDy=0;exitPerimeter=0;" edge="1" parent="Xm_AiRq3xBXqMQoTUS5R-808" source="Xm_AiRq3xBXqMQoTUS5R-809" target="Xm_AiRq3xBXqMQoTUS5R-809">
          <mxGeometry width="50" height="50" relative="1" as="geometry">
            <mxPoint x="140" y="80" as="sourcePoint" />
            <mxPoint x="190" y="30" as="targetPoint" />
          </mxGeometry>
        </mxCell>
        <mxCell id="Xm_AiRq3xBXqMQoTUS5R-812" value="" style="group" vertex="1" connectable="0" parent="Xm_AiRq3xBXqMQoTUS5R-991">
          <mxGeometry y="140" width="250" height="40" as="geometry" />
        </mxCell>
        <mxCell id="Xm_AiRq3xBXqMQoTUS5R-813" value="" style="group" vertex="1" connectable="0" parent="Xm_AiRq3xBXqMQoTUS5R-812">
          <mxGeometry width="250" height="40" as="geometry" />
        </mxCell>
        <mxCell id="Xm_AiRq3xBXqMQoTUS5R-814" value="" style="rounded=0;whiteSpace=wrap;html=1;fillColor=none;" vertex="1" parent="Xm_AiRq3xBXqMQoTUS5R-813">
          <mxGeometry width="250" height="40" as="geometry" />
        </mxCell>
        <mxCell id="Xm_AiRq3xBXqMQoTUS5R-815" value="updatedAt DateTime" style="shape=partialRectangle;overflow=hidden;connectable=0;fillColor=none;top=0;left=0;bottom=0;right=0;align=left;spacingLeft=6;" vertex="1" parent="Xm_AiRq3xBXqMQoTUS5R-813">
          <mxGeometry x="30" width="220" height="40" as="geometry">
            <mxRectangle width="220" height="40" as="alternateBounds" />
          </mxGeometry>
        </mxCell>
        <mxCell id="Xm_AiRq3xBXqMQoTUS5R-816" value="" style="endArrow=none;html=1;rounded=0;entryX=0.119;entryY=0.002;entryDx=0;entryDy=0;entryPerimeter=0;exitX=0.119;exitY=0.993;exitDx=0;exitDy=0;exitPerimeter=0;" edge="1" parent="Xm_AiRq3xBXqMQoTUS5R-813" source="Xm_AiRq3xBXqMQoTUS5R-814" target="Xm_AiRq3xBXqMQoTUS5R-814">
          <mxGeometry width="50" height="50" relative="1" as="geometry">
            <mxPoint x="140" y="80" as="sourcePoint" />
            <mxPoint x="190" y="30" as="targetPoint" />
          </mxGeometry>
        </mxCell>
        <mxCell id="Xm_AiRq3xBXqMQoTUS5R-817" value="" style="group" vertex="1" connectable="0" parent="Xm_AiRq3xBXqMQoTUS5R-991">
          <mxGeometry y="300" width="250" height="40" as="geometry" />
        </mxCell>
        <mxCell id="Xm_AiRq3xBXqMQoTUS5R-818" value="" style="group" vertex="1" connectable="0" parent="Xm_AiRq3xBXqMQoTUS5R-817">
          <mxGeometry width="250" height="40" as="geometry" />
        </mxCell>
        <mxCell id="Xm_AiRq3xBXqMQoTUS5R-819" value="" style="rounded=0;whiteSpace=wrap;html=1;fillColor=none;" vertex="1" parent="Xm_AiRq3xBXqMQoTUS5R-818">
          <mxGeometry width="250" height="40" as="geometry" />
        </mxCell>
        <mxCell id="Xm_AiRq3xBXqMQoTUS5R-820" value="teamId String" style="shape=partialRectangle;overflow=hidden;connectable=0;fillColor=none;top=0;left=0;bottom=0;right=0;align=left;spacingLeft=6;" vertex="1" parent="Xm_AiRq3xBXqMQoTUS5R-818">
          <mxGeometry x="30" width="220" height="40" as="geometry">
            <mxRectangle width="220" height="40" as="alternateBounds" />
          </mxGeometry>
        </mxCell>
        <mxCell id="Xm_AiRq3xBXqMQoTUS5R-821" value="" style="endArrow=none;html=1;rounded=0;entryX=0.119;entryY=0.002;entryDx=0;entryDy=0;entryPerimeter=0;exitX=0.119;exitY=0.993;exitDx=0;exitDy=0;exitPerimeter=0;" edge="1" parent="Xm_AiRq3xBXqMQoTUS5R-818" source="Xm_AiRq3xBXqMQoTUS5R-819" target="Xm_AiRq3xBXqMQoTUS5R-819">
          <mxGeometry width="50" height="50" relative="1" as="geometry">
            <mxPoint x="140" y="80" as="sourcePoint" />
            <mxPoint x="190" y="30" as="targetPoint" />
          </mxGeometry>
        </mxCell>
        <mxCell id="Xm_AiRq3xBXqMQoTUS5R-822" value="" style="group" vertex="1" connectable="0" parent="Xm_AiRq3xBXqMQoTUS5R-991">
          <mxGeometry y="180" width="250" height="40" as="geometry" />
        </mxCell>
        <mxCell id="Xm_AiRq3xBXqMQoTUS5R-823" value="" style="group" vertex="1" connectable="0" parent="Xm_AiRq3xBXqMQoTUS5R-822">
          <mxGeometry width="250" height="40" as="geometry" />
        </mxCell>
        <mxCell id="Xm_AiRq3xBXqMQoTUS5R-824" value="" style="rounded=0;whiteSpace=wrap;html=1;fillColor=none;" vertex="1" parent="Xm_AiRq3xBXqMQoTUS5R-823">
          <mxGeometry width="250" height="40" as="geometry" />
        </mxCell>
        <mxCell id="Xm_AiRq3xBXqMQoTUS5R-825" value="author TeamMember" style="shape=partialRectangle;overflow=hidden;connectable=0;fillColor=none;top=0;left=0;bottom=0;right=0;align=left;spacingLeft=6;" vertex="1" parent="Xm_AiRq3xBXqMQoTUS5R-823">
          <mxGeometry x="30" width="220" height="40" as="geometry">
            <mxRectangle width="220" height="40" as="alternateBounds" />
          </mxGeometry>
        </mxCell>
        <mxCell id="Xm_AiRq3xBXqMQoTUS5R-826" value="" style="endArrow=none;html=1;rounded=0;entryX=0.119;entryY=0.002;entryDx=0;entryDy=0;entryPerimeter=0;exitX=0.119;exitY=0.993;exitDx=0;exitDy=0;exitPerimeter=0;" edge="1" parent="Xm_AiRq3xBXqMQoTUS5R-823" source="Xm_AiRq3xBXqMQoTUS5R-824" target="Xm_AiRq3xBXqMQoTUS5R-824">
          <mxGeometry width="50" height="50" relative="1" as="geometry">
            <mxPoint x="140" y="80" as="sourcePoint" />
            <mxPoint x="190" y="30" as="targetPoint" />
          </mxGeometry>
        </mxCell>
        <mxCell id="Xm_AiRq3xBXqMQoTUS5R-827" value="" style="group" vertex="1" connectable="0" parent="Xm_AiRq3xBXqMQoTUS5R-991">
          <mxGeometry y="260" width="250" height="40" as="geometry" />
        </mxCell>
        <mxCell id="Xm_AiRq3xBXqMQoTUS5R-828" value="" style="group" vertex="1" connectable="0" parent="Xm_AiRq3xBXqMQoTUS5R-827">
          <mxGeometry width="250" height="40" as="geometry" />
        </mxCell>
        <mxCell id="Xm_AiRq3xBXqMQoTUS5R-829" value="" style="rounded=0;whiteSpace=wrap;html=1;fillColor=none;" vertex="1" parent="Xm_AiRq3xBXqMQoTUS5R-828">
          <mxGeometry width="250" height="40" as="geometry" />
        </mxCell>
        <mxCell id="Xm_AiRq3xBXqMQoTUS5R-830" value="team Team" style="shape=partialRectangle;overflow=hidden;connectable=0;fillColor=none;top=0;left=0;bottom=0;right=0;align=left;spacingLeft=6;" vertex="1" parent="Xm_AiRq3xBXqMQoTUS5R-828">
          <mxGeometry x="30" width="220" height="40" as="geometry">
            <mxRectangle width="220" height="40" as="alternateBounds" />
          </mxGeometry>
        </mxCell>
        <mxCell id="Xm_AiRq3xBXqMQoTUS5R-831" value="" style="endArrow=none;html=1;rounded=0;entryX=0.119;entryY=0.002;entryDx=0;entryDy=0;entryPerimeter=0;exitX=0.119;exitY=0.993;exitDx=0;exitDy=0;exitPerimeter=0;" edge="1" parent="Xm_AiRq3xBXqMQoTUS5R-828" source="Xm_AiRq3xBXqMQoTUS5R-829" target="Xm_AiRq3xBXqMQoTUS5R-829">
          <mxGeometry width="50" height="50" relative="1" as="geometry">
            <mxPoint x="140" y="80" as="sourcePoint" />
            <mxPoint x="190" y="30" as="targetPoint" />
          </mxGeometry>
        </mxCell>
        <mxCell id="Xm_AiRq3xBXqMQoTUS5R-1055" value="FK" style="shape=partialRectangle;overflow=hidden;connectable=0;fillColor=none;top=0;left=0;bottom=0;right=0;" vertex="1" parent="Xm_AiRq3xBXqMQoTUS5R-828">
          <mxGeometry y="-40" width="30" height="40" as="geometry">
            <mxRectangle width="30" height="40" as="alternateBounds" />
          </mxGeometry>
        </mxCell>
        <mxCell id="Xm_AiRq3xBXqMQoTUS5R-832" value="" style="group" vertex="1" connectable="0" parent="Xm_AiRq3xBXqMQoTUS5R-991">
          <mxGeometry y="220" width="250" height="40" as="geometry" />
        </mxCell>
        <mxCell id="Xm_AiRq3xBXqMQoTUS5R-833" value="" style="group" vertex="1" connectable="0" parent="Xm_AiRq3xBXqMQoTUS5R-832">
          <mxGeometry width="250" height="40" as="geometry" />
        </mxCell>
        <mxCell id="Xm_AiRq3xBXqMQoTUS5R-834" value="" style="rounded=0;whiteSpace=wrap;html=1;fillColor=none;" vertex="1" parent="Xm_AiRq3xBXqMQoTUS5R-833">
          <mxGeometry width="250" height="40" as="geometry" />
        </mxCell>
        <mxCell id="Xm_AiRq3xBXqMQoTUS5R-835" value="authorId String" style="shape=partialRectangle;overflow=hidden;connectable=0;fillColor=none;top=0;left=0;bottom=0;right=0;align=left;spacingLeft=6;" vertex="1" parent="Xm_AiRq3xBXqMQoTUS5R-833">
          <mxGeometry x="30" width="220" height="40" as="geometry">
            <mxRectangle width="220" height="40" as="alternateBounds" />
          </mxGeometry>
        </mxCell>
        <mxCell id="Xm_AiRq3xBXqMQoTUS5R-836" value="" style="endArrow=none;html=1;rounded=0;entryX=0.119;entryY=0.002;entryDx=0;entryDy=0;entryPerimeter=0;exitX=0.119;exitY=0.993;exitDx=0;exitDy=0;exitPerimeter=0;" edge="1" parent="Xm_AiRq3xBXqMQoTUS5R-833" source="Xm_AiRq3xBXqMQoTUS5R-834" target="Xm_AiRq3xBXqMQoTUS5R-834">
          <mxGeometry width="50" height="50" relative="1" as="geometry">
            <mxPoint x="140" y="80" as="sourcePoint" />
            <mxPoint x="190" y="30" as="targetPoint" />
          </mxGeometry>
        </mxCell>
        <mxCell id="Xm_AiRq3xBXqMQoTUS5R-837" value="" style="group" vertex="1" connectable="0" parent="Xm_AiRq3xBXqMQoTUS5R-991">
          <mxGeometry y="340" width="250" height="40" as="geometry" />
        </mxCell>
        <mxCell id="Xm_AiRq3xBXqMQoTUS5R-838" value="" style="group" vertex="1" connectable="0" parent="Xm_AiRq3xBXqMQoTUS5R-837">
          <mxGeometry width="250" height="40" as="geometry" />
        </mxCell>
        <mxCell id="Xm_AiRq3xBXqMQoTUS5R-839" value="" style="rounded=0;whiteSpace=wrap;html=1;fillColor=none;" vertex="1" parent="Xm_AiRq3xBXqMQoTUS5R-838">
          <mxGeometry width="250" height="40" as="geometry" />
        </mxCell>
        <mxCell id="Xm_AiRq3xBXqMQoTUS5R-840" value="comments TeamComment" style="shape=partialRectangle;overflow=hidden;connectable=0;fillColor=none;top=0;left=0;bottom=0;right=0;align=left;spacingLeft=6;" vertex="1" parent="Xm_AiRq3xBXqMQoTUS5R-838">
          <mxGeometry x="30" width="220" height="40" as="geometry">
            <mxRectangle width="220" height="40" as="alternateBounds" />
          </mxGeometry>
        </mxCell>
        <mxCell id="Xm_AiRq3xBXqMQoTUS5R-841" value="" style="endArrow=none;html=1;rounded=0;entryX=0.119;entryY=0.002;entryDx=0;entryDy=0;entryPerimeter=0;exitX=0.119;exitY=0.993;exitDx=0;exitDy=0;exitPerimeter=0;" edge="1" parent="Xm_AiRq3xBXqMQoTUS5R-838" source="Xm_AiRq3xBXqMQoTUS5R-839" target="Xm_AiRq3xBXqMQoTUS5R-839">
          <mxGeometry width="50" height="50" relative="1" as="geometry">
            <mxPoint x="140" y="80" as="sourcePoint" />
            <mxPoint x="190" y="30" as="targetPoint" />
          </mxGeometry>
        </mxCell>
        <mxCell id="Xm_AiRq3xBXqMQoTUS5R-1056" value="FK" style="shape=partialRectangle;overflow=hidden;connectable=0;fillColor=none;top=0;left=0;bottom=0;right=0;" vertex="1" parent="Xm_AiRq3xBXqMQoTUS5R-838">
          <mxGeometry y="-40" width="30" height="40" as="geometry">
            <mxRectangle width="30" height="40" as="alternateBounds" />
          </mxGeometry>
        </mxCell>
        <mxCell id="Xm_AiRq3xBXqMQoTUS5R-992" value="" style="group" vertex="1" connectable="0" parent="1">
          <mxGeometry x="1380" y="90" width="250" height="340" as="geometry" />
        </mxCell>
        <mxCell id="Xm_AiRq3xBXqMQoTUS5R-887" value="" style="group" vertex="1" connectable="0" parent="Xm_AiRq3xBXqMQoTUS5R-992">
          <mxGeometry y="60" width="250" height="40" as="geometry" />
        </mxCell>
        <mxCell id="Xm_AiRq3xBXqMQoTUS5R-888" value="" style="rounded=0;whiteSpace=wrap;html=1;fillColor=none;" vertex="1" parent="Xm_AiRq3xBXqMQoTUS5R-887">
          <mxGeometry width="250" height="40" as="geometry" />
        </mxCell>
        <mxCell id="Xm_AiRq3xBXqMQoTUS5R-889" value="" style="endArrow=none;html=1;rounded=0;entryX=0.119;entryY=0.002;entryDx=0;entryDy=0;entryPerimeter=0;exitX=0.119;exitY=0.993;exitDx=0;exitDy=0;exitPerimeter=0;" edge="1" parent="Xm_AiRq3xBXqMQoTUS5R-887" source="Xm_AiRq3xBXqMQoTUS5R-888" target="Xm_AiRq3xBXqMQoTUS5R-888">
          <mxGeometry width="50" height="50" relative="1" as="geometry">
            <mxPoint x="140" y="80" as="sourcePoint" />
            <mxPoint x="190" y="30" as="targetPoint" />
          </mxGeometry>
        </mxCell>
        <mxCell id="Xm_AiRq3xBXqMQoTUS5R-890" value="TeamComment" style="shape=table;startSize=30;container=1;collapsible=1;childLayout=tableLayout;fixedRows=1;rowLines=0;fontStyle=1;align=center;resizeLast=1;" vertex="1" parent="Xm_AiRq3xBXqMQoTUS5R-992">
          <mxGeometry width="250" height="340" as="geometry" />
        </mxCell>
        <mxCell id="Xm_AiRq3xBXqMQoTUS5R-891" value="" style="shape=partialRectangle;collapsible=0;dropTarget=0;pointerEvents=0;fillColor=none;points=[[0,0.5],[1,0.5]];portConstraint=eastwest;top=0;left=0;right=0;bottom=1;" vertex="1" parent="Xm_AiRq3xBXqMQoTUS5R-890">
          <mxGeometry y="30" width="250" height="30" as="geometry" />
        </mxCell>
        <mxCell id="Xm_AiRq3xBXqMQoTUS5R-892" value="PK" style="shape=partialRectangle;overflow=hidden;connectable=0;fillColor=none;top=0;left=0;bottom=0;right=0;fontStyle=1;" vertex="1" parent="Xm_AiRq3xBXqMQoTUS5R-891">
          <mxGeometry width="30" height="30" as="geometry">
            <mxRectangle width="30" height="30" as="alternateBounds" />
          </mxGeometry>
        </mxCell>
        <mxCell id="Xm_AiRq3xBXqMQoTUS5R-893" value="id String" style="shape=partialRectangle;overflow=hidden;connectable=0;fillColor=none;top=0;left=0;bottom=0;right=0;align=left;spacingLeft=6;fontStyle=1;" vertex="1" parent="Xm_AiRq3xBXqMQoTUS5R-891">
          <mxGeometry x="30" width="220" height="30" as="geometry">
            <mxRectangle width="220" height="30" as="alternateBounds" />
          </mxGeometry>
        </mxCell>
        <mxCell id="Xm_AiRq3xBXqMQoTUS5R-894" value="" style="shape=partialRectangle;collapsible=0;dropTarget=0;pointerEvents=0;fillColor=none;points=[[0,0.5],[1,0.5]];portConstraint=eastwest;top=0;left=0;right=0;bottom=0;" vertex="1" parent="Xm_AiRq3xBXqMQoTUS5R-890">
          <mxGeometry y="60" width="250" height="40" as="geometry" />
        </mxCell>
        <mxCell id="Xm_AiRq3xBXqMQoTUS5R-895" value="" style="shape=partialRectangle;overflow=hidden;connectable=0;fillColor=none;top=0;left=0;bottom=0;right=0;" vertex="1" parent="Xm_AiRq3xBXqMQoTUS5R-894">
          <mxGeometry width="30" height="40" as="geometry">
            <mxRectangle width="30" height="40" as="alternateBounds" />
          </mxGeometry>
        </mxCell>
        <mxCell id="Xm_AiRq3xBXqMQoTUS5R-896" value="content String" style="shape=partialRectangle;overflow=hidden;connectable=0;fillColor=none;top=0;left=0;bottom=0;right=0;align=left;spacingLeft=6;" vertex="1" parent="Xm_AiRq3xBXqMQoTUS5R-894">
          <mxGeometry x="30" width="220" height="40" as="geometry">
            <mxRectangle width="220" height="40" as="alternateBounds" />
          </mxGeometry>
        </mxCell>
        <mxCell id="Xm_AiRq3xBXqMQoTUS5R-897" value="" style="group" vertex="1" connectable="0" parent="Xm_AiRq3xBXqMQoTUS5R-992">
          <mxGeometry y="100" width="250" height="40" as="geometry" />
        </mxCell>
        <mxCell id="Xm_AiRq3xBXqMQoTUS5R-898" value="" style="group" vertex="1" connectable="0" parent="Xm_AiRq3xBXqMQoTUS5R-897">
          <mxGeometry width="250" height="40" as="geometry" />
        </mxCell>
        <mxCell id="Xm_AiRq3xBXqMQoTUS5R-899" value="" style="rounded=0;whiteSpace=wrap;html=1;fillColor=none;" vertex="1" parent="Xm_AiRq3xBXqMQoTUS5R-898">
          <mxGeometry width="250" height="40" as="geometry" />
        </mxCell>
        <mxCell id="Xm_AiRq3xBXqMQoTUS5R-900" value="createdAt DateTime" style="shape=partialRectangle;overflow=hidden;connectable=0;fillColor=none;top=0;left=0;bottom=0;right=0;align=left;spacingLeft=6;" vertex="1" parent="Xm_AiRq3xBXqMQoTUS5R-898">
          <mxGeometry x="30" width="220" height="40" as="geometry">
            <mxRectangle width="220" height="40" as="alternateBounds" />
          </mxGeometry>
        </mxCell>
        <mxCell id="Xm_AiRq3xBXqMQoTUS5R-901" value="" style="endArrow=none;html=1;rounded=0;entryX=0.119;entryY=0.002;entryDx=0;entryDy=0;entryPerimeter=0;exitX=0.119;exitY=0.993;exitDx=0;exitDy=0;exitPerimeter=0;" edge="1" parent="Xm_AiRq3xBXqMQoTUS5R-898" source="Xm_AiRq3xBXqMQoTUS5R-899" target="Xm_AiRq3xBXqMQoTUS5R-899">
          <mxGeometry width="50" height="50" relative="1" as="geometry">
            <mxPoint x="140" y="80" as="sourcePoint" />
            <mxPoint x="190" y="30" as="targetPoint" />
          </mxGeometry>
        </mxCell>
        <mxCell id="Xm_AiRq3xBXqMQoTUS5R-902" value="" style="group" vertex="1" connectable="0" parent="Xm_AiRq3xBXqMQoTUS5R-992">
          <mxGeometry y="140" width="250" height="40" as="geometry" />
        </mxCell>
        <mxCell id="Xm_AiRq3xBXqMQoTUS5R-903" value="" style="group" vertex="1" connectable="0" parent="Xm_AiRq3xBXqMQoTUS5R-902">
          <mxGeometry width="250" height="40" as="geometry" />
        </mxCell>
        <mxCell id="Xm_AiRq3xBXqMQoTUS5R-904" value="" style="rounded=0;whiteSpace=wrap;html=1;fillColor=none;" vertex="1" parent="Xm_AiRq3xBXqMQoTUS5R-903">
          <mxGeometry width="250" height="40" as="geometry" />
        </mxCell>
        <mxCell id="Xm_AiRq3xBXqMQoTUS5R-905" value="updatedAt DateTime" style="shape=partialRectangle;overflow=hidden;connectable=0;fillColor=none;top=0;left=0;bottom=0;right=0;align=left;spacingLeft=6;" vertex="1" parent="Xm_AiRq3xBXqMQoTUS5R-903">
          <mxGeometry x="30" width="220" height="40" as="geometry">
            <mxRectangle width="220" height="40" as="alternateBounds" />
          </mxGeometry>
        </mxCell>
        <mxCell id="Xm_AiRq3xBXqMQoTUS5R-906" value="" style="endArrow=none;html=1;rounded=0;entryX=0.119;entryY=0.002;entryDx=0;entryDy=0;entryPerimeter=0;exitX=0.119;exitY=0.993;exitDx=0;exitDy=0;exitPerimeter=0;" edge="1" parent="Xm_AiRq3xBXqMQoTUS5R-903" source="Xm_AiRq3xBXqMQoTUS5R-904" target="Xm_AiRq3xBXqMQoTUS5R-904">
          <mxGeometry width="50" height="50" relative="1" as="geometry">
            <mxPoint x="140" y="80" as="sourcePoint" />
            <mxPoint x="190" y="30" as="targetPoint" />
          </mxGeometry>
        </mxCell>
        <mxCell id="Xm_AiRq3xBXqMQoTUS5R-907" value="" style="group" vertex="1" connectable="0" parent="Xm_AiRq3xBXqMQoTUS5R-992">
          <mxGeometry y="300" width="250" height="40" as="geometry" />
        </mxCell>
        <mxCell id="Xm_AiRq3xBXqMQoTUS5R-908" value="" style="group" vertex="1" connectable="0" parent="Xm_AiRq3xBXqMQoTUS5R-907">
          <mxGeometry width="250" height="40" as="geometry" />
        </mxCell>
        <mxCell id="Xm_AiRq3xBXqMQoTUS5R-909" value="" style="rounded=0;whiteSpace=wrap;html=1;fillColor=none;" vertex="1" parent="Xm_AiRq3xBXqMQoTUS5R-908">
          <mxGeometry width="250" height="40" as="geometry" />
        </mxCell>
        <mxCell id="Xm_AiRq3xBXqMQoTUS5R-910" value="postId String" style="shape=partialRectangle;overflow=hidden;connectable=0;fillColor=none;top=0;left=0;bottom=0;right=0;align=left;spacingLeft=6;" vertex="1" parent="Xm_AiRq3xBXqMQoTUS5R-908">
          <mxGeometry x="30" width="220" height="40" as="geometry">
            <mxRectangle width="220" height="40" as="alternateBounds" />
          </mxGeometry>
        </mxCell>
        <mxCell id="Xm_AiRq3xBXqMQoTUS5R-911" value="" style="endArrow=none;html=1;rounded=0;entryX=0.119;entryY=0.002;entryDx=0;entryDy=0;entryPerimeter=0;exitX=0.119;exitY=0.993;exitDx=0;exitDy=0;exitPerimeter=0;" edge="1" parent="Xm_AiRq3xBXqMQoTUS5R-908" source="Xm_AiRq3xBXqMQoTUS5R-909" target="Xm_AiRq3xBXqMQoTUS5R-909">
          <mxGeometry width="50" height="50" relative="1" as="geometry">
            <mxPoint x="140" y="80" as="sourcePoint" />
            <mxPoint x="190" y="30" as="targetPoint" />
          </mxGeometry>
        </mxCell>
        <mxCell id="Xm_AiRq3xBXqMQoTUS5R-1058" value="FK" style="shape=partialRectangle;overflow=hidden;connectable=0;fillColor=none;top=0;left=0;bottom=0;right=0;" vertex="1" parent="Xm_AiRq3xBXqMQoTUS5R-908">
          <mxGeometry width="30" height="40" as="geometry">
            <mxRectangle width="30" height="40" as="alternateBounds" />
          </mxGeometry>
        </mxCell>
        <mxCell id="Xm_AiRq3xBXqMQoTUS5R-912" value="" style="group" vertex="1" connectable="0" parent="Xm_AiRq3xBXqMQoTUS5R-992">
          <mxGeometry y="180" width="250" height="40" as="geometry" />
        </mxCell>
        <mxCell id="Xm_AiRq3xBXqMQoTUS5R-913" value="" style="group" vertex="1" connectable="0" parent="Xm_AiRq3xBXqMQoTUS5R-912">
          <mxGeometry width="250" height="40" as="geometry" />
        </mxCell>
        <mxCell id="Xm_AiRq3xBXqMQoTUS5R-914" value="" style="rounded=0;whiteSpace=wrap;html=1;fillColor=none;" vertex="1" parent="Xm_AiRq3xBXqMQoTUS5R-913">
          <mxGeometry width="250" height="40" as="geometry" />
        </mxCell>
        <mxCell id="Xm_AiRq3xBXqMQoTUS5R-915" value="author TeamMember" style="shape=partialRectangle;overflow=hidden;connectable=0;fillColor=none;top=0;left=0;bottom=0;right=0;align=left;spacingLeft=6;" vertex="1" parent="Xm_AiRq3xBXqMQoTUS5R-913">
          <mxGeometry x="30" width="220" height="40" as="geometry">
            <mxRectangle width="220" height="40" as="alternateBounds" />
          </mxGeometry>
        </mxCell>
        <mxCell id="Xm_AiRq3xBXqMQoTUS5R-916" value="" style="endArrow=none;html=1;rounded=0;entryX=0.119;entryY=0.002;entryDx=0;entryDy=0;entryPerimeter=0;exitX=0.119;exitY=0.993;exitDx=0;exitDy=0;exitPerimeter=0;" edge="1" parent="Xm_AiRq3xBXqMQoTUS5R-913" source="Xm_AiRq3xBXqMQoTUS5R-914" target="Xm_AiRq3xBXqMQoTUS5R-914">
          <mxGeometry width="50" height="50" relative="1" as="geometry">
            <mxPoint x="140" y="80" as="sourcePoint" />
            <mxPoint x="190" y="30" as="targetPoint" />
          </mxGeometry>
        </mxCell>
        <mxCell id="Xm_AiRq3xBXqMQoTUS5R-917" value="" style="group" vertex="1" connectable="0" parent="Xm_AiRq3xBXqMQoTUS5R-992">
          <mxGeometry y="260" width="250" height="40" as="geometry" />
        </mxCell>
        <mxCell id="Xm_AiRq3xBXqMQoTUS5R-918" value="" style="group" vertex="1" connectable="0" parent="Xm_AiRq3xBXqMQoTUS5R-917">
          <mxGeometry width="250" height="40" as="geometry" />
        </mxCell>
        <mxCell id="Xm_AiRq3xBXqMQoTUS5R-919" value="" style="rounded=0;whiteSpace=wrap;html=1;fillColor=none;" vertex="1" parent="Xm_AiRq3xBXqMQoTUS5R-918">
          <mxGeometry width="250" height="40" as="geometry" />
        </mxCell>
        <mxCell id="Xm_AiRq3xBXqMQoTUS5R-920" value="post TeamPost" style="shape=partialRectangle;overflow=hidden;connectable=0;fillColor=none;top=0;left=0;bottom=0;right=0;align=left;spacingLeft=6;" vertex="1" parent="Xm_AiRq3xBXqMQoTUS5R-918">
          <mxGeometry x="30" width="220" height="40" as="geometry">
            <mxRectangle width="220" height="40" as="alternateBounds" />
          </mxGeometry>
        </mxCell>
        <mxCell id="Xm_AiRq3xBXqMQoTUS5R-921" value="" style="endArrow=none;html=1;rounded=0;entryX=0.119;entryY=0.002;entryDx=0;entryDy=0;entryPerimeter=0;exitX=0.119;exitY=0.993;exitDx=0;exitDy=0;exitPerimeter=0;" edge="1" parent="Xm_AiRq3xBXqMQoTUS5R-918" source="Xm_AiRq3xBXqMQoTUS5R-919" target="Xm_AiRq3xBXqMQoTUS5R-919">
          <mxGeometry width="50" height="50" relative="1" as="geometry">
            <mxPoint x="140" y="80" as="sourcePoint" />
            <mxPoint x="190" y="30" as="targetPoint" />
          </mxGeometry>
        </mxCell>
        <mxCell id="Xm_AiRq3xBXqMQoTUS5R-1057" value="FK" style="shape=partialRectangle;overflow=hidden;connectable=0;fillColor=none;top=0;left=0;bottom=0;right=0;" vertex="1" parent="Xm_AiRq3xBXqMQoTUS5R-918">
          <mxGeometry y="-40" width="30" height="40" as="geometry">
            <mxRectangle width="30" height="40" as="alternateBounds" />
          </mxGeometry>
        </mxCell>
        <mxCell id="Xm_AiRq3xBXqMQoTUS5R-922" value="" style="group" vertex="1" connectable="0" parent="Xm_AiRq3xBXqMQoTUS5R-992">
          <mxGeometry y="220" width="250" height="40" as="geometry" />
        </mxCell>
        <mxCell id="Xm_AiRq3xBXqMQoTUS5R-923" value="" style="group" vertex="1" connectable="0" parent="Xm_AiRq3xBXqMQoTUS5R-922">
          <mxGeometry width="250" height="40" as="geometry" />
        </mxCell>
        <mxCell id="Xm_AiRq3xBXqMQoTUS5R-924" value="" style="rounded=0;whiteSpace=wrap;html=1;fillColor=none;" vertex="1" parent="Xm_AiRq3xBXqMQoTUS5R-923">
          <mxGeometry width="250" height="40" as="geometry" />
        </mxCell>
        <mxCell id="Xm_AiRq3xBXqMQoTUS5R-925" value="authorId String" style="shape=partialRectangle;overflow=hidden;connectable=0;fillColor=none;top=0;left=0;bottom=0;right=0;align=left;spacingLeft=6;" vertex="1" parent="Xm_AiRq3xBXqMQoTUS5R-923">
          <mxGeometry x="30" width="220" height="40" as="geometry">
            <mxRectangle width="220" height="40" as="alternateBounds" />
          </mxGeometry>
        </mxCell>
        <mxCell id="Xm_AiRq3xBXqMQoTUS5R-926" value="" style="endArrow=none;html=1;rounded=0;entryX=0.119;entryY=0.002;entryDx=0;entryDy=0;entryPerimeter=0;exitX=0.119;exitY=0.993;exitDx=0;exitDy=0;exitPerimeter=0;" edge="1" parent="Xm_AiRq3xBXqMQoTUS5R-923" source="Xm_AiRq3xBXqMQoTUS5R-924" target="Xm_AiRq3xBXqMQoTUS5R-924">
          <mxGeometry width="50" height="50" relative="1" as="geometry">
            <mxPoint x="140" y="80" as="sourcePoint" />
            <mxPoint x="190" y="30" as="targetPoint" />
          </mxGeometry>
        </mxCell>
        <mxCell id="Xm_AiRq3xBXqMQoTUS5R-993" value="" style="group" vertex="1" connectable="0" parent="1">
          <mxGeometry x="1380" y="490" width="250" height="420" as="geometry" />
        </mxCell>
        <mxCell id="Xm_AiRq3xBXqMQoTUS5R-932" value="" style="group" vertex="1" connectable="0" parent="Xm_AiRq3xBXqMQoTUS5R-993">
          <mxGeometry y="60" width="250" height="40" as="geometry" />
        </mxCell>
        <mxCell id="Xm_AiRq3xBXqMQoTUS5R-933" value="" style="rounded=0;whiteSpace=wrap;html=1;fillColor=none;" vertex="1" parent="Xm_AiRq3xBXqMQoTUS5R-932">
          <mxGeometry width="250" height="40" as="geometry" />
        </mxCell>
        <mxCell id="Xm_AiRq3xBXqMQoTUS5R-934" value="" style="endArrow=none;html=1;rounded=0;entryX=0.119;entryY=0.002;entryDx=0;entryDy=0;entryPerimeter=0;exitX=0.119;exitY=0.993;exitDx=0;exitDy=0;exitPerimeter=0;" edge="1" parent="Xm_AiRq3xBXqMQoTUS5R-932" source="Xm_AiRq3xBXqMQoTUS5R-933" target="Xm_AiRq3xBXqMQoTUS5R-933">
          <mxGeometry width="50" height="50" relative="1" as="geometry">
            <mxPoint x="140" y="80" as="sourcePoint" />
            <mxPoint x="190" y="30" as="targetPoint" />
          </mxGeometry>
        </mxCell>
        <mxCell id="Xm_AiRq3xBXqMQoTUS5R-935" value="TeamMember" style="shape=table;startSize=30;container=1;collapsible=1;childLayout=tableLayout;fixedRows=1;rowLines=0;fontStyle=1;align=center;resizeLast=1;" vertex="1" parent="Xm_AiRq3xBXqMQoTUS5R-993">
          <mxGeometry width="250" height="420" as="geometry" />
        </mxCell>
        <mxCell id="Xm_AiRq3xBXqMQoTUS5R-936" value="" style="shape=partialRectangle;collapsible=0;dropTarget=0;pointerEvents=0;fillColor=none;points=[[0,0.5],[1,0.5]];portConstraint=eastwest;top=0;left=0;right=0;bottom=1;" vertex="1" parent="Xm_AiRq3xBXqMQoTUS5R-935">
          <mxGeometry y="30" width="250" height="30" as="geometry" />
        </mxCell>
        <mxCell id="Xm_AiRq3xBXqMQoTUS5R-937" value="PK" style="shape=partialRectangle;overflow=hidden;connectable=0;fillColor=none;top=0;left=0;bottom=0;right=0;fontStyle=1;" vertex="1" parent="Xm_AiRq3xBXqMQoTUS5R-936">
          <mxGeometry width="30" height="30" as="geometry">
            <mxRectangle width="30" height="30" as="alternateBounds" />
          </mxGeometry>
        </mxCell>
        <mxCell id="Xm_AiRq3xBXqMQoTUS5R-938" value="id String" style="shape=partialRectangle;overflow=hidden;connectable=0;fillColor=none;top=0;left=0;bottom=0;right=0;align=left;spacingLeft=6;fontStyle=1;" vertex="1" parent="Xm_AiRq3xBXqMQoTUS5R-936">
          <mxGeometry x="30" width="220" height="30" as="geometry">
            <mxRectangle width="220" height="30" as="alternateBounds" />
          </mxGeometry>
        </mxCell>
        <mxCell id="Xm_AiRq3xBXqMQoTUS5R-939" value="" style="shape=partialRectangle;collapsible=0;dropTarget=0;pointerEvents=0;fillColor=none;points=[[0,0.5],[1,0.5]];portConstraint=eastwest;top=0;left=0;right=0;bottom=0;" vertex="1" parent="Xm_AiRq3xBXqMQoTUS5R-935">
          <mxGeometry y="60" width="250" height="40" as="geometry" />
        </mxCell>
        <mxCell id="Xm_AiRq3xBXqMQoTUS5R-940" value="" style="shape=partialRectangle;overflow=hidden;connectable=0;fillColor=none;top=0;left=0;bottom=0;right=0;" vertex="1" parent="Xm_AiRq3xBXqMQoTUS5R-939">
          <mxGeometry width="30" height="40" as="geometry">
            <mxRectangle width="30" height="40" as="alternateBounds" />
          </mxGeometry>
        </mxCell>
        <mxCell id="Xm_AiRq3xBXqMQoTUS5R-941" value="role String" style="shape=partialRectangle;overflow=hidden;connectable=0;fillColor=none;top=0;left=0;bottom=0;right=0;align=left;spacingLeft=6;" vertex="1" parent="Xm_AiRq3xBXqMQoTUS5R-939">
          <mxGeometry x="30" width="220" height="40" as="geometry">
            <mxRectangle width="220" height="40" as="alternateBounds" />
          </mxGeometry>
        </mxCell>
        <mxCell id="Xm_AiRq3xBXqMQoTUS5R-942" value="" style="group" vertex="1" connectable="0" parent="Xm_AiRq3xBXqMQoTUS5R-993">
          <mxGeometry y="100" width="250" height="40" as="geometry" />
        </mxCell>
        <mxCell id="Xm_AiRq3xBXqMQoTUS5R-943" value="" style="group" vertex="1" connectable="0" parent="Xm_AiRq3xBXqMQoTUS5R-942">
          <mxGeometry width="250" height="40" as="geometry" />
        </mxCell>
        <mxCell id="Xm_AiRq3xBXqMQoTUS5R-944" value="" style="rounded=0;whiteSpace=wrap;html=1;fillColor=none;" vertex="1" parent="Xm_AiRq3xBXqMQoTUS5R-943">
          <mxGeometry width="250" height="40" as="geometry" />
        </mxCell>
        <mxCell id="Xm_AiRq3xBXqMQoTUS5R-945" value="createdAt DateTime" style="shape=partialRectangle;overflow=hidden;connectable=0;fillColor=none;top=0;left=0;bottom=0;right=0;align=left;spacingLeft=6;" vertex="1" parent="Xm_AiRq3xBXqMQoTUS5R-943">
          <mxGeometry x="30" width="220" height="40" as="geometry">
            <mxRectangle width="220" height="40" as="alternateBounds" />
          </mxGeometry>
        </mxCell>
        <mxCell id="Xm_AiRq3xBXqMQoTUS5R-946" value="" style="endArrow=none;html=1;rounded=0;entryX=0.119;entryY=0.002;entryDx=0;entryDy=0;entryPerimeter=0;exitX=0.119;exitY=0.993;exitDx=0;exitDy=0;exitPerimeter=0;" edge="1" parent="Xm_AiRq3xBXqMQoTUS5R-943" source="Xm_AiRq3xBXqMQoTUS5R-944" target="Xm_AiRq3xBXqMQoTUS5R-944">
          <mxGeometry width="50" height="50" relative="1" as="geometry">
            <mxPoint x="140" y="80" as="sourcePoint" />
            <mxPoint x="190" y="30" as="targetPoint" />
          </mxGeometry>
        </mxCell>
        <mxCell id="Xm_AiRq3xBXqMQoTUS5R-947" value="" style="group" vertex="1" connectable="0" parent="Xm_AiRq3xBXqMQoTUS5R-993">
          <mxGeometry y="140" width="250" height="40" as="geometry" />
        </mxCell>
        <mxCell id="Xm_AiRq3xBXqMQoTUS5R-948" value="" style="group" vertex="1" connectable="0" parent="Xm_AiRq3xBXqMQoTUS5R-947">
          <mxGeometry width="250" height="40" as="geometry" />
        </mxCell>
        <mxCell id="Xm_AiRq3xBXqMQoTUS5R-949" value="" style="rounded=0;whiteSpace=wrap;html=1;fillColor=none;" vertex="1" parent="Xm_AiRq3xBXqMQoTUS5R-948">
          <mxGeometry width="250" height="40" as="geometry" />
        </mxCell>
        <mxCell id="Xm_AiRq3xBXqMQoTUS5R-950" value="updatedAt DateTime" style="shape=partialRectangle;overflow=hidden;connectable=0;fillColor=none;top=0;left=0;bottom=0;right=0;align=left;spacingLeft=6;" vertex="1" parent="Xm_AiRq3xBXqMQoTUS5R-948">
          <mxGeometry x="30" width="220" height="40" as="geometry">
            <mxRectangle width="220" height="40" as="alternateBounds" />
          </mxGeometry>
        </mxCell>
        <mxCell id="Xm_AiRq3xBXqMQoTUS5R-951" value="" style="endArrow=none;html=1;rounded=0;entryX=0.119;entryY=0.002;entryDx=0;entryDy=0;entryPerimeter=0;exitX=0.119;exitY=0.993;exitDx=0;exitDy=0;exitPerimeter=0;" edge="1" parent="Xm_AiRq3xBXqMQoTUS5R-948" source="Xm_AiRq3xBXqMQoTUS5R-949" target="Xm_AiRq3xBXqMQoTUS5R-949">
          <mxGeometry width="50" height="50" relative="1" as="geometry">
            <mxPoint x="140" y="80" as="sourcePoint" />
            <mxPoint x="190" y="30" as="targetPoint" />
          </mxGeometry>
        </mxCell>
        <mxCell id="Xm_AiRq3xBXqMQoTUS5R-952" value="" style="group" vertex="1" connectable="0" parent="Xm_AiRq3xBXqMQoTUS5R-993">
          <mxGeometry y="300" width="250" height="40" as="geometry" />
        </mxCell>
        <mxCell id="Xm_AiRq3xBXqMQoTUS5R-953" value="" style="group" vertex="1" connectable="0" parent="Xm_AiRq3xBXqMQoTUS5R-952">
          <mxGeometry width="250" height="40" as="geometry" />
        </mxCell>
        <mxCell id="Xm_AiRq3xBXqMQoTUS5R-954" value="" style="rounded=0;whiteSpace=wrap;html=1;fillColor=none;" vertex="1" parent="Xm_AiRq3xBXqMQoTUS5R-953">
          <mxGeometry width="250" height="40" as="geometry" />
        </mxCell>
        <mxCell id="Xm_AiRq3xBXqMQoTUS5R-955" value="teamId String" style="shape=partialRectangle;overflow=hidden;connectable=0;fillColor=none;top=0;left=0;bottom=0;right=0;align=left;spacingLeft=6;" vertex="1" parent="Xm_AiRq3xBXqMQoTUS5R-953">
          <mxGeometry x="30" width="220" height="40" as="geometry">
            <mxRectangle width="220" height="40" as="alternateBounds" />
          </mxGeometry>
        </mxCell>
        <mxCell id="Xm_AiRq3xBXqMQoTUS5R-956" value="" style="endArrow=none;html=1;rounded=0;entryX=0.119;entryY=0.002;entryDx=0;entryDy=0;entryPerimeter=0;exitX=0.119;exitY=0.993;exitDx=0;exitDy=0;exitPerimeter=0;" edge="1" parent="Xm_AiRq3xBXqMQoTUS5R-953" source="Xm_AiRq3xBXqMQoTUS5R-954" target="Xm_AiRq3xBXqMQoTUS5R-954">
          <mxGeometry width="50" height="50" relative="1" as="geometry">
            <mxPoint x="140" y="80" as="sourcePoint" />
            <mxPoint x="190" y="30" as="targetPoint" />
          </mxGeometry>
        </mxCell>
        <mxCell id="Xm_AiRq3xBXqMQoTUS5R-957" value="" style="group" vertex="1" connectable="0" parent="Xm_AiRq3xBXqMQoTUS5R-993">
          <mxGeometry y="180" width="250" height="40" as="geometry" />
        </mxCell>
        <mxCell id="Xm_AiRq3xBXqMQoTUS5R-958" value="" style="group" vertex="1" connectable="0" parent="Xm_AiRq3xBXqMQoTUS5R-957">
          <mxGeometry width="250" height="40" as="geometry" />
        </mxCell>
        <mxCell id="Xm_AiRq3xBXqMQoTUS5R-959" value="" style="rounded=0;whiteSpace=wrap;html=1;fillColor=none;" vertex="1" parent="Xm_AiRq3xBXqMQoTUS5R-958">
          <mxGeometry width="250" height="40" as="geometry" />
        </mxCell>
        <mxCell id="Xm_AiRq3xBXqMQoTUS5R-960" value="user User" style="shape=partialRectangle;overflow=hidden;connectable=0;fillColor=none;top=0;left=0;bottom=0;right=0;align=left;spacingLeft=6;" vertex="1" parent="Xm_AiRq3xBXqMQoTUS5R-958">
          <mxGeometry x="30" width="220" height="40" as="geometry">
            <mxRectangle width="220" height="40" as="alternateBounds" />
          </mxGeometry>
        </mxCell>
        <mxCell id="Xm_AiRq3xBXqMQoTUS5R-961" value="" style="endArrow=none;html=1;rounded=0;entryX=0.119;entryY=0.002;entryDx=0;entryDy=0;entryPerimeter=0;exitX=0.119;exitY=0.993;exitDx=0;exitDy=0;exitPerimeter=0;" edge="1" parent="Xm_AiRq3xBXqMQoTUS5R-958" source="Xm_AiRq3xBXqMQoTUS5R-959" target="Xm_AiRq3xBXqMQoTUS5R-959">
          <mxGeometry width="50" height="50" relative="1" as="geometry">
            <mxPoint x="140" y="80" as="sourcePoint" />
            <mxPoint x="190" y="30" as="targetPoint" />
          </mxGeometry>
        </mxCell>
        <mxCell id="Xm_AiRq3xBXqMQoTUS5R-962" value="" style="group" vertex="1" connectable="0" parent="Xm_AiRq3xBXqMQoTUS5R-993">
          <mxGeometry y="260" width="250" height="40" as="geometry" />
        </mxCell>
        <mxCell id="Xm_AiRq3xBXqMQoTUS5R-963" value="" style="group" vertex="1" connectable="0" parent="Xm_AiRq3xBXqMQoTUS5R-962">
          <mxGeometry width="250" height="40" as="geometry" />
        </mxCell>
        <mxCell id="Xm_AiRq3xBXqMQoTUS5R-964" value="" style="rounded=0;whiteSpace=wrap;html=1;fillColor=none;" vertex="1" parent="Xm_AiRq3xBXqMQoTUS5R-963">
          <mxGeometry width="250" height="40" as="geometry" />
        </mxCell>
        <mxCell id="Xm_AiRq3xBXqMQoTUS5R-965" value="team Team" style="shape=partialRectangle;overflow=hidden;connectable=0;fillColor=none;top=0;left=0;bottom=0;right=0;align=left;spacingLeft=6;" vertex="1" parent="Xm_AiRq3xBXqMQoTUS5R-963">
          <mxGeometry x="30" width="220" height="40" as="geometry">
            <mxRectangle width="220" height="40" as="alternateBounds" />
          </mxGeometry>
        </mxCell>
        <mxCell id="Xm_AiRq3xBXqMQoTUS5R-966" value="" style="endArrow=none;html=1;rounded=0;entryX=0.119;entryY=0.002;entryDx=0;entryDy=0;entryPerimeter=0;exitX=0.119;exitY=0.993;exitDx=0;exitDy=0;exitPerimeter=0;" edge="1" parent="Xm_AiRq3xBXqMQoTUS5R-963" source="Xm_AiRq3xBXqMQoTUS5R-964" target="Xm_AiRq3xBXqMQoTUS5R-964">
          <mxGeometry width="50" height="50" relative="1" as="geometry">
            <mxPoint x="140" y="80" as="sourcePoint" />
            <mxPoint x="190" y="30" as="targetPoint" />
          </mxGeometry>
        </mxCell>
        <mxCell id="Xm_AiRq3xBXqMQoTUS5R-967" value="" style="group" vertex="1" connectable="0" parent="Xm_AiRq3xBXqMQoTUS5R-993">
          <mxGeometry y="220" width="250" height="40" as="geometry" />
        </mxCell>
        <mxCell id="Xm_AiRq3xBXqMQoTUS5R-968" value="" style="group" vertex="1" connectable="0" parent="Xm_AiRq3xBXqMQoTUS5R-967">
          <mxGeometry width="250" height="40" as="geometry" />
        </mxCell>
        <mxCell id="Xm_AiRq3xBXqMQoTUS5R-969" value="" style="rounded=0;whiteSpace=wrap;html=1;fillColor=none;" vertex="1" parent="Xm_AiRq3xBXqMQoTUS5R-968">
          <mxGeometry width="250" height="40" as="geometry" />
        </mxCell>
        <mxCell id="Xm_AiRq3xBXqMQoTUS5R-970" value="userId String" style="shape=partialRectangle;overflow=hidden;connectable=0;fillColor=none;top=0;left=0;bottom=0;right=0;align=left;spacingLeft=6;" vertex="1" parent="Xm_AiRq3xBXqMQoTUS5R-968">
          <mxGeometry x="30" width="220" height="40" as="geometry">
            <mxRectangle width="220" height="40" as="alternateBounds" />
          </mxGeometry>
        </mxCell>
        <mxCell id="Xm_AiRq3xBXqMQoTUS5R-971" value="" style="endArrow=none;html=1;rounded=0;entryX=0.119;entryY=0.002;entryDx=0;entryDy=0;entryPerimeter=0;exitX=0.119;exitY=0.993;exitDx=0;exitDy=0;exitPerimeter=0;" edge="1" parent="Xm_AiRq3xBXqMQoTUS5R-968" source="Xm_AiRq3xBXqMQoTUS5R-969" target="Xm_AiRq3xBXqMQoTUS5R-969">
          <mxGeometry width="50" height="50" relative="1" as="geometry">
            <mxPoint x="140" y="80" as="sourcePoint" />
            <mxPoint x="190" y="30" as="targetPoint" />
          </mxGeometry>
        </mxCell>
        <mxCell id="Xm_AiRq3xBXqMQoTUS5R-1059" value="FK" style="shape=partialRectangle;overflow=hidden;connectable=0;fillColor=none;top=0;left=0;bottom=0;right=0;" vertex="1" parent="Xm_AiRq3xBXqMQoTUS5R-968">
          <mxGeometry width="30" height="40" as="geometry">
            <mxRectangle width="30" height="40" as="alternateBounds" />
          </mxGeometry>
        </mxCell>
        <mxCell id="Xm_AiRq3xBXqMQoTUS5R-972" value="" style="group" vertex="1" connectable="0" parent="Xm_AiRq3xBXqMQoTUS5R-993">
          <mxGeometry y="340" width="250" height="40" as="geometry" />
        </mxCell>
        <mxCell id="Xm_AiRq3xBXqMQoTUS5R-973" value="" style="group" vertex="1" connectable="0" parent="Xm_AiRq3xBXqMQoTUS5R-972">
          <mxGeometry width="250" height="40" as="geometry" />
        </mxCell>
        <mxCell id="Xm_AiRq3xBXqMQoTUS5R-974" value="" style="rounded=0;whiteSpace=wrap;html=1;fillColor=none;" vertex="1" parent="Xm_AiRq3xBXqMQoTUS5R-973">
          <mxGeometry width="250" height="40" as="geometry" />
        </mxCell>
        <mxCell id="Xm_AiRq3xBXqMQoTUS5R-975" value="posts TeamPost" style="shape=partialRectangle;overflow=hidden;connectable=0;fillColor=none;top=0;left=0;bottom=0;right=0;align=left;spacingLeft=6;" vertex="1" parent="Xm_AiRq3xBXqMQoTUS5R-973">
          <mxGeometry x="30" width="220" height="40" as="geometry">
            <mxRectangle width="220" height="40" as="alternateBounds" />
          </mxGeometry>
        </mxCell>
        <mxCell id="Xm_AiRq3xBXqMQoTUS5R-976" value="" style="endArrow=none;html=1;rounded=0;entryX=0.119;entryY=0.002;entryDx=0;entryDy=0;entryPerimeter=0;exitX=0.119;exitY=0.993;exitDx=0;exitDy=0;exitPerimeter=0;" edge="1" parent="Xm_AiRq3xBXqMQoTUS5R-973" source="Xm_AiRq3xBXqMQoTUS5R-974" target="Xm_AiRq3xBXqMQoTUS5R-974">
          <mxGeometry width="50" height="50" relative="1" as="geometry">
            <mxPoint x="140" y="80" as="sourcePoint" />
            <mxPoint x="190" y="30" as="targetPoint" />
          </mxGeometry>
        </mxCell>
        <mxCell id="Xm_AiRq3xBXqMQoTUS5R-1060" value="FK" style="shape=partialRectangle;overflow=hidden;connectable=0;fillColor=none;top=0;left=0;bottom=0;right=0;" vertex="1" parent="Xm_AiRq3xBXqMQoTUS5R-973">
          <mxGeometry y="-40" width="30" height="40" as="geometry">
            <mxRectangle width="30" height="40" as="alternateBounds" />
          </mxGeometry>
        </mxCell>
        <mxCell id="Xm_AiRq3xBXqMQoTUS5R-977" value="" style="group" vertex="1" connectable="0" parent="Xm_AiRq3xBXqMQoTUS5R-993">
          <mxGeometry y="380" width="250" height="40" as="geometry" />
        </mxCell>
        <mxCell id="Xm_AiRq3xBXqMQoTUS5R-978" value="" style="group" vertex="1" connectable="0" parent="Xm_AiRq3xBXqMQoTUS5R-977">
          <mxGeometry width="250" height="40" as="geometry" />
        </mxCell>
        <mxCell id="Xm_AiRq3xBXqMQoTUS5R-979" value="" style="rounded=0;whiteSpace=wrap;html=1;fillColor=none;" vertex="1" parent="Xm_AiRq3xBXqMQoTUS5R-978">
          <mxGeometry width="250" height="40" as="geometry" />
        </mxCell>
        <mxCell id="Xm_AiRq3xBXqMQoTUS5R-980" value="comments TeamComment" style="shape=partialRectangle;overflow=hidden;connectable=0;fillColor=none;top=0;left=0;bottom=0;right=0;align=left;spacingLeft=6;" vertex="1" parent="Xm_AiRq3xBXqMQoTUS5R-978">
          <mxGeometry x="30" width="220" height="40" as="geometry">
            <mxRectangle width="220" height="40" as="alternateBounds" />
          </mxGeometry>
        </mxCell>
        <mxCell id="Xm_AiRq3xBXqMQoTUS5R-981" value="" style="endArrow=none;html=1;rounded=0;entryX=0.119;entryY=0.002;entryDx=0;entryDy=0;entryPerimeter=0;exitX=0.119;exitY=0.993;exitDx=0;exitDy=0;exitPerimeter=0;" edge="1" parent="Xm_AiRq3xBXqMQoTUS5R-978" source="Xm_AiRq3xBXqMQoTUS5R-979" target="Xm_AiRq3xBXqMQoTUS5R-979">
          <mxGeometry width="50" height="50" relative="1" as="geometry">
            <mxPoint x="140" y="80" as="sourcePoint" />
            <mxPoint x="190" y="30" as="targetPoint" />
          </mxGeometry>
        </mxCell>
        <mxCell id="Xm_AiRq3xBXqMQoTUS5R-1062" value="" style="edgeStyle=entityRelationEdgeStyle;fontSize=12;html=1;endArrow=ERoneToMany;rounded=0;" edge="1" parent="1">
          <mxGeometry width="100" height="100" relative="1" as="geometry">
            <mxPoint x="490" y="760" as="sourcePoint" />
            <mxPoint x="670" y="840" as="targetPoint" />
          </mxGeometry>
        </mxCell>
        <mxCell id="Xm_AiRq3xBXqMQoTUS5R-1063" value="" style="edgeStyle=entityRelationEdgeStyle;fontSize=12;html=1;endArrow=ERoneToMany;rounded=0;" edge="1" parent="1">
          <mxGeometry width="100" height="100" relative="1" as="geometry">
            <mxPoint x="490" y="840" as="sourcePoint" />
            <mxPoint x="670" y="1480" as="targetPoint" />
            <Array as="points">
              <mxPoint x="580" y="850" />
              <mxPoint x="510" y="1480" />
              <mxPoint x="520" y="1180" />
            </Array>
          </mxGeometry>
        </mxCell>
        <mxCell id="Xm_AiRq3xBXqMQoTUS5R-1133" value="" style="fontSize=12;html=1;endArrow=ERoneToMany;rounded=0;" edge="1" parent="1">
          <mxGeometry width="100" height="100" relative="1" as="geometry">
            <mxPoint x="800" y="430" as="sourcePoint" />
            <mxPoint x="800" y="560" as="targetPoint" />
          </mxGeometry>
        </mxCell>
        <mxCell id="Xm_AiRq3xBXqMQoTUS5R-1134" value="" style="fontSize=12;html=1;endArrow=ERoneToMany;rounded=0;entryX=0.003;entryY=0.008;entryDx=0;entryDy=0;entryPerimeter=0;" edge="1" parent="1" target="Xm_AiRq3xBXqMQoTUS5R-564">
          <mxGeometry width="100" height="100" relative="1" as="geometry">
            <mxPoint x="920" y="700" as="sourcePoint" />
            <mxPoint x="1140" y="610" as="targetPoint" />
          </mxGeometry>
        </mxCell>
        <mxCell id="Xm_AiRq3xBXqMQoTUS5R-1135" value="" style="fontSize=12;html=1;endArrow=ERoneToMany;rounded=0;entryX=0.003;entryY=0.008;entryDx=0;entryDy=0;entryPerimeter=0;" edge="1" parent="1">
          <mxGeometry width="100" height="100" relative="1" as="geometry">
            <mxPoint x="920" y="170" as="sourcePoint" />
            <mxPoint x="1026" y="170" as="targetPoint" />
          </mxGeometry>
        </mxCell>
        <mxCell id="Xm_AiRq3xBXqMQoTUS5R-1136" value="" style="edgeStyle=orthogonalEdgeStyle;fontSize=12;html=1;endArrow=ERoneToMany;rounded=0;" edge="1" parent="1">
          <mxGeometry width="100" height="100" relative="1" as="geometry">
            <mxPoint x="920" y="1321" as="sourcePoint" />
            <mxPoint x="1160" y="980" as="targetPoint" />
          </mxGeometry>
        </mxCell>
        <mxCell id="Xm_AiRq3xBXqMQoTUS5R-1137" value="" style="fontSize=12;html=1;endArrow=ERoneToMany;rounded=0;entryX=0.002;entryY=0.969;entryDx=0;entryDy=0;entryPerimeter=0;edgeStyle=orthogonalEdgeStyle;jumpStyle=arc;" edge="1" parent="1" target="Xm_AiRq3xBXqMQoTUS5R-664">
          <mxGeometry width="100" height="100" relative="1" as="geometry">
            <mxPoint x="920" y="1010" as="sourcePoint" />
            <mxPoint x="1026" y="1010" as="targetPoint" />
          </mxGeometry>
        </mxCell>
        <mxCell id="Xm_AiRq3xBXqMQoTUS5R-1138" value="" style="edgeStyle=orthogonalEdgeStyle;fontSize=12;html=1;endArrow=ERoneToMany;rounded=0;" edge="1" parent="1">
          <mxGeometry width="100" height="100" relative="1" as="geometry">
            <mxPoint x="1276" y="762" as="sourcePoint" />
            <mxPoint x="1356" y="1040" as="targetPoint" />
          </mxGeometry>
        </mxCell>
        <mxCell id="Xm_AiRq3xBXqMQoTUS5R-1139" value="" style="fontSize=12;html=1;endArrow=ERoneToMany;rounded=0;entryX=0.003;entryY=0.008;entryDx=0;entryDy=0;entryPerimeter=0;" edge="1" parent="1">
          <mxGeometry width="100" height="100" relative="1" as="geometry">
            <mxPoint x="1275" y="170" as="sourcePoint" />
            <mxPoint x="1381" y="170" as="targetPoint" />
          </mxGeometry>
        </mxCell>
        <mxCell id="Xm_AiRq3xBXqMQoTUS5R-1140" value="" style="fontSize=12;html=1;endArrow=ERoneToMany;rounded=0;" edge="1" parent="1">
          <mxGeometry width="100" height="100" relative="1" as="geometry">
            <mxPoint x="1520" y="490" as="sourcePoint" />
            <mxPoint x="1520" y="430" as="targetPoint" />
          </mxGeometry>
        </mxCell>
        <mxCell id="Xm_AiRq3xBXqMQoTUS5R-1142" value="" style="edgeStyle=orthogonalEdgeStyle;fontSize=12;html=1;endArrow=ERmany;startArrow=ERmany;rounded=0;entryX=-0.006;entryY=0.563;entryDx=0;entryDy=0;entryPerimeter=0;" edge="1" parent="1" target="Xm_AiRq3xBXqMQoTUS5R-936">
          <mxGeometry width="100" height="100" relative="1" as="geometry">
            <mxPoint x="850" y="430" as="sourcePoint" />
            <mxPoint x="1070" y="500" as="targetPoint" />
          </mxGeometry>
        </mxCell>
      </root>
    </mxGraphModel>
  </diagram>
</mxfile>
